ISO-10303-21;
HEADER;
FILE_DESCRIPTION (( 'STEP AP203' ),
    '1' );
FILE_NAME ('1_base_fixa_Valor predeterminado_sldprt.STEP',
    '2026-08-18T17:37:38',
    ( '' ),
    ( '' ),
    'SwSTEP 2.0',
    'SolidWorks 2025',
    '' );
FILE_SCHEMA (( 'CONFIG_CONTROL_DESIGN' ));
ENDSEC;

DATA;
#1 = CARTESIAN_POINT ( 'NONE',  ( 0.000000000000000000, 0.000000000000000000, 1.500000000000000000 ) ) ;
#2 = AXIS2_PLACEMENT_3D ( 'NONE', #351, #257, #287 ) ;
#3 = CARTESIAN_POINT ( 'NONE',  ( 0.000000000000000000, 0.000000000000000000, 5.500000000000000000 ) ) ;
#4 = AXIS2_PLACEMENT_3D ( 'NONE', #308, #119, #391 ) ;
#5 = EDGE_CURVE ( 'NONE', #299, #114, #18, .T. ) ;
#6 = CYLINDRICAL_SURFACE ( 'NONE', #123, 3.500000000000000888 ) ;
#7 = DIRECTION ( 'NONE',  ( -1.000000000000000000, 0.000000000000000000, 0.000000000000000000 ) ) ;
#8 = CARTESIAN_POINT ( 'NONE',  ( 0.000000000000000000, 0.000000000000000000, 25.50000000000000000 ) ) ;
#9 = ORIENTED_EDGE ( 'NONE', *, *, #324, .T. ) ;
#10 = AXIS2_PLACEMENT_3D ( 'NONE', #3, #126, #36 ) ;
#11 = LINE ( 'NONE', #138, #39 ) ;
#12 = EDGE_CURVE ( 'NONE', #353, #325, #143, .T. ) ;
#13 = APPROVAL_STATUS ( 'not_yet_approved' ) ;
#14 = LINE ( 'NONE', #69, #31 ) ;
#15 = EDGE_CURVE ( 'NONE', #325, #353, #205, .T. ) ;
#16 = ORIENTED_EDGE ( 'NONE', *, *, #260, .F. ) ;
#17 = DIRECTION ( 'NONE',  ( -0.000000000000000000, -0.000000000000000000, -1.000000000000000000 ) ) ;
#18 = LINE ( 'NONE', #270, #64 ) ;
#19 = ORIENTED_EDGE ( 'NONE', *, *, #5, .F. ) ;
#20 = APPLICATION_CONTEXT ( 'configuration controlled 3d designs of mechanical parts and assemblies' ) ;
#21 = EDGE_LOOP ( 'NONE', ( #173, #224, #24, #82 ) ) ;
#22 = VECTOR ( 'NONE', #314, 100.0000000000000000 ) ;
#23 =( GEOMETRIC_REPRESENTATION_CONTEXT ( 3 ) GLOBAL_UNCERTAINTY_ASSIGNED_CONTEXT ( ( #371 ) ) GLOBAL_UNIT_ASSIGNED_CONTEXT ( ( #93, #90, #210 ) ) REPRESENTATION_CONTEXT ( 'NONE', 'WORKASPACE' ) );
#24 = ORIENTED_EDGE ( 'NONE', *, *, #124, .T. ) ;
#25 = APPROVAL_STATUS ( 'not_yet_approved' ) ;
#26 = ORIENTED_EDGE ( 'NONE', *, *, #396, .F. ) ;
#27 = ADVANCED_FACE ( 'NONE', ( #160 ), #158, .F. ) ;
#28 = CALENDAR_DATE ( 2026, 18, 8 ) ;
#29 = MANIFOLD_SOLID_BREP ( 'Ressalto-extrus\X2\00e3\X0\o3', #78 ) ;
#30 = DIRECTION ( 'NONE',  ( -1.000000000000000000, 0.000000000000000000, 0.000000000000000000 ) ) ;
#31 = VECTOR ( 'NONE', #252, 100.0000000000000000 ) ;
#32 = ADVANCED_FACE ( 'NONE', ( #68 ), #6, .T. ) ;
#33 = LINE ( 'NONE', #221, #242 ) ;
#34 = PERSON_AND_ORGANIZATION_ROLE ( 'design_owner' ) ;
#35 = ADVANCED_FACE ( 'NONE', ( #309 ), #277, .F. ) ;
#36 = DIRECTION ( 'NONE',  ( 1.000000000000000000, 0.000000000000000000, -0.000000000000000000 ) ) ;
#37 = FACE_OUTER_BOUND ( 'NONE', #329, .T. ) ;
#38 = PERSON_AND_ORGANIZATION ( #59, #282 ) ;
#39 = VECTOR ( 'NONE', #109, 100.0000000000000000 ) ;
#40 = DIRECTION ( 'NONE',  ( -1.000000000000000000, 0.000000000000000000, 0.000000000000000000 ) ) ;
#41 = FACE_OUTER_BOUND ( 'NONE', #384, .T. ) ;
#42 = DIRECTION ( 'NONE',  ( -0.000000000000000000, -0.000000000000000000, -1.000000000000000000 ) ) ;
#43 = CARTESIAN_POINT ( 'NONE',  ( 2.000000000000000000, 2.449293598294706414E-16, 25.50000000000000000 ) ) ;
#44 = APPROVAL_DATE_TIME ( #286, #62 ) ;
#45 = LINE ( 'NONE', #47, #22 ) ;
#46 = APPROVAL_PERSON_ORGANIZATION ( #302, #62, #155 ) ;
#47 = CARTESIAN_POINT ( 'NONE',  ( -5.000000000000000888, -5.000000000000002665, 1.500000000000000000 ) ) ;
#48 = VERTEX_POINT ( 'NONE', #254 ) ;
#49 = CARTESIAN_POINT ( 'NONE',  ( 3.500000000000000888, 4.286263797015737581E-16, 5.500000000000000000 ) ) ;
#50 = EDGE_LOOP ( 'NONE', ( #357, #85, #178, #241 ) ) ;
#51 = AXIS2_PLACEMENT_3D ( 'NONE', #271, #265, #118 ) ;
#52 = ORIENTED_EDGE ( 'NONE', *, *, #15, .T. ) ;
#53 = ORIENTED_EDGE ( 'NONE', *, *, #392, .T. ) ;
#54 = ORIENTED_EDGE ( 'NONE', *, *, #336, .F. ) ;
#55 = CIRCLE ( 'NONE', #157, 3.500000000000000888 ) ;
#56 = APPLICATION_PROTOCOL_DEFINITION ( 'international standard', 'config_control_design', 1994, #345 ) ;
#57 = ADVANCED_FACE ( 'NONE', ( #66 ), #311, .F. ) ;
#58 = ORIENTED_EDGE ( 'NONE', *, *, #153, .T. ) ;
#59 = PERSON ( 'UNSPECIFIED', 'UNSPECIFIED', 'UNSPECIFIED', ('UNSPECIFIED'), ('UNSPECIFIED'), ('UNSPECIFIED') ) ;
#60 = ORIENTED_EDGE ( 'NONE', *, *, #364, .F. ) ;
#61 = FACE_OUTER_BOUND ( 'NONE', #21, .T. ) ;
#62 = APPROVAL ( #25, 'UNSPECIFIED' ) ;
#63 = CARTESIAN_POINT ( 'NONE',  ( 0.000000000000000000, 0.000000000000000000, 1.500000000000000000 ) ) ;
#64 = VECTOR ( 'NONE', #387, 100.0000000000000000 ) ;
#65 = DIRECTION ( 'NONE',  ( 0.000000000000000000, 0.000000000000000000, 1.000000000000000000 ) ) ;
#66 = FACE_OUTER_BOUND ( 'NONE', #333, .T. ) ;
#67 = ADVANCED_FACE ( 'NONE', ( #185, #214 ), #370, .T. ) ;
#68 = FACE_OUTER_BOUND ( 'NONE', #116, .T. ) ;
#69 = CARTESIAN_POINT ( 'NONE',  ( -5.000000000000000888, -5.000000000000002665, 0.000000000000000000 ) ) ;
#70 = SECURITY_CLASSIFICATION_LEVEL ( 'unclassified' ) ;
#71 = AXIS2_PLACEMENT_3D ( 'NONE', #72, #65, #310 ) ;
#72 = CARTESIAN_POINT ( 'NONE',  ( 0.000000000000000000, 0.000000000000000000, 5.500000000000000000 ) ) ;
#73 = ADVANCED_FACE ( 'NONE', ( #164, #61 ), #338, .T. ) ;
#74 = CARTESIAN_POINT ( 'NONE',  ( 5.000000000000000000, -5.000000000000000888, 0.000000000000000000 ) ) ;
#75 = CARTESIAN_POINT ( 'NONE',  ( -5.000000000000000888, -5.000000000000002665, 1.500000000000000000 ) ) ;
#76 = ORIENTED_EDGE ( 'NONE', *, *, #324, .F. ) ;
#77 = CARTESIAN_POINT ( 'NONE',  ( 5.000000000000000000, 5.000000000000000000, 1.500000000000000000 ) ) ;
#78 = CLOSED_SHELL ( 'NONE', ( #131, #32, #57, #27, #35, #321, #73, #135, #81, #67, #183, #266 ) ) ;
#79 = CC_DESIGN_APPROVAL ( #170, ( #300 ) ) ;
#80 = LINE ( 'NONE', #77, #95 ) ;
#81 = ADVANCED_FACE ( 'NONE', ( #37 ), #187, .T. ) ;
#82 = ORIENTED_EDGE ( 'NONE', *, *, #336, .T. ) ;
#83 = EDGE_CURVE ( 'NONE', #299, #91, #198, .T. ) ;
#84 = ORIENTED_EDGE ( 'NONE', *, *, #103, .T. ) ;
#85 = ORIENTED_EDGE ( 'NONE', *, *, #284, .F. ) ;
#86 = VERTEX_POINT ( 'NONE', #128 ) ;
#87 = PERSON_AND_ORGANIZATION_ROLE ( 'creator' ) ;
#88 = DIRECTION ( 'NONE',  ( 1.000000000000000000, 0.000000000000000000, 0.000000000000000000 ) ) ;
#89 = AXIS2_PLACEMENT_3D ( 'NONE', #188, #196, #292 ) ;
#90 =( NAMED_UNIT ( * ) PLANE_ANGLE_UNIT ( ) SI_UNIT ( $, .RADIAN. ) );
#91 = VERTEX_POINT ( 'NONE', #161 ) ;
#92 = DIRECTION ( 'NONE',  ( 0.000000000000000000, 0.000000000000000000, 1.000000000000000000 ) ) ;
#93 =( LENGTH_UNIT ( ) NAMED_UNIT ( * ) SI_UNIT ( .CENTI., .METRE. ) );
#94 = CARTESIAN_POINT ( 'NONE',  ( -5.000000000000000888, -5.000000000000002665, 1.500000000000000000 ) ) ;
#95 = VECTOR ( 'NONE', #228, 100.0000000000000000 ) ;
#96 = LOCAL_TIME ( 14, 37, 38.00000000000000000, #203 ) ;
#97 = CARTESIAN_POINT ( 'NONE',  ( 0.000000000000000000, 0.000000000000000000, 5.500000000000000000 ) ) ;
#98 = DIRECTION ( 'NONE',  ( -0.000000000000000000, -0.000000000000000000, -1.000000000000000000 ) ) ;
#99 = PERSON_AND_ORGANIZATION_ROLE ( 'design_supplier' ) ;
#100 = PRODUCT_RELATED_PRODUCT_CATEGORY ( 'detail', '', ( #293 ) ) ;
#101 = DIRECTION ( 'NONE',  ( 0.000000000000000000, 0.000000000000000000, 1.000000000000000000 ) ) ;
#102 = CARTESIAN_POINT ( 'NONE',  ( 0.000000000000000000, 0.000000000000000000, 25.50000000000000000 ) ) ;
#103 = EDGE_CURVE ( 'NONE', #86, #323, #395, .T. ) ;
#104 = CARTESIAN_POINT ( 'NONE',  ( -2.000000000000000000, 0.000000000000000000, 5.500000000000000000 ) ) ;
#105 = CC_DESIGN_PERSON_AND_ORGANIZATION_ASSIGNMENT ( #177, #34, ( #293 ) ) ;
#106 = EDGE_LOOP ( 'NONE', ( #175, #237, #298, #76 ) ) ;
#107 = DIRECTION ( 'NONE',  ( -0.000000000000000000, -0.000000000000000000, -1.000000000000000000 ) ) ;
#108 = EDGE_LOOP ( 'NONE', ( #154, #174 ) ) ;
#109 = DIRECTION ( 'NONE',  ( 0.000000000000000000, 1.000000000000000000, 0.000000000000000000 ) ) ;
#110 = AXIS2_PLACEMENT_3D ( 'NONE', #256, #166, #136 ) ;
#111 = APPROVAL_DATE_TIME ( #115, #170 ) ;
#112 = CARTESIAN_POINT ( 'NONE',  ( 5.000000000000000000, -5.000000000000000888, 1.500000000000000000 ) ) ;
#113 = CALENDAR_DATE ( 2026, 18, 8 ) ;
#114 = VERTEX_POINT ( 'NONE', #363 ) ;
#115 = DATE_AND_TIME ( #113, #227 ) ;
#116 = EDGE_LOOP ( 'NONE', ( #199, #388, #151, #16 ) ) ;
#117 = AXIS2_PLACEMENT_3D ( 'NONE', #125, #211, #279 ) ;
#118 = DIRECTION ( 'NONE',  ( 1.000000000000000000, 0.000000000000000000, 0.000000000000000000 ) ) ;
#119 = DIRECTION ( 'NONE',  ( 0.000000000000000000, 0.000000000000000000, 1.000000000000000000 ) ) ;
#120 = ORIENTED_EDGE ( 'NONE', *, *, #260, .T. ) ;
#121 = COORDINATED_UNIVERSAL_TIME_OFFSET ( 3, 0, .BEHIND. ) ;
#122 = EDGE_LOOP ( 'NONE', ( #26, #60 ) ) ;
#123 = AXIS2_PLACEMENT_3D ( 'NONE', #97, #368, #40 ) ;
#124 = EDGE_CURVE ( 'NONE', #236, #376, #184, .T. ) ;
#125 = CARTESIAN_POINT ( 'NONE',  ( -5.000000000000000888, 4.999999999999998224, 1.500000000000000000 ) ) ;
#126 = DIRECTION ( 'NONE',  ( 0.000000000000000000, 0.000000000000000000, 1.000000000000000000 ) ) ;
#127 = APPROVAL_DATE_TIME ( #397, #380 ) ;
#128 = CARTESIAN_POINT ( 'NONE',  ( -5.000000000000000888, 4.999999999999998224, 1.500000000000000000 ) ) ;
#129 = AXIS2_PLACEMENT_3D ( 'NONE', #239, #359, #88 ) ;
#130 = PLANE ( 'NONE',  #269 ) ;
#131 = ADVANCED_FACE ( 'NONE', ( #340 ), #366, .T. ) ;
#132 = DIRECTION ( 'NONE',  ( -0.000000000000000000, -0.000000000000000000, -1.000000000000000000 ) ) ;
#133 = PERSON_AND_ORGANIZATION ( #59, #282 ) ;
#134 = CARTESIAN_POINT ( 'NONE',  ( -5.000000000000000888, -5.000000000000002665, 1.500000000000000000 ) ) ;
#135 = ADVANCED_FACE ( 'NONE', ( #244 ), #130, .F. ) ;
#136 = DIRECTION ( 'NONE',  ( 1.000000000000000000, 0.000000000000000000, -0.000000000000000000 ) ) ;
#137 = EDGE_LOOP ( 'NONE', ( #390, #201, #54, #291 ) ) ;
#138 = CARTESIAN_POINT ( 'NONE',  ( 5.000000000000000000, -5.000000000000000888, 1.500000000000000000 ) ) ;
#139 = ORIENTED_EDGE ( 'NONE', *, *, #326, .F. ) ;
#140 = CARTESIAN_POINT ( 'NONE',  ( -5.000000000000000888, 4.999999999999998224, 0.000000000000000000 ) ) ;
#141 = EDGE_LOOP ( 'NONE', ( #9, #139, #272, #84 ) ) ;
#142 = DIRECTION ( 'NONE',  ( -1.000000000000000000, -1.387778780781445676E-16, -0.000000000000000000 ) ) ;
#143 = CIRCLE ( 'NONE', #51, 2.000000000000000000 ) ;
#144 = EDGE_CURVE ( 'NONE', #91, #299, #55, .T. ) ;
#145 = ORIENTED_EDGE ( 'NONE', *, *, #103, .F. ) ;
#146 = ORIENTED_EDGE ( 'NONE', *, *, #392, .F. ) ;
#147 = DATE_AND_TIME ( #232, #348 ) ;
#148 = EDGE_CURVE ( 'NONE', #361, #353, #33, .T. ) ;
#149 = ORIENTED_EDGE ( 'NONE', *, *, #396, .T. ) ;
#150 = VECTOR ( 'NONE', #107, 100.0000000000000000 ) ;
#151 = ORIENTED_EDGE ( 'NONE', *, *, #364, .T. ) ;
#153 = EDGE_CURVE ( 'NONE', #234, #323, #349, .T. ) ;
#152 = DIRECTION ( 'NONE',  ( 1.000000000000000000, 0.000000000000000000, 0.000000000000000000 ) ) ;
#154 = ORIENTED_EDGE ( 'NONE', *, *, #15, .F. ) ;
#155 = APPROVAL_ROLE ( '' ) ;
#156 = CARTESIAN_POINT ( 'NONE',  ( 0.000000000000000000, 0.000000000000000000, 25.50000000000000000 ) ) ;
#157 = AXIS2_PLACEMENT_3D ( 'NONE', #335, #181, #307 ) ;
#158 = PLANE ( 'NONE',  #289 ) ;
#159 = APPLICATION_PROTOCOL_DEFINITION ( 'international standard', 'config_control_design', 1994, #20 ) ;
#160 = FACE_OUTER_BOUND ( 'NONE', #141, .T. ) ;
#161 = CARTESIAN_POINT ( 'NONE',  ( -3.500000000000000888, 0.000000000000000000, 5.500000000000000000 ) ) ;
#162 = CC_DESIGN_APPROVAL ( #62, ( #367 ) ) ;
#163 = DESIGN_CONTEXT ( 'detailed design', #20, 'design' ) ;
#164 = FACE_BOUND ( 'NONE', #122, .T. ) ;
#165 = CARTESIAN_POINT ( 'NONE',  ( -5.000000000000000888, -5.000000000000002665, 0.000000000000000000 ) ) ;
#166 = DIRECTION ( 'NONE',  ( 0.000000000000000000, 0.000000000000000000, 1.000000000000000000 ) ) ;
#167 = CARTESIAN_POINT ( 'NONE',  ( 5.000000000000000000, 5.000000000000000000, 0.000000000000000000 ) ) ;
#168 = LINE ( 'NONE', #294, #281 ) ;
#169 = DIRECTION ( 'NONE',  ( 0.000000000000000000, 1.000000000000000000, 0.000000000000000000 ) ) ;
#170 = APPROVAL ( #13, 'UNSPECIFIED' ) ;
#171 = COORDINATED_UNIVERSAL_TIME_OFFSET ( 3, 0, .BEHIND. ) ;
#172 = EDGE_CURVE ( 'NONE', #48, #361, #386, .T. ) ;
#173 = ORIENTED_EDGE ( 'NONE', *, *, #231, .T. ) ;
#174 = ORIENTED_EDGE ( 'NONE', *, *, #12, .F. ) ;
#175 = ORIENTED_EDGE ( 'NONE', *, *, #153, .F. ) ;
#176 = APPROVAL_PERSON_ORGANIZATION ( #297, #170, #200 ) ;
#177 = PERSON_AND_ORGANIZATION ( #59, #282 ) ;
#178 = ORIENTED_EDGE ( 'NONE', *, *, #124, .F. ) ;
#179 = EDGE_LOOP ( 'NONE', ( #146, #317, #355, #288 ) ) ;
#180 = CC_DESIGN_PERSON_AND_ORGANIZATION_ASSIGNMENT ( #133, #218, ( #300 ) ) ;
#181 = DIRECTION ( 'NONE',  ( 0.000000000000000000, 0.000000000000000000, 1.000000000000000000 ) ) ;
#182 = AXIS2_PLACEMENT_3D ( 'NONE', #102, #17, #7 ) ;
#183 = ADVANCED_FACE ( 'NONE', ( #41 ), #219, .T. ) ;
#184 = LINE ( 'NONE', #283, #341 ) ;
#185 = FACE_BOUND ( 'NONE', #108, .T. ) ;
#186 = PERSON_AND_ORGANIZATION ( #59, #282 ) ;
#187 = CYLINDRICAL_SURFACE ( 'NONE', #250, 3.500000000000000888 ) ;
#188 = CARTESIAN_POINT ( 'NONE',  ( 0.000000000000000000, 0.000000000000000000, 1.500000000000000000 ) ) ;
#189 = AXIS2_PLACEMENT_3D ( 'NONE', #377, #306, #248 ) ;
#190 = DIRECTION ( 'NONE',  ( -0.000000000000000000, -1.000000000000000000, -0.000000000000000000 ) ) ;
#191 = LINE ( 'NONE', #112, #193 ) ;
#192 = LINE ( 'NONE', #344, #318 ) ;
#193 = VECTOR ( 'NONE', #346, 100.0000000000000000 ) ;
#194 = LOCAL_TIME ( 14, 37, 38.00000000000000000, #304 ) ;
#195 = LINE ( 'NONE', #75, #331 ) ;
#196 = DIRECTION ( 'NONE',  ( 0.000000000000000000, 0.000000000000000000, 1.000000000000000000 ) ) ;
#197 = CARTESIAN_POINT ( 'NONE',  ( -3.500000000000000888, 0.000000000000000000, 5.500000000000000000 ) ) ;
#198 = CIRCLE ( 'NONE', #71, 3.500000000000000888 ) ;
#199 = ORIENTED_EDGE ( 'NONE', *, *, #83, .F. ) ;
#200 = APPROVAL_ROLE ( '' ) ;
#201 = ORIENTED_EDGE ( 'NONE', *, *, #216, .F. ) ;
#202 = ORIENTED_EDGE ( 'NONE', *, *, #172, .T. ) ;
#203 = COORDINATED_UNIVERSAL_TIME_OFFSET ( 3, 0, .BEHIND. ) ;
#204 = ORIENTED_EDGE ( 'NONE', *, *, #144, .F. ) ;
#205 = CIRCLE ( 'NONE', #129, 2.000000000000000000 ) ;
#206 = LOCAL_TIME ( 14, 37, 38.00000000000000000, #121 ) ;
#207 = DATE_AND_TIME ( #330, #96 ) ;
#208 = EDGE_LOOP ( 'NONE', ( #202, #53 ) ) ;
#209 = DIRECTION ( 'NONE',  ( 1.000000000000000000, 0.000000000000000000, -0.000000000000000000 ) ) ;
#210 =( NAMED_UNIT ( * ) SI_UNIT ( $, .STERADIAN. ) SOLID_ANGLE_UNIT ( ) );
#211 = DIRECTION ( 'NONE',  ( 1.387778780781445676E-16, -1.000000000000000000, 0.000000000000000000 ) ) ;
#212 = VECTOR ( 'NONE', #372, 100.0000000000000000 ) ;
#213 = AXIS2_PLACEMENT_3D ( 'NONE', #63, #276, #152 ) ;
#214 = FACE_OUTER_BOUND ( 'NONE', #222, .T. ) ;
#215 = DIRECTION ( 'NONE',  ( -0.000000000000000000, -0.000000000000000000, -1.000000000000000000 ) ) ;
#216 = EDGE_CURVE ( 'NONE', #350, #234, #80, .T. ) ;
#217 = DIRECTION ( 'NONE',  ( 1.000000000000000000, 1.387778780781445676E-16, 0.000000000000000000 ) ) ;
#218 = PERSON_AND_ORGANIZATION_ROLE ( 'classification_officer' ) ;
#219 = CYLINDRICAL_SURFACE ( 'NONE', #182, 2.000000000000000000 ) ;
#220 = CC_DESIGN_DATE_AND_TIME_ASSIGNMENT ( #207, #243, ( #312 ) ) ;
#221 = CARTESIAN_POINT ( 'NONE',  ( 2.000000000000000000, 2.449293598294706414E-16, 25.50000000000000000 ) ) ;
#222 = EDGE_LOOP ( 'NONE', ( #383, #303 ) ) ;
#223 = CARTESIAN_POINT ( 'NONE',  ( -5.000000000000000888, 4.999999999999998224, 1.500000000000000000 ) ) ;
#224 = ORIENTED_EDGE ( 'NONE', *, *, #315, .T. ) ;
#225 = PRODUCT_DEFINITION_SHAPE ( 'NONE', 'NONE',  #312 ) ;
#226 = CC_DESIGN_PERSON_AND_ORGANIZATION_ASSIGNMENT ( #358, #87, ( #312 ) ) ;
#227 = LOCAL_TIME ( 14, 37, 38.00000000000000000, #171 ) ;
#228 = DIRECTION ( 'NONE',  ( -0.000000000000000000, -0.000000000000000000, -1.000000000000000000 ) ) ;
#229 = ORIENTED_EDGE ( 'NONE', *, *, #231, .F. ) ;
#230 = FACE_OUTER_BOUND ( 'NONE', #208, .T. ) ;
#231 = EDGE_CURVE ( 'NONE', #350, #86, #285, .T. ) ;
#232 = CALENDAR_DATE ( 2026, 18, 8 ) ;
#233 = CC_DESIGN_DATE_AND_TIME_ASSIGNMENT ( #147, #352, ( #300 ) ) ;
#234 = VERTEX_POINT ( 'NONE', #167 ) ;
#235 = CARTESIAN_POINT ( 'NONE',  ( 5.000000000000000000, -5.000000000000000888, 1.500000000000000000 ) ) ;
#236 = VERTEX_POINT ( 'NONE', #134 ) ;
#237 = ORIENTED_EDGE ( 'NONE', *, *, #240, .F. ) ;
#238 = APPROVAL_ROLE ( '' ) ;
#239 = CARTESIAN_POINT ( 'NONE',  ( 0.000000000000000000, 0.000000000000000000, 5.500000000000000000 ) ) ;
#240 = EDGE_CURVE ( 'NONE', #267, #234, #192, .T. ) ;
#241 = ORIENTED_EDGE ( 'NONE', *, *, #326, .T. ) ;
#242 = VECTOR ( 'NONE', #264, 100.0000000000000000 ) ;
#243 = DATE_TIME_ROLE ( 'creation_date' ) ;
#244 = FACE_OUTER_BOUND ( 'NONE', #106, .T. ) ;
#245 = MECHANICAL_CONTEXT ( 'NONE', #345, 'mechanical' ) ;
#246 = CARTESIAN_POINT ( 'NONE',  ( -5.000000000000000888, -5.000000000000002665, 1.500000000000000000 ) ) ;
#247 = EDGE_CURVE ( 'NONE', #48, #325, #320, .T. ) ;
#248 = DIRECTION ( 'NONE',  ( 1.000000000000000000, 0.000000000000000000, 0.000000000000000000 ) ) ;
#249 = CARTESIAN_POINT ( 'NONE',  ( -5.000000000000000888, 4.999999999999998224, 1.500000000000000000 ) ) ;
#250 = AXIS2_PLACEMENT_3D ( 'NONE', #337, #132, #30 ) ;
#251 = CC_DESIGN_APPROVAL ( #380, ( #312 ) ) ;
#252 = DIRECTION ( 'NONE',  ( 1.000000000000000000, 1.387778780781445676E-16, 0.000000000000000000 ) ) ;
#253 = DIRECTION ( 'NONE',  ( 0.000000000000000000, 0.000000000000000000, -1.000000000000000000 ) ) ;
#254 = CARTESIAN_POINT ( 'NONE',  ( -2.000000000000000000, 0.000000000000000000, 25.50000000000000000 ) ) ;
#255 = CC_DESIGN_PERSON_AND_ORGANIZATION_ASSIGNMENT ( #186, #369, ( #367 ) ) ;
#256 = CARTESIAN_POINT ( 'NONE',  ( 0.000000000000000000, 0.000000000000000000, 25.50000000000000000 ) ) ;
#257 = DIRECTION ( 'NONE',  ( -1.000000000000000000, 0.000000000000000000, 0.000000000000000000 ) ) ;
#258 = VERTEX_POINT ( 'NONE', #165 ) ;
#259 = CARTESIAN_POINT ( 'NONE',  ( 5.000000000000000000, 5.000000000000000000, 1.500000000000000000 ) ) ;
#260 = EDGE_CURVE ( 'NONE', #91, #301, #382, .T. ) ;
#261 = ORIENTED_EDGE ( 'NONE', *, *, #148, .F. ) ;
#262 = CARTESIAN_POINT ( 'NONE',  ( -2.000000000000000000, 0.000000000000000000, 25.50000000000000000 ) ) ;
#263 = CIRCLE ( 'NONE', #89, 3.500000000000000888 ) ;
#264 = DIRECTION ( 'NONE',  ( -0.000000000000000000, -0.000000000000000000, -1.000000000000000000 ) ) ;
#265 = DIRECTION ( 'NONE',  ( 0.000000000000000000, 0.000000000000000000, 1.000000000000000000 ) ) ;
#266 = ADVANCED_FACE ( 'NONE', ( #230 ), #322, .T. ) ;
#267 = VERTEX_POINT ( 'NONE', #74 ) ;
#268 = SHAPE_DEFINITION_REPRESENTATION ( #225, #343 ) ;
#269 = AXIS2_PLACEMENT_3D ( 'NONE', #362, #92, #209 ) ;
#270 = CARTESIAN_POINT ( 'NONE',  ( 3.500000000000000888, 4.286263797015737581E-16, 5.500000000000000000 ) ) ;
#271 = CARTESIAN_POINT ( 'NONE',  ( 0.000000000000000000, 0.000000000000000000, 5.500000000000000000 ) ) ;
#272 = ORIENTED_EDGE ( 'NONE', *, *, #315, .F. ) ;
#273 = PERSON_AND_ORGANIZATION ( #59, #282 ) ;
#274 = DIRECTION ( 'NONE',  ( 1.000000000000000000, 0.000000000000000000, 0.000000000000000000 ) ) ;
#275 = VECTOR ( 'NONE', #215, 100.0000000000000000 ) ;
#276 = DIRECTION ( 'NONE',  ( 0.000000000000000000, 0.000000000000000000, 1.000000000000000000 ) ) ;
#277 = PLANE ( 'NONE',  #373 ) ;
#278 = CALENDAR_DATE ( 2026, 18, 8 ) ;
#279 = DIRECTION ( 'NONE',  ( 1.000000000000000000, 1.387778780781445676E-16, 0.000000000000000000 ) ) ;
#280 = DIRECTION ( 'NONE',  ( -1.000000000000000000, 0.000000000000000000, 0.000000000000000000 ) ) ;
#281 = VECTOR ( 'NONE', #190, 100.0000000000000000 ) ;
#282 = ORGANIZATION ( 'UNSPECIFIED', 'UNSPECIFIED', '' ) ;
#283 = CARTESIAN_POINT ( 'NONE',  ( -5.000000000000000888, -5.000000000000002665, 1.500000000000000000 ) ) ;
#284 = EDGE_CURVE ( 'NONE', #376, #267, #191, .T. ) ;
#285 = LINE ( 'NONE', #223, #379 ) ;
#286 = DATE_AND_TIME ( #28, #194 ) ;
#287 = DIRECTION ( 'NONE',  ( 0.000000000000000000, 0.000000000000000000, 1.000000000000000000 ) ) ;
#288 = ORIENTED_EDGE ( 'NONE', *, *, #247, .F. ) ;
#289 = AXIS2_PLACEMENT_3D ( 'NONE', #246, #274, #253 ) ;
#290 = DIRECTION ( 'NONE',  ( -0.000000000000000000, -0.000000000000000000, -1.000000000000000000 ) ) ;
#291 = ORIENTED_EDGE ( 'NONE', *, *, #284, .T. ) ;
#292 = DIRECTION ( 'NONE',  ( 1.000000000000000000, 0.000000000000000000, 0.000000000000000000 ) ) ;
#293 = PRODUCT ( '1_base_fixa_Valor predeterminado_sldprt', '1_base_fixa_Valor predeterminado_sldprt', '', ( #245 ) ) ;
#294 = CARTESIAN_POINT ( 'NONE',  ( -5.000000000000000888, -5.000000000000002665, 0.000000000000000000 ) ) ;
#295 = COORDINATED_UNIVERSAL_TIME_OFFSET ( 3, 0, .BEHIND. ) ;
#296 = FACE_OUTER_BOUND ( 'NONE', #137, .T. ) ;
#297 = PERSON_AND_ORGANIZATION ( #59, #282 ) ;
#298 = ORIENTED_EDGE ( 'NONE', *, *, #356, .F. ) ;
#299 = VERTEX_POINT ( 'NONE', #49 ) ;
#300 = SECURITY_CLASSIFICATION ( '', '', #70 ) ;
#301 = VERTEX_POINT ( 'NONE', #374 ) ;
#302 = PERSON_AND_ORGANIZATION ( #59, #282 ) ;
#303 = ORIENTED_EDGE ( 'NONE', *, *, #83, .T. ) ;
#304 = COORDINATED_UNIVERSAL_TIME_OFFSET ( 3, 0, .BEHIND. ) ;
#305 = DIRECTION ( 'NONE',  ( 1.000000000000000000, 0.000000000000000000, -0.000000000000000000 ) ) ;
#306 = DIRECTION ( 'NONE',  ( 0.000000000000000000, 0.000000000000000000, 1.000000000000000000 ) ) ;
#307 = DIRECTION ( 'NONE',  ( 1.000000000000000000, 0.000000000000000000, 0.000000000000000000 ) ) ;
#308 = CARTESIAN_POINT ( 'NONE',  ( 0.000000000000000000, 0.000000000000000000, 0.000000000000000000 ) ) ;
#309 = FACE_OUTER_BOUND ( 'NONE', #50, .T. ) ;
#310 = DIRECTION ( 'NONE',  ( 1.000000000000000000, 0.000000000000000000, 0.000000000000000000 ) ) ;
#311 = PLANE ( 'NONE',  #117 ) ;
#312 = PRODUCT_DEFINITION ( 'UNKNOWN', '', #367, #163 ) ;
#313 = DIRECTION ( 'NONE',  ( 0.000000000000000000, 0.000000000000000000, 1.000000000000000000 ) ) ;
#314 = DIRECTION ( 'NONE',  ( -0.000000000000000000, -1.000000000000000000, -0.000000000000000000 ) ) ;
#315 = EDGE_CURVE ( 'NONE', #86, #236, #45, .T. ) ;
#316 = PLANE ( 'NONE',  #2 ) ;
#317 = ORIENTED_EDGE ( 'NONE', *, *, #148, .T. ) ;
#318 = VECTOR ( 'NONE', #169, 100.0000000000000000 ) ;
#319 = CC_DESIGN_SECURITY_CLASSIFICATION ( #300, ( #367 ) ) ;
#320 = LINE ( 'NONE', #262, #150 ) ;
#321 = ADVANCED_FACE ( 'NONE', ( #296 ), #316, .F. ) ;
#322 = PLANE ( 'NONE',  #110 ) ;
#323 = VERTEX_POINT ( 'NONE', #378 ) ;
#324 = EDGE_CURVE ( 'NONE', #323, #258, #168, .T. ) ;
#325 = VERTEX_POINT ( 'NONE', #104 ) ;
#326 = EDGE_CURVE ( 'NONE', #236, #258, #195, .T. ) ;
#327 = ORIENTED_EDGE ( 'NONE', *, *, #247, .T. ) ;
#328 = CC_DESIGN_PERSON_AND_ORGANIZATION_ASSIGNMENT ( #38, #99, ( #367 ) ) ;
#329 = EDGE_LOOP ( 'NONE', ( #19, #204, #120, #149 ) ) ;
#330 = CALENDAR_DATE ( 2026, 18, 8 ) ;
#331 = VECTOR ( 'NONE', #290, 100.0000000000000000 ) ;
#332 = APPROVAL_PERSON_ORGANIZATION ( #273, #380, #238 ) ;
#333 = EDGE_LOOP ( 'NONE', ( #58, #145, #229, #334 ) ) ;
#334 = ORIENTED_EDGE ( 'NONE', *, *, #216, .T. ) ;
#335 = CARTESIAN_POINT ( 'NONE',  ( 0.000000000000000000, 0.000000000000000000, 5.500000000000000000 ) ) ;
#336 = EDGE_CURVE ( 'NONE', #376, #350, #11, .T. ) ;
#337 = CARTESIAN_POINT ( 'NONE',  ( 0.000000000000000000, 0.000000000000000000, 5.500000000000000000 ) ) ;
#338 = PLANE ( 'NONE',  #385 ) ;
#339 = DIRECTION ( 'NONE',  ( -1.000000000000000000, -1.387778780781445676E-16, 0.000000000000000000 ) ) ;
#340 = FACE_OUTER_BOUND ( 'NONE', #179, .T. ) ;
#341 = VECTOR ( 'NONE', #217, 100.0000000000000000 ) ;
#342 = DIRECTION ( 'NONE',  ( 1.000000000000000000, 0.000000000000000000, 0.000000000000000000 ) ) ;
#343 = ADVANCED_BREP_SHAPE_REPRESENTATION ( '1_base_fixa_Valor predeterminado_sldprt', ( #29, #4 ), #23 ) ;
#344 = CARTESIAN_POINT ( 'NONE',  ( 5.000000000000000000, -5.000000000000000888, 0.000000000000000000 ) ) ;
#345 = APPLICATION_CONTEXT ( 'configuration controlled 3d designs of mechanical parts and assemblies' ) ;
#346 = DIRECTION ( 'NONE',  ( -0.000000000000000000, -0.000000000000000000, -1.000000000000000000 ) ) ;
#347 = ORIENTED_EDGE ( 'NONE', *, *, #172, .F. ) ;
#348 = LOCAL_TIME ( 14, 37, 38.00000000000000000, #295 ) ;
#349 = LINE ( 'NONE', #140, #212 ) ;
#350 = VERTEX_POINT ( 'NONE', #259 ) ;
#351 = CARTESIAN_POINT ( 'NONE',  ( 5.000000000000000000, -5.000000000000000888, 1.500000000000000000 ) ) ;
#352 = DATE_TIME_ROLE ( 'classification_date' ) ;
#353 = VERTEX_POINT ( 'NONE', #375 ) ;
#354 = AXIS2_PLACEMENT_3D ( 'NONE', #156, #98, #280 ) ;
#355 = ORIENTED_EDGE ( 'NONE', *, *, #12, .T. ) ;
#356 = EDGE_CURVE ( 'NONE', #258, #267, #14, .T. ) ;
#357 = ORIENTED_EDGE ( 'NONE', *, *, #356, .T. ) ;
#358 = PERSON_AND_ORGANIZATION ( #59, #282 ) ;
#359 = DIRECTION ( 'NONE',  ( 0.000000000000000000, 0.000000000000000000, 1.000000000000000000 ) ) ;
#360 = CIRCLE ( 'NONE', #189, 2.000000000000000000 ) ;
#361 = VERTEX_POINT ( 'NONE', #43 ) ;
#362 = CARTESIAN_POINT ( 'NONE',  ( 0.000000000000000000, 0.000000000000000000, 0.000000000000000000 ) ) ;
#363 = CARTESIAN_POINT ( 'NONE',  ( 3.500000000000000888, 4.286263797015737581E-16, 1.500000000000000000 ) ) ;
#364 = EDGE_CURVE ( 'NONE', #114, #301, #263, .T. ) ;
#365 = VECTOR ( 'NONE', #42, 100.0000000000000000 ) ;
#366 = CYLINDRICAL_SURFACE ( 'NONE', #354, 2.000000000000000000 ) ;
#367 = PRODUCT_DEFINITION_FORMATION_WITH_SPECIFIED_SOURCE ( 'ANY', '', #293, .NOT_KNOWN. ) ;
#368 = DIRECTION ( 'NONE',  ( -0.000000000000000000, -0.000000000000000000, -1.000000000000000000 ) ) ;
#369 = PERSON_AND_ORGANIZATION_ROLE ( 'creator' ) ;
#370 = PLANE ( 'NONE',  #10 ) ;
#371 = UNCERTAINTY_MEASURE_WITH_UNIT (LENGTH_MEASURE( 1.000000000000000082E-05 ), #93, 'distance_accuracy_value', 'NONE');
#372 = DIRECTION ( 'NONE',  ( -1.000000000000000000, -1.387778780781445676E-16, -0.000000000000000000 ) ) ;
#373 = AXIS2_PLACEMENT_3D ( 'NONE', #94, #394, #339 ) ;
#374 = CARTESIAN_POINT ( 'NONE',  ( -3.500000000000000888, 0.000000000000000000, 1.500000000000000000 ) ) ;
#375 = CARTESIAN_POINT ( 'NONE',  ( 2.000000000000000000, 2.449293598294706414E-16, 5.500000000000000000 ) ) ;
#376 = VERTEX_POINT ( 'NONE', #235 ) ;
#377 = CARTESIAN_POINT ( 'NONE',  ( 0.000000000000000000, 0.000000000000000000, 25.50000000000000000 ) ) ;
#378 = CARTESIAN_POINT ( 'NONE',  ( -5.000000000000000888, 4.999999999999998224, 0.000000000000000000 ) ) ;
#379 = VECTOR ( 'NONE', #142, 100.0000000000000000 ) ;
#380 = APPROVAL ( #389, 'UNSPECIFIED' ) ;
#381 = CIRCLE ( 'NONE', #213, 3.500000000000000888 ) ;
#382 = LINE ( 'NONE', #197, #365 ) ;
#383 = ORIENTED_EDGE ( 'NONE', *, *, #144, .T. ) ;
#384 = EDGE_LOOP ( 'NONE', ( #261, #347, #327, #52 ) ) ;
#385 = AXIS2_PLACEMENT_3D ( 'NONE', #1, #101, #305 ) ;
#386 = CIRCLE ( 'NONE', #393, 2.000000000000000000 ) ;
#387 = DIRECTION ( 'NONE',  ( -0.000000000000000000, -0.000000000000000000, -1.000000000000000000 ) ) ;
#388 = ORIENTED_EDGE ( 'NONE', *, *, #5, .T. ) ;
#389 = APPROVAL_STATUS ( 'not_yet_approved' ) ;
#390 = ORIENTED_EDGE ( 'NONE', *, *, #240, .T. ) ;
#391 = DIRECTION ( 'NONE',  ( 1.000000000000000000, 0.000000000000000000, 0.000000000000000000 ) ) ;
#392 = EDGE_CURVE ( 'NONE', #361, #48, #360, .T. ) ;
#393 = AXIS2_PLACEMENT_3D ( 'NONE', #8, #313, #342 ) ;
#394 = DIRECTION ( 'NONE',  ( -1.387778780781445676E-16, 1.000000000000000000, 0.000000000000000000 ) ) ;
#395 = LINE ( 'NONE', #249, #275 ) ;
#396 = EDGE_CURVE ( 'NONE', #301, #114, #381, .T. ) ;
#397 = DATE_AND_TIME ( #278, #206 ) ;
ENDSEC;
END-ISO-10303-21;
