ISO-10303-21;
HEADER;
FILE_DESCRIPTION (( 'STEP AP203' ),
    '1' );
FILE_NAME ('2_conexao_Valor predeterminado_sldprt.STEP',
    '2026-08-18T17:37:40',
    ( '' ),
    ( '' ),
    'SwSTEP 2.0',
    'SolidWorks 2025',
    '' );
FILE_SCHEMA (( 'CONFIG_CONTROL_DESIGN' ));
ENDSEC;

DATA;
#1 = VECTOR ( 'NONE', #423, 100.0000000000000000 ) ;
#2 = ORIENTED_EDGE ( 'NONE', *, *, #460, .T. ) ;
#3 = LINE ( 'NONE', #151, #109 ) ;
#4 = ORIENTED_EDGE ( 'NONE', *, *, #121, .T. ) ;
#5 = CARTESIAN_POINT ( 'NONE',  ( 27.75000000000000355, 0.000000000000000000, 7.000000000000000888 ) ) ;
#6 = CARTESIAN_POINT ( 'NONE',  ( 27.75000000000000355, 0.000000000000000000, 7.600000000000001421 ) ) ;
#7 = DIRECTION ( 'NONE',  ( 1.000000000000000000, 0.000000000000000000, 0.000000000000000000 ) ) ;
#8 = DATE_AND_TIME ( #614, #370 ) ;
#9 = CIRCLE ( 'NONE', #383, 0.4999999999999997780 ) ;
#10 = VERTEX_POINT ( 'NONE', #123 ) ;
#11 = AXIS2_PLACEMENT_3D ( 'NONE', #6, #577, #204 ) ;
#12 = CARTESIAN_POINT ( 'NONE',  ( 27.35000000000000142, 0.000000000000000000, 7.600000000000001421 ) ) ;
#13 = APPLICATION_CONTEXT ( 'configuration controlled 3d designs of mechanical parts and assemblies' ) ;
#14 = CALENDAR_DATE ( 2026, 18, 8 ) ;
#15 = ORIENTED_EDGE ( 'NONE', *, *, #268, .F. ) ;
#16 = ORIENTED_EDGE ( 'NONE', *, *, #98, .T. ) ;
#17 = DIRECTION ( 'NONE',  ( 0.000000000000000000, 0.000000000000000000, 1.000000000000000000 ) ) ;
#18 = COORDINATED_UNIVERSAL_TIME_OFFSET ( 3, 0, .BEHIND. ) ;
#19 = ORIENTED_EDGE ( 'NONE', *, *, #284, .T. ) ;
#20 = EDGE_CURVE ( 'NONE', #465, #211, #9, .T. ) ;
#21 = FACE_OUTER_BOUND ( 'NONE', #459, .T. ) ;
#22 = APPROVAL_STATUS ( 'not_yet_approved' ) ;
#23 = VERTEX_POINT ( 'NONE', #486 ) ;
#24 = DIRECTION ( 'NONE',  ( -0.000000000000000000, -0.000000000000000000, -1.000000000000000000 ) ) ;
#25 = ORIENTED_EDGE ( 'NONE', *, *, #201, .F. ) ;
#26 = ORIENTED_EDGE ( 'NONE', *, *, #185, .F. ) ;
#27 = EDGE_CURVE ( 'NONE', #628, #260, #93, .T. ) ;
#28 = LINE ( 'NONE', #80, #1 ) ;
#29 = ORIENTED_EDGE ( 'NONE', *, *, #49, .F. ) ;
#30 = ORIENTED_EDGE ( 'NONE', *, *, #520, .T. ) ;
#31 = CARTESIAN_POINT ( 'NONE',  ( 0.000000000000000000, 0.000000000000000000, 0.000000000000000000 ) ) ;
#32 = CARTESIAN_POINT ( 'NONE',  ( 3.872983346207418354, 0.9999999999999991118, 0.000000000000000000 ) ) ;
#33 = VECTOR ( 'NONE', #598, 100.0000000000000000 ) ;
#34 = LINE ( 'NONE', #574, #257 ) ;
#35 = DIRECTION ( 'NONE',  ( 1.000000000000000000, 0.000000000000000000, 0.000000000000000000 ) ) ;
#36 = APPROVAL_PERSON_ORGANIZATION ( #369, #456, #157 ) ;
#37 = VECTOR ( 'NONE', #448, 100.0000000000000000 ) ;
#38 = FACE_OUTER_BOUND ( 'NONE', #158, .T. ) ;
#39 = DIRECTION ( 'NONE',  ( 1.000000000000000000, 0.000000000000000000, 0.000000000000000000 ) ) ;
#40 = DIRECTION ( 'NONE',  ( 0.000000000000000000, 0.000000000000000000, 1.000000000000000000 ) ) ;
#41 = DIRECTION ( 'NONE',  ( 0.000000000000000000, 0.000000000000000000, 1.000000000000000000 ) ) ;
#42 = AXIS2_PLACEMENT_3D ( 'NONE', #641, #591, #84 ) ;
#43 = EDGE_CURVE ( 'NONE', #516, #217, #435, .T. ) ;
#44 = CARTESIAN_POINT ( 'NONE',  ( 3.388860427931490893, -0.8750000000000009992, 1.000000000000000000 ) ) ;
#45 = EDGE_CURVE ( 'NONE', #59, #426, #402, .T. ) ;
#46 = DIRECTION ( 'NONE',  ( 1.000000000000000000, -6.245004513516500018E-15, 0.000000000000000000 ) ) ;
#47 = ORIENTED_EDGE ( 'NONE', *, *, #392, .T. ) ;
#48 = DIRECTION ( 'NONE',  ( -1.000000000000000000, 0.000000000000000000, 0.000000000000000000 ) ) ;
#49 = EDGE_CURVE ( 'NONE', #10, #422, #346, .T. ) ;
#50 = CARTESIAN_POINT ( 'NONE',  ( 3.872983346207417465, 0.4999999999999992228, 1.000000000000000000 ) ) ;
#51 = COORDINATED_UNIVERSAL_TIME_OFFSET ( 3, 0, .BEHIND. ) ;
#52 = DIRECTION ( 'NONE',  ( -0.000000000000000000, -0.000000000000000000, -1.000000000000000000 ) ) ;
#53 = AXIS2_PLACEMENT_3D ( 'NONE', #558, #56, #48 ) ;
#54 = APPROVAL_DATE_TIME ( #8, #483 ) ;
#55 = ORIENTED_EDGE ( 'NONE', *, *, #440, .T. ) ;
#56 = DIRECTION ( 'NONE',  ( -0.000000000000000000, -0.000000000000000000, -1.000000000000000000 ) ) ;
#57 = AXIS2_PLACEMENT_3D ( 'NONE', #136, #549, #441 ) ;
#58 = EDGE_LOOP ( 'NONE', ( #147, #606, #2, #497 ) ) ;
#59 = VERTEX_POINT ( 'NONE', #388 ) ;
#60 = CIRCLE ( 'NONE', #462, 0.4000000000000003553 ) ;
#61 = CARTESIAN_POINT ( 'NONE',  ( 24.25000000000000000, 0.000000000000000000, 2.000000000000000000 ) ) ;
#62 = CIRCLE ( 'NONE', #413, 3.500000000000000888 ) ;
#63 = EDGE_CURVE ( 'NONE', #319, #66, #533, .T. ) ;
#64 = ORIENTED_EDGE ( 'NONE', *, *, #107, .F. ) ;
#65 = DIRECTION ( 'NONE',  ( -1.000000000000000000, -0.000000000000000000, -0.000000000000000000 ) ) ;
#66 = VERTEX_POINT ( 'NONE', #81 ) ;
#67 = CARTESIAN_POINT ( 'NONE',  ( 0.000000000000000000, 0.000000000000000000, 1.000000000000000000 ) ) ;
#68 = LINE ( 'NONE', #578, #544 ) ;
#69 = ORIENTED_EDGE ( 'NONE', *, *, #650, .T. ) ;
#70 = EDGE_CURVE ( 'NONE', #262, #384, #62, .T. ) ;
#71 = EDGE_LOOP ( 'NONE', ( #26, #183, #127, #509 ) ) ;
#72 = FACE_OUTER_BOUND ( 'NONE', #163, .T. ) ;
#73 = AXIS2_PLACEMENT_3D ( 'NONE', #560, #303, #125 ) ;
#74 = EDGE_CURVE ( 'NONE', #217, #211, #233, .T. ) ;
#75 = DIRECTION ( 'NONE',  ( -1.000000000000000000, 0.000000000000000000, 0.000000000000000000 ) ) ;
#76 = ORIENTED_EDGE ( 'NONE', *, *, #167, .F. ) ;
#77 = DIRECTION ( 'NONE',  ( 0.000000000000000000, 0.000000000000000000, 1.000000000000000000 ) ) ;
#78 = DIRECTION ( 'NONE',  ( -0.000000000000000000, -0.000000000000000000, -1.000000000000000000 ) ) ;
#79 = AXIS2_PLACEMENT_3D ( 'NONE', #506, #453, #461 ) ;
#80 = CARTESIAN_POINT ( 'NONE',  ( 3.388860427931491337, 0.8749999999999995559, 1.000000000000000000 ) ) ;
#81 = CARTESIAN_POINT ( 'NONE',  ( 24.25000000000000000, 0.000000000000000000, 1.000000000000000000 ) ) ;
#82 = CC_DESIGN_PERSON_AND_ORGANIZATION_ASSIGNMENT ( #454, #425, ( #584 ) ) ;
#83 = VECTOR ( 'NONE', #543, 100.0000000000000000 ) ;
#84 = DIRECTION ( 'NONE',  ( -1.000000000000000000, 0.000000000000000000, 0.000000000000000000 ) ) ;
#85 = DIRECTION ( 'NONE',  ( 1.000000000000000000, 0.000000000000000000, 0.000000000000000000 ) ) ;
#86 = CC_DESIGN_APPROVAL ( #634, ( #550 ) ) ;
#87 = ADVANCED_FACE ( 'NONE', ( #575 ), #325, .F. ) ;
#88 = DIRECTION ( 'NONE',  ( 1.000000000000000000, 0.000000000000000000, 0.000000000000000000 ) ) ;
#89 = CARTESIAN_POINT ( 'NONE',  ( 24.36113957206850600, -0.8750000000000009992, 1.000000000000000000 ) ) ;
#90 = EDGE_CURVE ( 'NONE', #410, #262, #495, .T. ) ;
#91 = CIRCLE ( 'NONE', #457, 2.000000000000001776 ) ;
#92 = CARTESIAN_POINT ( 'NONE',  ( 27.75000000000000355, 0.000000000000000000, 7.000000000000000888 ) ) ;
#93 = CIRCLE ( 'NONE', #515, 3.500000000000000888 ) ;
#94 = SECURITY_CLASSIFICATION ( '', '', #610 ) ;
#95 = CIRCLE ( 'NONE', #182, 0.4999999999999997780 ) ;
#96 = CARTESIAN_POINT ( 'NONE',  ( 29.75000000000000355, 2.449293598294708880E-16, 2.000000000000000000 ) ) ;
#97 = UNCERTAINTY_MEASURE_WITH_UNIT (LENGTH_MEASURE( 1.000000000000000082E-05 ), #643, 'distance_accuracy_value', 'NONE');
#98 = EDGE_CURVE ( 'NONE', #628, #170, #95, .T. ) ;
#99 = CARTESIAN_POINT ( 'NONE',  ( 24.36113957206850600, -0.8750000000000009992, 0.000000000000000000 ) ) ;
#100 = ORIENTED_EDGE ( 'NONE', *, *, #651, .F. ) ;
#101 = CARTESIAN_POINT ( 'NONE',  ( 3.872983346207417465, -1.000000000000000888, 0.9999999999999998890 ) ) ;
#102 = AXIS2_PLACEMENT_3D ( 'NONE', #568, #356, #264 ) ;
#103 = CARTESIAN_POINT ( 'NONE',  ( 27.75000000000000355, 0.000000000000000000, 7.000000000000000888 ) ) ;
#104 = ORIENTED_EDGE ( 'NONE', *, *, #74, .F. ) ;
#105 = DIRECTION ( 'NONE',  ( 0.000000000000000000, 0.000000000000000000, 1.000000000000000000 ) ) ;
#106 = AXIS2_PLACEMENT_3D ( 'NONE', #101, #160, #202 ) ;
#107 = EDGE_CURVE ( 'NONE', #170, #410, #186, .T. ) ;
#108 = CYLINDRICAL_SURFACE ( 'NONE', #224, 3.500000000000003109 ) ;
#109 = VECTOR ( 'NONE', #569, 100.0000000000000000 ) ;
#110 = EDGE_CURVE ( 'NONE', #349, #422, #548, .T. ) ;
#111 = ORIENTED_EDGE ( 'NONE', *, *, #449, .F. ) ;
#112 = CC_DESIGN_APPROVAL ( #456, ( #94 ) ) ;
#113 = DIRECTION ( 'NONE',  ( -0.000000000000000000, -0.000000000000000000, -1.000000000000000000 ) ) ;
#114 = VECTOR ( 'NONE', #478, 100.0000000000000000 ) ;
#115 = DATE_AND_TIME ( #359, #401 ) ;
#116 = EDGE_LOOP ( 'NONE', ( #307, #632, #294, #432 ) ) ;
#117 = CARTESIAN_POINT ( 'NONE',  ( 0.000000000000000000, 0.000000000000000000, 1.000000000000000000 ) ) ;
#118 = ADVANCED_FACE ( 'NONE', ( #283 ), #491, .T. ) ;
#119 = CARTESIAN_POINT ( 'NONE',  ( 0.000000000000000000, 0.000000000000000000, 1.000000000000000000 ) ) ;
#120 = ORIENTED_EDGE ( 'NONE', *, *, #589, .T. ) ;
#121 = EDGE_CURVE ( 'NONE', #217, #150, #386, .T. ) ;
#122 = DIRECTION ( 'NONE',  ( -0.000000000000000000, -0.000000000000000000, -1.000000000000000000 ) ) ;
#123 = CARTESIAN_POINT ( 'NONE',  ( 23.87701665379258031, 0.4999999999999993894, 0.000000000000000000 ) ) ;
#124 = EDGE_LOOP ( 'NONE', ( #590, #166, #120, #450 ) ) ;
#125 = DIRECTION ( 'NONE',  ( 1.000000000000000000, 0.000000000000000000, 0.000000000000000000 ) ) ;
#126 = DIRECTION ( 'NONE',  ( 0.000000000000000000, 0.000000000000000000, 1.000000000000000000 ) ) ;
#127 = ORIENTED_EDGE ( 'NONE', *, *, #624, .T. ) ;
#128 = FACE_OUTER_BOUND ( 'NONE', #58, .T. ) ;
#129 = ORIENTED_EDGE ( 'NONE', *, *, #167, .T. ) ;
#130 = LINE ( 'NONE', #230, #232 ) ;
#131 = DIRECTION ( 'NONE',  ( 1.000000000000000000, 0.000000000000000000, 0.000000000000000000 ) ) ;
#132 = DIRECTION ( 'NONE',  ( 0.000000000000000000, -1.734723475976807094E-16, 1.000000000000000000 ) ) ;
#133 = EDGE_CURVE ( 'NONE', #561, #410, #496, .T. ) ;
#134 = APPLICATION_PROTOCOL_DEFINITION ( 'international standard', 'config_control_design', 1994, #13 ) ;
#135 = PERSON ( 'UNSPECIFIED', 'UNSPECIFIED', 'UNSPECIFIED', ('UNSPECIFIED'), ('UNSPECIFIED'), ('UNSPECIFIED') ) ;
#136 = CARTESIAN_POINT ( 'NONE',  ( 27.75000000000000355, 0.000000000000000000, 2.000000000000000000 ) ) ;
#137 = VERTEX_POINT ( 'NONE', #194 ) ;
#138 = DIRECTION ( 'NONE',  ( -0.000000000000000000, -0.000000000000000000, -1.000000000000000000 ) ) ;
#139 = CARTESIAN_POINT ( 'NONE',  ( 27.35000000000000142, 0.000000000000000000, 7.000000000000000888 ) ) ;
#140 = CC_DESIGN_PERSON_AND_ORGANIZATION_ASSIGNMENT ( #352, #312, ( #550 ) ) ;
#141 = AXIS2_PLACEMENT_3D ( 'NONE', #117, #626, #172 ) ;
#142 = DIRECTION ( 'NONE',  ( 0.000000000000000000, 0.000000000000000000, 1.000000000000000000 ) ) ;
#143 = CIRCLE ( 'NONE', #398, 3.500000000000000888 ) ;
#144 = DIRECTION ( 'NONE',  ( 0.000000000000000000, 0.000000000000000000, 1.000000000000000000 ) ) ;
#145 = VECTOR ( 'NONE', #238, 100.0000000000000000 ) ;
#146 = DIRECTION ( 'NONE',  ( 0.000000000000000000, 0.000000000000000000, 1.000000000000000000 ) ) ;
#147 = ORIENTED_EDGE ( 'NONE', *, *, #392, .F. ) ;
#148 = LINE ( 'NONE', #415, #485 ) ;
#149 = SHAPE_DEFINITION_REPRESENTATION ( #331, #553 ) ;
#150 = VERTEX_POINT ( 'NONE', #89 ) ;
#151 = CARTESIAN_POINT ( 'NONE',  ( 31.25000000000000711, 4.286263797015741525E-16, 2.000000000000000000 ) ) ;
#152 = CIRCLE ( 'NONE', #570, 3.500000000000003109 ) ;
#153 = FACE_OUTER_BOUND ( 'NONE', #611, .T. ) ;
#154 = ORIENTED_EDGE ( 'NONE', *, *, #236, .F. ) ;
#155 = DIRECTION ( 'NONE',  ( 1.000000000000000000, 0.000000000000000000, 0.000000000000000000 ) ) ;
#156 = EDGE_CURVE ( 'NONE', #426, #465, #244, .T. ) ;
#157 = APPROVAL_ROLE ( '' ) ;
#158 = EDGE_LOOP ( 'NONE', ( #223, #30, #382, #556 ) ) ;
#159 = ADVANCED_FACE ( 'NONE', ( #498 ), #341, .T. ) ;
#160 = DIRECTION ( 'NONE',  ( -0.000000000000000000, -0.000000000000000000, -1.000000000000000000 ) ) ;
#161 = CIRCLE ( 'NONE', #482, 0.5000000000000004441 ) ;
#162 = PERSON_AND_ORGANIZATION_ROLE ( 'creator' ) ;
#163 = EDGE_LOOP ( 'NONE', ( #25, #579, #188, #447, #479, #214, #179, #15, #353, #16 ) ) ;
#164 = FACE_OUTER_BOUND ( 'NONE', #314, .T. ) ;
#165 = DATE_AND_TIME ( #505, #327 ) ;
#166 = ORIENTED_EDGE ( 'NONE', *, *, #70, .F. ) ;
#167 = EDGE_CURVE ( 'NONE', #150, #273, #395, .T. ) ;
#168 = DIRECTION ( 'NONE',  ( -0.000000000000000000, 1.734723475976807094E-16, -1.000000000000000000 ) ) ;
#169 = DIRECTION ( 'NONE',  ( 0.000000000000000000, 0.000000000000000000, 1.000000000000000000 ) ) ;
#170 = VERTEX_POINT ( 'NONE', #191 ) ;
#171 = PLANE ( 'NONE',  #11 ) ;
#172 = DIRECTION ( 'NONE',  ( -1.000000000000000000, 0.000000000000000000, 0.000000000000000000 ) ) ;
#173 = CARTESIAN_POINT ( 'NONE',  ( 24.25000000000000000, 0.000000000000000000, 2.000000000000000000 ) ) ;
#174 = CIRCLE ( 'NONE', #396, 3.500000000000003109 ) ;
#175 = ORIENTED_EDGE ( 'NONE', *, *, #121, .F. ) ;
#176 = CARTESIAN_POINT ( 'NONE',  ( 27.75000000000000355, 0.000000000000000000, 7.600000000000001421 ) ) ;
#177 = DIRECTION ( 'NONE',  ( 1.000000000000000000, 0.000000000000000000, 0.000000000000000000 ) ) ;
#178 = AXIS2_PLACEMENT_3D ( 'NONE', #212, #455, #609 ) ;
#179 = ORIENTED_EDGE ( 'NONE', *, *, #45, .T. ) ;
#180 = CARTESIAN_POINT ( 'NONE',  ( 23.87701665379258031, -0.5000000000000006661, 0.000000000000000000 ) ) ;
#181 = ORIENTED_EDGE ( 'NONE', *, *, #43, .F. ) ;
#182 = AXIS2_PLACEMENT_3D ( 'NONE', #32, #642, #85 ) ;
#183 = ORIENTED_EDGE ( 'NONE', *, *, #651, .T. ) ;
#184 = LINE ( 'NONE', #480, #443 ) ;
#185 = EDGE_CURVE ( 'NONE', #137, #615, #342, .T. ) ;
#186 = LINE ( 'NONE', #270, #207 ) ;
#187 = CARTESIAN_POINT ( 'NONE',  ( 27.75000000000000355, 0.000000000000000000, 7.600000000000001421 ) ) ;
#188 = ORIENTED_EDGE ( 'NONE', *, *, #110, .F. ) ;
#189 = APPLICATION_PROTOCOL_DEFINITION ( 'international standard', 'config_control_design', 1994, #541 ) ;
#190 = ADVANCED_FACE ( 'NONE', ( #397 ), #287, .F. ) ;
#191 = CARTESIAN_POINT ( 'NONE',  ( 3.872983346207417465, 0.4999999999999993894, 0.000000000000000000 ) ) ;
#192 = DIRECTION ( 'NONE',  ( -0.000000000000000000, 1.000000000000000000, 1.734723475976803890E-16 ) ) ;
#193 = AXIS2_PLACEMENT_3D ( 'NONE', #5, #105, #155 ) ;
#194 = CARTESIAN_POINT ( 'NONE',  ( 29.75000000000000355, 2.449293598294708880E-16, 7.000000000000000888 ) ) ;
#195 = CIRCLE ( 'NONE', #566, 3.500000000000003109 ) ;
#196 = VERTEX_POINT ( 'NONE', #242 ) ;
#197 = CYLINDRICAL_SURFACE ( 'NONE', #633, 0.4000000000000003553 ) ;
#198 = AXIS2_PLACEMENT_3D ( 'NONE', #470, #434, #630 ) ;
#199 = VERTEX_POINT ( 'NONE', #139 ) ;
#200 = DIRECTION ( 'NONE',  ( -1.000000000000000000, 0.000000000000000000, 0.000000000000000000 ) ) ;
#201 = EDGE_CURVE ( 'NONE', #10, #170, #338, .T. ) ;
#202 = DIRECTION ( 'NONE',  ( -1.000000000000000000, 0.000000000000000000, 0.000000000000000000 ) ) ;
#203 = APPROVAL_DATE_TIME ( #302, #634 ) ;
#204 = DIRECTION ( 'NONE',  ( 1.000000000000000000, 0.000000000000000000, -0.000000000000000000 ) ) ;
#205 = CARTESIAN_POINT ( 'NONE',  ( 24.36113957206850600, 0.8749999999999993339, 1.000000000000000000 ) ) ;
#206 = DATE_TIME_ROLE ( 'classification_date' ) ;
#207 = VECTOR ( 'NONE', #132, 100.0000000000000000 ) ;
#208 = ORIENTED_EDGE ( 'NONE', *, *, #464, .T. ) ;
#209 = CARTESIAN_POINT ( 'NONE',  ( -3.500000000000000888, 0.000000000000000000, 1.000000000000000000 ) ) ;
#210 = COORDINATED_UNIVERSAL_TIME_OFFSET ( 3, 0, .BEHIND. ) ;
#211 = VERTEX_POINT ( 'NONE', #391 ) ;
#212 = CARTESIAN_POINT ( 'NONE',  ( 27.75000000000000355, 0.000000000000000000, 2.000000000000000000 ) ) ;
#213 = APPROVAL_STATUS ( 'not_yet_approved' ) ;
#214 = ORIENTED_EDGE ( 'NONE', *, *, #535, .T. ) ;
#215 = DIRECTION ( 'NONE',  ( 1.000000000000000000, 0.000000000000000000, -0.000000000000000000 ) ) ;
#216 = ADVANCED_FACE ( 'NONE', ( #653 ), #197, .T. ) ;
#217 = VERTEX_POINT ( 'NONE', #600 ) ;
#218 = DIRECTION ( 'NONE',  ( -1.000000000000000000, 0.000000000000000000, 0.000000000000000000 ) ) ;
#219 = CARTESIAN_POINT ( 'NONE',  ( 27.75000000000000355, 0.000000000000000000, 2.000000000000000000 ) ) ;
#220 = CARTESIAN_POINT ( 'NONE',  ( 23.87701665379258031, -0.5000000000000007772, 1.000000000000001998 ) ) ;
#221 = EDGE_LOOP ( 'NONE', ( #525, #469 ) ) ;
#222 = CYLINDRICAL_SURFACE ( 'NONE', #198, 2.000000000000001776 ) ;
#223 = ORIENTED_EDGE ( 'NONE', *, *, #133, .F. ) ;
#224 = AXIS2_PLACEMENT_3D ( 'NONE', #310, #451, #619 ) ;
#225 = ORIENTED_EDGE ( 'NONE', *, *, #535, .F. ) ;
#226 = FACE_OUTER_BOUND ( 'NONE', #248, .T. ) ;
#227 = ORIENTED_EDGE ( 'NONE', *, *, #63, .F. ) ;
#228 = AXIS2_PLACEMENT_3D ( 'NONE', #501, #192, #343 ) ;
#229 = EDGE_CURVE ( 'NONE', #199, #424, #546, .T. ) ;
#230 = CARTESIAN_POINT ( 'NONE',  ( 29.75000000000000355, 2.449293598294708880E-16, 7.000000000000000888 ) ) ;
#231 = CARTESIAN_POINT ( 'NONE',  ( 27.75000000000000355, 0.000000000000000000, 1.000000000000000000 ) ) ;
#232 = VECTOR ( 'NONE', #138, 100.0000000000000000 ) ;
#233 = LINE ( 'NONE', #376, #437 ) ;
#234 = AXIS2_PLACEMENT_3D ( 'NONE', #481, #322, #439 ) ;
#235 = CARTESIAN_POINT ( 'NONE',  ( 0.000000000000000000, 0.000000000000000000, 1.000000000000000000 ) ) ;
#236 = EDGE_CURVE ( 'NONE', #422, #330, #595, .T. ) ;
#237 = CARTESIAN_POINT ( 'NONE',  ( 0.000000000000000000, 0.000000000000000000, 0.000000000000000000 ) ) ;
#238 = DIRECTION ( 'NONE',  ( -1.000000000000000000, -0.000000000000000000, -0.000000000000000000 ) ) ;
#239 = CLOSED_SHELL ( 'NONE', ( #216, #594, #645, #245 ) ) ;
#240 = PLANE ( 'NONE',  #309 ) ;
#241 = APPROVAL_PERSON_ORGANIZATION ( #393, #634, #528 ) ;
#242 = CARTESIAN_POINT ( 'NONE',  ( 31.25000000000000711, 4.286263797015743004E-16, 2.000000000000000000 ) ) ;
#243 = ORIENTED_EDGE ( 'NONE', *, *, #90, .F. ) ;
#244 = LINE ( 'NONE', #44, #37 ) ;
#245 = ADVANCED_FACE ( 'NONE', ( #542 ), #240, .F. ) ;
#246 = ORIENTED_EDGE ( 'NONE', *, *, #345, .T. ) ;
#247 = CARTESIAN_POINT ( 'NONE',  ( 28.15000000000000213, 4.898587196589413692E-17, 7.600000000000001421 ) ) ;
#248 = EDGE_LOOP ( 'NONE', ( #618, #531 ) ) ;
#249 = DIRECTION ( 'NONE',  ( -0.000000000000000000, -0.000000000000000000, -1.000000000000000000 ) ) ;
#250 = DATE_AND_TIME ( #617, #612 ) ;
#251 = ORIENTED_EDGE ( 'NONE', *, *, #275, .F. ) ;
#252 = CARTESIAN_POINT ( 'NONE',  ( 23.87701665379258031, 0.9999999999999990008, 2.000000000000000000 ) ) ;
#253 = EDGE_CURVE ( 'NONE', #211, #59, #648, .T. ) ;
#254 = PERSON_AND_ORGANIZATION ( #135, #355 ) ;
#255 = VERTEX_POINT ( 'NONE', #96 ) ;
#256 = DIRECTION ( 'NONE',  ( 1.000000000000000000, 0.000000000000000000, 0.000000000000000000 ) ) ;
#257 = VECTOR ( 'NONE', #168, 100.0000000000000000 ) ;
#258 = ORIENTED_EDGE ( 'NONE', *, *, #133, .T. ) ;
#259 = AXIS2_PLACEMENT_3D ( 'NONE', #280, #277, #177 ) ;
#260 = VERTEX_POINT ( 'NONE', #292 ) ;
#261 = CARTESIAN_POINT ( 'NONE',  ( 23.87701665379258031, -1.000000000000001110, 0.000000000000000000 ) ) ;
#262 = VERTEX_POINT ( 'NONE', #400 ) ;
#263 = CC_DESIGN_PERSON_AND_ORGANIZATION_ASSIGNMENT ( #581, #285, ( #635 ) ) ;
#264 = DIRECTION ( 'NONE',  ( 1.000000000000000000, 0.000000000000000000, 0.000000000000000000 ) ) ;
#265 = FACE_OUTER_BOUND ( 'NONE', #124, .T. ) ;
#266 = ORIENTED_EDGE ( 'NONE', *, *, #70, .T. ) ;
#267 = MANIFOLD_SOLID_BREP ( 'SMLINK_BETA_CYLINDER', #239 ) ;
#268 = EDGE_CURVE ( 'NONE', #260, #426, #143, .T. ) ;
#269 = CYLINDRICAL_SURFACE ( 'NONE', #436, 0.4999999999999997780 ) ;
#270 = CARTESIAN_POINT ( 'NONE',  ( 3.872983346207418354, 0.4999999999999992228, 1.000000000000000000 ) ) ;
#271 = EDGE_LOOP ( 'NONE', ( #471, #519 ) ) ;
#272 = DIRECTION ( 'NONE',  ( -0.000000000000000000, -0.000000000000000000, -1.000000000000000000 ) ) ;
#273 = VERTEX_POINT ( 'NONE', #99 ) ;
#274 = EDGE_LOOP ( 'NONE', ( #104, #4, #323, #466, #576, #258, #347, #266, #69, #620 ) ) ;
#275 = EDGE_CURVE ( 'NONE', #196, #349, #3, .T. ) ;
#276 = CARTESIAN_POINT ( 'NONE',  ( 3.872983346207418354, 0.9999999999999991118, 1.000000000000000222 ) ) ;
#277 = DIRECTION ( 'NONE',  ( 0.000000000000000000, 0.000000000000000000, 1.000000000000000000 ) ) ;
#278 = CIRCLE ( 'NONE', #79, 3.500000000000003109 ) ;
#279 = CYLINDRICAL_SURFACE ( 'NONE', #42, 0.4000000000000003553 ) ;
#280 = CARTESIAN_POINT ( 'NONE',  ( 23.87701665379258031, 0.9999999999999990008, 0.000000000000000000 ) ) ;
#281 = CIRCLE ( 'NONE', #654, 3.500000000000003109 ) ;
#282 = CARTESIAN_POINT ( 'NONE',  ( 27.75000000000000355, 0.4999999999999992228, 1.000000000000000000 ) ) ;
#283 = FACE_OUTER_BOUND ( 'NONE', #274, .T. ) ;
#284 = EDGE_CURVE ( 'NONE', #615, #23, #148, .T. ) ;
#285 = PERSON_AND_ORGANIZATION_ROLE ( 'design_owner' ) ;
#286 = DIRECTION ( 'NONE',  ( 1.000000000000000000, 0.000000000000000000, -0.000000000000000000 ) ) ;
#287 = PLANE ( 'NONE',  #228 ) ;
#288 = CLOSED_SHELL ( 'NONE', ( #340, #159, #608, #605, #190, #427, #118, #562, #403, #502, #416, #336, #87, #420, #489, #585 ) ) ;
#289 = CARTESIAN_POINT ( 'NONE',  ( 24.36113957206850600, 0.8749999999999995559, 2.000000000000000000 ) ) ;
#290 = AXIS2_PLACEMENT_3D ( 'NONE', #472, #24, #582 ) ;
#291 = AXIS2_PLACEMENT_3D ( 'NONE', #394, #597, #46 ) ;
#292 = CARTESIAN_POINT ( 'NONE',  ( -3.500000000000000888, 0.000000000000000000, 0.000000000000000000 ) ) ;
#293 = EDGE_CURVE ( 'NONE', #273, #349, #195, .T. ) ;
#294 = ORIENTED_EDGE ( 'NONE', *, *, #45, .F. ) ;
#295 = DIRECTION ( 'NONE',  ( -1.000000000000000000, 0.000000000000000000, 0.000000000000000000 ) ) ;
#296 = ORIENTED_EDGE ( 'NONE', *, *, #460, .F. ) ;
#297 = PLANE ( 'NONE',  #178 ) ;
#298 = EDGE_CURVE ( 'NONE', #196, #319, #281, .T. ) ;
#299 = ORIENTED_EDGE ( 'NONE', *, *, #624, .F. ) ;
#300 = CC_DESIGN_PERSON_AND_ORGANIZATION_ASSIGNMENT ( #254, #162, ( #584 ) ) ;
#301 = CARTESIAN_POINT ( 'NONE',  ( 31.25000000000000711, 4.286263797015743004E-16, 0.000000000000000000 ) ) ;
#302 = DATE_AND_TIME ( #14, #638 ) ;
#303 = DIRECTION ( 'NONE',  ( 0.000000000000000000, 0.000000000000000000, 1.000000000000000000 ) ) ;
#304 = ORIENTED_EDGE ( 'NONE', *, *, #552, .T. ) ;
#305 = FACE_OUTER_BOUND ( 'NONE', #271, .T. ) ;
#306 = AXIS2_PLACEMENT_3D ( 'NONE', #219, #389, #321 ) ;
#307 = ORIENTED_EDGE ( 'NONE', *, *, #20, .F. ) ;
#308 = EDGE_LOOP ( 'NONE', ( #225, #523, #512, #652 ) ) ;
#309 = AXIS2_PLACEMENT_3D ( 'NONE', #444, #144, #286 ) ;
#310 = CARTESIAN_POINT ( 'NONE',  ( 27.75000000000000355, 0.000000000000000000, 2.000000000000000000 ) ) ;
#311 = CC_DESIGN_PERSON_AND_ORGANIZATION_ASSIGNMENT ( #518, #458, ( #94 ) ) ;
#312 = PERSON_AND_ORGANIZATION_ROLE ( 'creator' ) ;
#313 = CIRCLE ( 'NONE', #102, 2.000000000000001776 ) ;
#314 = EDGE_LOOP ( 'NONE', ( #29, #527, #596, #154 ) ) ;
#315 = AXIS2_PLACEMENT_3D ( 'NONE', #235, #40, #492 ) ;
#316 = DIRECTION ( 'NONE',  ( 0.000000000000000000, 0.000000000000000000, 1.000000000000000000 ) ) ;
#317 = APPROVAL_DATE_TIME ( #115, #456 ) ;
#318 = EDGE_CURVE ( 'NONE', #615, #137, #91, .T. ) ;
#319 = VERTEX_POINT ( 'NONE', #61 ) ;
#320 = FACE_OUTER_BOUND ( 'NONE', #625, .T. ) ;
#321 = DIRECTION ( 'NONE',  ( 1.000000000000000000, 0.000000000000000000, 0.000000000000000000 ) ) ;
#322 = DIRECTION ( 'NONE',  ( -0.000000000000000000, -0.000000000000000000, -1.000000000000000000 ) ) ;
#323 = ORIENTED_EDGE ( 'NONE', *, *, #571, .T. ) ;
#324 = CARTESIAN_POINT ( 'NONE',  ( 27.75000000000000355, 0.000000000000000000, 7.600000000000001421 ) ) ;
#325 = CYLINDRICAL_SURFACE ( 'NONE', #603, 0.5000000000000004441 ) ;
#326 = ORIENTED_EDGE ( 'NONE', *, *, #236, .T. ) ;
#327 = LOCAL_TIME ( 14, 37, 40.00000000000000000, #51 ) ;
#328 = APPROVAL_STATUS ( 'not_yet_approved' ) ;
#329 = DIRECTION ( 'NONE',  ( 1.000000000000000000, 0.000000000000000000, 0.000000000000000000 ) ) ;
#330 = VERTEX_POINT ( 'NONE', #205 ) ;
#331 = PRODUCT_DEFINITION_SHAPE ( 'NONE', 'NONE',  #550 ) ;
#332 = DIRECTION ( 'NONE',  ( -1.000000000000000000, 0.000000000000000000, 0.000000000000000000 ) ) ;
#333 = EDGE_LOOP ( 'NONE', ( #251, #374, #364, #573, #129, #564 ) ) ;
#334 = DIRECTION ( 'NONE',  ( 0.000000000000000000, 1.734723475976807094E-16, -1.000000000000000000 ) ) ;
#335 = CARTESIAN_POINT ( 'NONE',  ( 27.75000000000000355, 0.000000000000000000, 0.000000000000000000 ) ) ;
#336 = ADVANCED_FACE ( 'NONE', ( #361, #305 ), #297, .T. ) ;
#337 = DIRECTION ( 'NONE',  ( 0.000000000000000000, 0.000000000000000000, 1.000000000000000000 ) ) ;
#338 = LINE ( 'NONE', #644, #83 ) ;
#339 = VECTOR ( 'NONE', #421, 100.0000000000000000 ) ;
#340 = ADVANCED_FACE ( 'NONE', ( #351 ), #510, .T. ) ;
#341 = CYLINDRICAL_SURFACE ( 'NONE', #57, 3.500000000000003109 ) ;
#342 = CIRCLE ( 'NONE', #601, 2.000000000000001776 ) ;
#343 = DIRECTION ( 'NONE',  ( 0.000000000000000000, -1.734723475976803890E-16, 1.000000000000000000 ) ) ;
#344 = CC_DESIGN_APPROVAL ( #483, ( #584 ) ) ;
#345 = EDGE_CURVE ( 'NONE', #384, #260, #613, .T. ) ;
#346 = CIRCLE ( 'NONE', #259, 0.5000000000000004441 ) ;
#347 = ORIENTED_EDGE ( 'NONE', *, *, #90, .T. ) ;
#348 = DIRECTION ( 'NONE',  ( 1.000000000000000000, 0.000000000000000000, 0.000000000000000000 ) ) ;
#349 = VERTEX_POINT ( 'NONE', #301 ) ;
#350 = EDGE_CURVE ( 'NONE', #273, #516, #161, .T. ) ;
#351 = FACE_OUTER_BOUND ( 'NONE', #71, .T. ) ;
#352 = PERSON_AND_ORGANIZATION ( #135, #355 ) ;
#353 = ORIENTED_EDGE ( 'NONE', *, *, #27, .F. ) ;
#354 = CYLINDRICAL_SURFACE ( 'NONE', #446, 0.5000000000000004441 ) ;
#355 = ORGANIZATION ( 'UNSPECIFIED', 'UNSPECIFIED', '' ) ;
#356 = DIRECTION ( 'NONE',  ( 0.000000000000000000, 0.000000000000000000, 1.000000000000000000 ) ) ;
#357 = EDGE_LOOP ( 'NONE', ( #175, #181, #360, #76 ) ) ;
#358 = DIRECTION ( 'NONE',  ( 0.000000000000000000, 0.000000000000000000, 1.000000000000000000 ) ) ;
#359 = CALENDAR_DATE ( 2026, 18, 8 ) ;
#360 = ORIENTED_EDGE ( 'NONE', *, *, #350, .F. ) ;
#361 = FACE_BOUND ( 'NONE', #602, .T. ) ;
#362 = VECTOR ( 'NONE', #52, 100.0000000000000000 ) ;
#363 = EDGE_CURVE ( 'NONE', #424, #199, #599, .T. ) ;
#364 = ORIENTED_EDGE ( 'NONE', *, *, #63, .T. ) ;
#365 = CARTESIAN_POINT ( 'NONE',  ( 25.75000000000000000, 0.000000000000000000, 7.000000000000000888 ) ) ;
#366 = VECTOR ( 'NONE', #646, 100.0000000000000000 ) ;
#367 = CYLINDRICAL_SURFACE ( 'NONE', #106, 0.4999999999999997780 ) ;
#368 = EDGE_CURVE ( 'NONE', #319, #196, #278, .T. ) ;
#369 = PERSON_AND_ORGANIZATION ( #135, #355 ) ;
#370 = LOCAL_TIME ( 14, 37, 40.00000000000000000, #18 ) ;
#371 = VERTEX_POINT ( 'NONE', #12 ) ;
#372 = CARTESIAN_POINT ( 'NONE',  ( 3.388860427931490893, -0.8750000000000009992, 0.000000000000000000 ) ) ;
#373 = DIRECTION ( 'NONE',  ( -1.000000000000000000, -0.000000000000000000, -0.000000000000000000 ) ) ;
#374 = ORIENTED_EDGE ( 'NONE', *, *, #368, .F. ) ;
#375 = DIRECTION ( 'NONE',  ( -0.000000000000000000, -0.000000000000000000, -1.000000000000000000 ) ) ;
#376 = CARTESIAN_POINT ( 'NONE',  ( 27.75000000000000355, -0.5000000000000007772, 1.000000000000001998 ) ) ;
#377 = ORIENTED_EDGE ( 'NONE', *, *, #552, .F. ) ;
#378 = PRODUCT_RELATED_PRODUCT_CATEGORY ( 'detail', '', ( #635 ) ) ;
#379 = MECHANICAL_CONTEXT ( 'NONE', #13, 'mechanical' ) ;
#380 = DIRECTION ( 'NONE',  ( 1.000000000000000000, 0.000000000000000000, 0.000000000000000000 ) ) ;
#381 = VECTOR ( 'NONE', #41, 100.0000000000000000 ) ;
#382 = ORIENTED_EDGE ( 'NONE', *, *, #201, .T. ) ;
#383 = AXIS2_PLACEMENT_3D ( 'NONE', #631, #583, #390 ) ;
#384 = VERTEX_POINT ( 'NONE', #209 ) ;
#385 = AXIS2_PLACEMENT_3D ( 'NONE', #31, #126, #215 ) ;
#386 = CIRCLE ( 'NONE', #291, 0.5000000000000004441 ) ;
#387 = CARTESIAN_POINT ( 'NONE',  ( 27.75000000000000355, 0.000000000000000000, 7.000000000000000888 ) ) ;
#388 = CARTESIAN_POINT ( 'NONE',  ( 3.872983346207417465, -0.5000000000000006661, 0.000000000000000000 ) ) ;
#389 = DIRECTION ( 'NONE',  ( 0.000000000000000000, 0.000000000000000000, 1.000000000000000000 ) ) ;
#390 = DIRECTION ( 'NONE',  ( 1.000000000000000000, 0.000000000000000000, 0.000000000000000000 ) ) ;
#391 = CARTESIAN_POINT ( 'NONE',  ( 3.872983346207417465, -0.5000000000000007772, 1.000000000000001998 ) ) ;
#392 = EDGE_CURVE ( 'NONE', #587, #424, #504, .T. ) ;
#393 = PERSON_AND_ORGANIZATION ( #135, #355 ) ;
#394 = CARTESIAN_POINT ( 'NONE',  ( 23.87701665379258031, -1.000000000000001110, 1.000000000000000000 ) ) ;
#395 = LINE ( 'NONE', #442, #366 ) ;
#396 = AXIS2_PLACEMENT_3D ( 'NONE', #431, #375, #131 ) ;
#397 = FACE_OUTER_BOUND ( 'NONE', #308, .T. ) ;
#398 = AXIS2_PLACEMENT_3D ( 'NONE', #604, #146, #348 ) ;
#399 = ORIENTED_EDGE ( 'NONE', *, *, #275, .T. ) ;
#400 = CARTESIAN_POINT ( 'NONE',  ( 3.388860427931491337, 0.8749999999999993339, 1.000000000000000000 ) ) ;
#401 = LOCAL_TIME ( 14, 37, 40.00000000000000000, #572 ) ;
#402 = CIRCLE ( 'NONE', #639, 0.4999999999999997780 ) ;
#403 = ADVANCED_FACE ( 'NONE', ( #407 ), #367, .F. ) ;
#404 = ORIENTED_EDGE ( 'NONE', *, *, #589, .F. ) ;
#405 = CARTESIAN_POINT ( 'NONE',  ( 24.36113957206850600, 0.8749999999999993339, 0.000000000000000000 ) ) ;
#406 = CC_DESIGN_DATE_AND_TIME_ASSIGNMENT ( #250, #507, ( #550 ) ) ;
#407 = FACE_OUTER_BOUND ( 'NONE', #116, .T. ) ;
#408 = APPROVAL_ROLE ( '' ) ;
#409 = CYLINDRICAL_SURFACE ( 'NONE', #539, 3.500000000000000888 ) ;
#410 = VERTEX_POINT ( 'NONE', #50 ) ;
#411 = CARTESIAN_POINT ( 'NONE',  ( 27.75000000000000355, 0.000000000000000000, 0.000000000000000000 ) ) ;
#412 =( GEOMETRIC_REPRESENTATION_CONTEXT ( 3 ) GLOBAL_UNCERTAINTY_ASSIGNED_CONTEXT ( ( #97 ) ) GLOBAL_UNIT_ASSIGNED_CONTEXT ( ( #643, #640, #536 ) ) REPRESENTATION_CONTEXT ( 'NONE', 'WORKASPACE' ) );
#413 = AXIS2_PLACEMENT_3D ( 'NONE', #119, #429, #35 ) ;
#414 = ORIENTED_EDGE ( 'NONE', *, *, #156, .T. ) ;
#415 = CARTESIAN_POINT ( 'NONE',  ( 25.75000000000000000, 0.000000000000000000, 7.000000000000000888 ) ) ;
#416 = ADVANCED_FACE ( 'NONE', ( #565 ), #108, .T. ) ;
#417 = PERSON_AND_ORGANIZATION ( #135, #355 ) ;
#418 = ORIENTED_EDGE ( 'NONE', *, *, #268, .T. ) ;
#419 = DIRECTION ( 'NONE',  ( -0.000000000000000000, -0.000000000000000000, -1.000000000000000000 ) ) ;
#420 = ADVANCED_FACE ( 'NONE', ( #164 ), #354, .F. ) ;
#421 = DIRECTION ( 'NONE',  ( -0.000000000000000000, -0.000000000000000000, -1.000000000000000000 ) ) ;
#422 = VERTEX_POINT ( 'NONE', #405 ) ;
#423 = DIRECTION ( 'NONE',  ( -0.000000000000000000, -0.000000000000000000, -1.000000000000000000 ) ) ;
#424 = VERTEX_POINT ( 'NONE', #607 ) ;
#425 = PERSON_AND_ORGANIZATION_ROLE ( 'design_supplier' ) ;
#426 = VERTEX_POINT ( 'NONE', #372 ) ;
#427 = ADVANCED_FACE ( 'NONE', ( #265 ), #622, .T. ) ;
#428 = PLANE ( 'NONE',  #385 ) ;
#429 = DIRECTION ( 'NONE',  ( 0.000000000000000000, 0.000000000000000000, 1.000000000000000000 ) ) ;
#430 = ORIENTED_EDGE ( 'NONE', *, *, #110, .T. ) ;
#431 = CARTESIAN_POINT ( 'NONE',  ( 27.75000000000000355, 0.000000000000000000, 1.000000000000000000 ) ) ;
#432 = ORIENTED_EDGE ( 'NONE', *, *, #253, .F. ) ;
#433 = ORIENTED_EDGE ( 'NONE', *, *, #363, .T. ) ;
#434 = DIRECTION ( 'NONE',  ( -0.000000000000000000, -0.000000000000000000, -1.000000000000000000 ) ) ;
#435 = LINE ( 'NONE', #220, #463 ) ;
#436 = AXIS2_PLACEMENT_3D ( 'NONE', #276, #524, #332 ) ;
#437 = VECTOR ( 'NONE', #373, 100.0000000000000000 ) ;
#438 = DIRECTION ( 'NONE',  ( 1.000000000000000000, 0.000000000000000000, -0.000000000000000000 ) ) ;
#439 = DIRECTION ( 'NONE',  ( 1.000000000000000000, -1.040834085586084651E-15, 0.000000000000000000 ) ) ;
#440 = EDGE_CURVE ( 'NONE', #371, #587, #534, .T. ) ;
#441 = DIRECTION ( 'NONE',  ( -1.000000000000000000, 0.000000000000000000, 0.000000000000000000 ) ) ;
#442 = CARTESIAN_POINT ( 'NONE',  ( 24.36113957206850600, -0.8750000000000011102, 2.000000000000000000 ) ) ;
#443 = VECTOR ( 'NONE', #65, 100.0000000000000000 ) ;
#444 = CARTESIAN_POINT ( 'NONE',  ( 27.75000000000000355, 0.000000000000000000, 7.000000000000000888 ) ) ;
#445 = CARTESIAN_POINT ( 'NONE',  ( 3.872983346207417465, -0.5000000000000006661, 8.673617379884024379E-17 ) ) ;
#446 = AXIS2_PLACEMENT_3D ( 'NONE', #252, #113, #200 ) ;
#447 = ORIENTED_EDGE ( 'NONE', *, *, #293, .F. ) ;
#448 = DIRECTION ( 'NONE',  ( 0.000000000000000000, 0.000000000000000000, 1.000000000000000000 ) ) ;
#449 = EDGE_CURVE ( 'NONE', #66, #330, #174, .T. ) ;
#450 = ORIENTED_EDGE ( 'NONE', *, *, #27, .T. ) ;
#451 = DIRECTION ( 'NONE',  ( -0.000000000000000000, -0.000000000000000000, -1.000000000000000000 ) ) ;
#452 = ORIENTED_EDGE ( 'NONE', *, *, #98, .F. ) ;
#453 = DIRECTION ( 'NONE',  ( 0.000000000000000000, 0.000000000000000000, 1.000000000000000000 ) ) ;
#454 = PERSON_AND_ORGANIZATION ( #135, #355 ) ;
#455 = DIRECTION ( 'NONE',  ( 0.000000000000000000, 0.000000000000000000, 1.000000000000000000 ) ) ;
#456 = APPROVAL ( #22, 'UNSPECIFIED' ) ;
#457 = AXIS2_PLACEMENT_3D ( 'NONE', #103, #316, #7 ) ;
#458 = PERSON_AND_ORGANIZATION_ROLE ( 'classification_officer' ) ;
#459 = EDGE_LOOP ( 'NONE', ( #452, #404, #243, #64 ) ) ;
#460 = EDGE_CURVE ( 'NONE', #371, #199, #68, .T. ) ;
#461 = DIRECTION ( 'NONE',  ( 1.000000000000000000, 0.000000000000000000, 0.000000000000000000 ) ) ;
#462 = AXIS2_PLACEMENT_3D ( 'NONE', #324, #77, #380 ) ;
#463 = VECTOR ( 'NONE', #637, 100.0000000000000000 ) ;
#464 = EDGE_CURVE ( 'NONE', #23, #255, #629, .T. ) ;
#465 = VERTEX_POINT ( 'NONE', #517 ) ;
#466 = ORIENTED_EDGE ( 'NONE', *, *, #449, .T. ) ;
#467 = DIRECTION ( 'NONE',  ( 0.000000000000000000, 0.000000000000000000, 1.000000000000000000 ) ) ;
#468 = COORDINATED_UNIVERSAL_TIME_OFFSET ( 3, 0, .BEHIND. ) ;
#469 = ORIENTED_EDGE ( 'NONE', *, *, #363, .F. ) ;
#470 = CARTESIAN_POINT ( 'NONE',  ( 27.75000000000000355, 0.000000000000000000, 7.000000000000000888 ) ) ;
#471 = ORIENTED_EDGE ( 'NONE', *, *, #368, .T. ) ;
#472 = CARTESIAN_POINT ( 'NONE',  ( 23.87701665379258031, 0.9999999999999990008, 1.000000000000000000 ) ) ;
#473 = CC_DESIGN_DATE_AND_TIME_ASSIGNMENT ( #165, #206, ( #94 ) ) ;
#474 = DIRECTION ( 'NONE',  ( 1.000000000000000000, 0.000000000000000000, 0.000000000000000000 ) ) ;
#475 = CIRCLE ( 'NONE', #73, 3.500000000000000888 ) ;
#476 = EDGE_LOOP ( 'NONE', ( #580, #399, #430, #326, #111, #227 ) ) ;
#477 = FACE_OUTER_BOUND ( 'NONE', #554, .T. ) ;
#478 = DIRECTION ( 'NONE',  ( -0.000000000000000000, -0.000000000000000000, -1.000000000000000000 ) ) ;
#479 = ORIENTED_EDGE ( 'NONE', *, *, #350, .T. ) ;
#480 = CARTESIAN_POINT ( 'NONE',  ( 27.75000000000000355, -0.5000000000000006661, 0.000000000000000000 ) ) ;
#481 = CARTESIAN_POINT ( 'NONE',  ( 3.872983346207418354, 0.9999999999999991118, 1.000000000000000000 ) ) ;
#482 = AXIS2_PLACEMENT_3D ( 'NONE', #261, #17, #256 ) ;
#483 = APPROVAL ( #213, 'UNSPECIFIED' ) ;
#484 = CARTESIAN_POINT ( 'NONE',  ( 23.87701665379258031, 0.4999999999999992228, 1.000000000000000000 ) ) ;
#485 = VECTOR ( 'NONE', #249, 100.0000000000000000 ) ;
#486 = CARTESIAN_POINT ( 'NONE',  ( 25.75000000000000000, 0.000000000000000000, 2.000000000000000000 ) ) ;
#487 = CC_DESIGN_SECURITY_CLASSIFICATION ( #94, ( #584 ) ) ;
#488 = MANIFOLD_SOLID_BREP ( 'Ressalto-extrus\X2\00e3\X0\o4', #288 ) ;
#489 = ADVANCED_FACE ( 'NONE', ( #477 ), #222, .T. ) ;
#490 = DIRECTION ( 'NONE',  ( 0.000000000000000000, -1.000000000000000000, -1.734723475976807094E-16 ) ) ;
#491 = PLANE ( 'NONE',  #315 ) ;
#492 = DIRECTION ( 'NONE',  ( 1.000000000000000000, 0.000000000000000000, -0.000000000000000000 ) ) ;
#493 = DIRECTION ( 'NONE',  ( -0.000000000000000000, -0.000000000000000000, -1.000000000000000000 ) ) ;
#494 = CIRCLE ( 'NONE', #290, 0.5000000000000004441 ) ;
#495 = CIRCLE ( 'NONE', #234, 0.4999999999999997780 ) ;
#496 = LINE ( 'NONE', #649, #145 ) ;
#497 = ORIENTED_EDGE ( 'NONE', *, *, #229, .T. ) ;
#498 = FACE_OUTER_BOUND ( 'NONE', #476, .T. ) ;
#499 = DESIGN_CONTEXT ( 'detailed design', #541, 'design' ) ;
#500 = EDGE_LOOP ( 'NONE', ( #377, #47, #433, #296 ) ) ;
#501 = CARTESIAN_POINT ( 'NONE',  ( 27.75000000000000355, -0.5000000000000007772, 1.000000000000001998 ) ) ;
#502 = ADVANCED_FACE ( 'NONE', ( #21 ), #269, .F. ) ;
#503 = ORIENTED_EDGE ( 'NONE', *, *, #650, .F. ) ;
#504 = LINE ( 'NONE', #247, #362 ) ;
#505 = CALENDAR_DATE ( 2026, 18, 8 ) ;
#506 = CARTESIAN_POINT ( 'NONE',  ( 27.75000000000000355, 0.000000000000000000, 2.000000000000000000 ) ) ;
#507 = DATE_TIME_ROLE ( 'creation_date' ) ;
#508 = AXIS2_PLACEMENT_3D ( 'NONE', #176, #529, #329 ) ;
#509 = ORIENTED_EDGE ( 'NONE', *, *, #284, .F. ) ;
#510 = CYLINDRICAL_SURFACE ( 'NONE', #53, 2.000000000000001776 ) ;
#511 = AXIS2_PLACEMENT_3D ( 'NONE', #92, #142, #88 ) ;
#512 = ORIENTED_EDGE ( 'NONE', *, *, #74, .T. ) ;
#513 = ORIENTED_EDGE ( 'NONE', *, *, #318, .F. ) ;
#514 = DIRECTION ( 'NONE',  ( 1.000000000000000000, 0.000000000000000000, 0.000000000000000000 ) ) ;
#515 = AXIS2_PLACEMENT_3D ( 'NONE', #623, #169, #39 ) ;
#516 = VERTEX_POINT ( 'NONE', #180 ) ;
#517 = CARTESIAN_POINT ( 'NONE',  ( 3.388860427931490893, -0.8750000000000009992, 1.000000000000000000 ) ) ;
#518 = PERSON_AND_ORGANIZATION ( #135, #355 ) ;
#519 = ORIENTED_EDGE ( 'NONE', *, *, #298, .T. ) ;
#520 = EDGE_CURVE ( 'NONE', #561, #10, #34, .T. ) ;
#521 = DIRECTION ( 'NONE',  ( 1.000000000000000000, 5.329070518200753761E-15, 0.000000000000000000 ) ) ;
#522 = CARTESIAN_POINT ( 'NONE',  ( 3.872983346207417465, -1.000000000000000888, 0.000000000000000000 ) ) ;
#523 = ORIENTED_EDGE ( 'NONE', *, *, #43, .T. ) ;
#524 = DIRECTION ( 'NONE',  ( -0.000000000000000000, -0.000000000000000000, -1.000000000000000000 ) ) ;
#525 = ORIENTED_EDGE ( 'NONE', *, *, #229, .F. ) ;
#526 = AXIS2_PLACEMENT_3D ( 'NONE', #387, #588, #438 ) ;
#527 = ORIENTED_EDGE ( 'NONE', *, *, #520, .F. ) ;
#528 = APPROVAL_ROLE ( '' ) ;
#529 = DIRECTION ( 'NONE',  ( 0.000000000000000000, 0.000000000000000000, 1.000000000000000000 ) ) ;
#530 = DIRECTION ( 'NONE',  ( 0.000000000000000000, 0.000000000000000000, 1.000000000000000000 ) ) ;
#531 = ORIENTED_EDGE ( 'NONE', *, *, #185, .T. ) ;
#532 = CARTESIAN_POINT ( 'NONE',  ( 28.15000000000000213, 4.898587196589410610E-17, 7.600000000000001421 ) ) ;
#533 = LINE ( 'NONE', #173, #114 ) ;
#534 = CIRCLE ( 'NONE', #508, 0.4000000000000003553 ) ;
#535 = EDGE_CURVE ( 'NONE', #516, #59, #184, .T. ) ;
#536 =( NAMED_UNIT ( * ) SI_UNIT ( $, .STERADIAN. ) SOLID_ANGLE_UNIT ( ) );
#537 = PLANE ( 'NONE',  #547 ) ;
#538 = DIRECTION ( 'NONE',  ( 0.000000000000000000, 0.000000000000000000, 1.000000000000000000 ) ) ;
#539 = AXIS2_PLACEMENT_3D ( 'NONE', #67, #419, #218 ) ;
#540 = DIRECTION ( 'NONE',  ( 1.000000000000000000, 0.000000000000000000, 0.000000000000000000 ) ) ;
#541 = APPLICATION_CONTEXT ( 'configuration controlled 3d designs of mechanical parts and assemblies' ) ;
#542 = FACE_OUTER_BOUND ( 'NONE', #221, .T. ) ;
#543 = DIRECTION ( 'NONE',  ( -1.000000000000000000, -0.000000000000000000, -0.000000000000000000 ) ) ;
#544 = VECTOR ( 'NONE', #122, 100.0000000000000000 ) ;
#545 = DIRECTION ( 'NONE',  ( 1.000000000000000000, 0.000000000000000000, 0.000000000000000000 ) ) ;
#546 = CIRCLE ( 'NONE', #511, 0.4000000000000003553 ) ;
#547 = AXIS2_PLACEMENT_3D ( 'NONE', #282, #490, #334 ) ;
#548 = CIRCLE ( 'NONE', #586, 3.500000000000003109 ) ;
#549 = DIRECTION ( 'NONE',  ( -0.000000000000000000, -0.000000000000000000, -1.000000000000000000 ) ) ;
#550 = PRODUCT_DEFINITION ( 'UNKNOWN', '', #584, #499 ) ;
#551 = CARTESIAN_POINT ( 'NONE',  ( 27.75000000000000355, 0.000000000000000000, 7.000000000000000888 ) ) ;
#552 = EDGE_CURVE ( 'NONE', #587, #371, #60, .T. ) ;
#553 = ADVANCED_BREP_SHAPE_REPRESENTATION ( '2_conexao_Valor predeterminado_sldprt', ( #488, #267, #647 ), #412 ) ;
#554 = EDGE_LOOP ( 'NONE', ( #100, #513, #19, #208 ) ) ;
#555 = CARTESIAN_POINT ( 'NONE',  ( -3.500000000000000888, 0.000000000000000000, 1.000000000000000000 ) ) ;
#556 = ORIENTED_EDGE ( 'NONE', *, *, #107, .T. ) ;
#557 = APPROVAL_PERSON_ORGANIZATION ( #417, #483, #408 ) ;
#558 = CARTESIAN_POINT ( 'NONE',  ( 27.75000000000000355, 0.000000000000000000, 7.000000000000000888 ) ) ;
#559 = EDGE_CURVE ( 'NONE', #330, #561, #494, .T. ) ;
#560 = CARTESIAN_POINT ( 'NONE',  ( 0.000000000000000000, 0.000000000000000000, 1.000000000000000000 ) ) ;
#561 = VERTEX_POINT ( 'NONE', #484 ) ;
#562 = ADVANCED_FACE ( 'NONE', ( #72 ), #428, .F. ) ;
#563 = CARTESIAN_POINT ( 'NONE',  ( 27.75000000000000355, 0.000000000000000000, 2.000000000000000000 ) ) ;
#564 = ORIENTED_EDGE ( 'NONE', *, *, #293, .T. ) ;
#565 = FACE_OUTER_BOUND ( 'NONE', #333, .T. ) ;
#566 = AXIS2_PLACEMENT_3D ( 'NONE', #411, #467, #514 ) ;
#567 = ORIENTED_EDGE ( 'NONE', *, *, #464, .F. ) ;
#568 = CARTESIAN_POINT ( 'NONE',  ( 27.75000000000000355, 0.000000000000000000, 2.000000000000000000 ) ) ;
#569 = DIRECTION ( 'NONE',  ( -0.000000000000000000, -0.000000000000000000, -1.000000000000000000 ) ) ;
#570 = AXIS2_PLACEMENT_3D ( 'NONE', #231, #272, #521 ) ;
#571 = EDGE_CURVE ( 'NONE', #150, #66, #152, .T. ) ;
#572 = COORDINATED_UNIVERSAL_TIME_OFFSET ( 3, 0, .BEHIND. ) ;
#573 = ORIENTED_EDGE ( 'NONE', *, *, #571, .F. ) ;
#574 = CARTESIAN_POINT ( 'NONE',  ( 23.87701665379258031, 0.4999999999999993894, -8.673617379884028076E-17 ) ) ;
#575 = FACE_OUTER_BOUND ( 'NONE', #357, .T. ) ;
#576 = ORIENTED_EDGE ( 'NONE', *, *, #559, .T. ) ;
#577 = DIRECTION ( 'NONE',  ( 0.000000000000000000, 0.000000000000000000, 1.000000000000000000 ) ) ;
#578 = CARTESIAN_POINT ( 'NONE',  ( 27.35000000000000142, 0.000000000000000000, 7.600000000000001421 ) ) ;
#579 = ORIENTED_EDGE ( 'NONE', *, *, #49, .T. ) ;
#580 = ORIENTED_EDGE ( 'NONE', *, *, #298, .F. ) ;
#581 = PERSON_AND_ORGANIZATION ( #135, #355 ) ;
#582 = DIRECTION ( 'NONE',  ( 1.000000000000000000, -1.040834085586083271E-15, 0.000000000000000000 ) ) ;
#583 = DIRECTION ( 'NONE',  ( -0.000000000000000000, -0.000000000000000000, -1.000000000000000000 ) ) ;
#584 = PRODUCT_DEFINITION_FORMATION_WITH_SPECIFIED_SOURCE ( 'ANY', '', #635, .NOT_KNOWN. ) ;
#585 = ADVANCED_FACE ( 'NONE', ( #226 ), #636, .T. ) ;
#586 = AXIS2_PLACEMENT_3D ( 'NONE', #335, #538, #474 ) ;
#587 = VERTEX_POINT ( 'NONE', #532 ) ;
#588 = DIRECTION ( 'NONE',  ( 0.000000000000000000, 0.000000000000000000, 1.000000000000000000 ) ) ;
#589 = EDGE_CURVE ( 'NONE', #262, #628, #28, .T. ) ;
#590 = ORIENTED_EDGE ( 'NONE', *, *, #345, .F. ) ;
#591 = DIRECTION ( 'NONE',  ( -0.000000000000000000, -0.000000000000000000, -1.000000000000000000 ) ) ;
#592 = CARTESIAN_POINT ( 'NONE',  ( 23.87701665379258031, -1.000000000000001110, 2.000000000000000000 ) ) ;
#593 = DIRECTION ( 'NONE',  ( 0.000000000000000000, 0.000000000000000000, 1.000000000000000000 ) ) ;
#594 = ADVANCED_FACE ( 'NONE', ( #128 ), #279, .T. ) ;
#595 = LINE ( 'NONE', #289, #381 ) ;
#596 = ORIENTED_EDGE ( 'NONE', *, *, #559, .F. ) ;
#597 = DIRECTION ( 'NONE',  ( -0.000000000000000000, -0.000000000000000000, -1.000000000000000000 ) ) ;
#598 = DIRECTION ( 'NONE',  ( -0.000000000000000000, 1.734723475976803890E-16, -1.000000000000000000 ) ) ;
#599 = CIRCLE ( 'NONE', #193, 0.4000000000000003553 ) ;
#600 = CARTESIAN_POINT ( 'NONE',  ( 23.87701665379258031, -0.5000000000000007772, 1.000000000000001998 ) ) ;
#601 = AXIS2_PLACEMENT_3D ( 'NONE', #551, #337, #545 ) ;
#602 = EDGE_LOOP ( 'NONE', ( #567, #299 ) ) ;
#603 = AXIS2_PLACEMENT_3D ( 'NONE', #592, #78, #75 ) ;
#604 = CARTESIAN_POINT ( 'NONE',  ( 0.000000000000000000, 0.000000000000000000, 0.000000000000000000 ) ) ;
#605 = ADVANCED_FACE ( 'NONE', ( #38 ), #537, .F. ) ;
#606 = ORIENTED_EDGE ( 'NONE', *, *, #440, .F. ) ;
#607 = CARTESIAN_POINT ( 'NONE',  ( 28.15000000000000213, 4.898587196589410610E-17, 7.000000000000000888 ) ) ;
#608 = ADVANCED_FACE ( 'NONE', ( #153 ), #409, .T. ) ;
#609 = DIRECTION ( 'NONE',  ( 1.000000000000000000, 0.000000000000000000, -0.000000000000000000 ) ) ;
#610 = SECURITY_CLASSIFICATION_LEVEL ( 'unclassified' ) ;
#611 = EDGE_LOOP ( 'NONE', ( #503, #246, #418, #414 ) ) ;
#612 = LOCAL_TIME ( 14, 37, 40.00000000000000000, #210 ) ;
#613 = LINE ( 'NONE', #555, #339 ) ;
#614 = CALENDAR_DATE ( 2026, 18, 8 ) ;
#615 = VERTEX_POINT ( 'NONE', #365 ) ;
#616 = DIRECTION ( 'NONE',  ( 1.000000000000000000, 0.000000000000000000, 0.000000000000000000 ) ) ;
#617 = CALENDAR_DATE ( 2026, 18, 8 ) ;
#618 = ORIENTED_EDGE ( 'NONE', *, *, #318, .T. ) ;
#619 = DIRECTION ( 'NONE',  ( -1.000000000000000000, 0.000000000000000000, 0.000000000000000000 ) ) ;
#620 = ORIENTED_EDGE ( 'NONE', *, *, #20, .T. ) ;
#621 = CARTESIAN_POINT ( 'NONE',  ( 3.388860427931491337, 0.8749999999999993339, 0.000000000000000000 ) ) ;
#622 = CYLINDRICAL_SURFACE ( 'NONE', #141, 3.500000000000000888 ) ;
#623 = CARTESIAN_POINT ( 'NONE',  ( 0.000000000000000000, 0.000000000000000000, 0.000000000000000000 ) ) ;
#624 = EDGE_CURVE ( 'NONE', #255, #23, #313, .T. ) ;
#625 = EDGE_LOOP ( 'NONE', ( #55, #304 ) ) ;
#626 = DIRECTION ( 'NONE',  ( -0.000000000000000000, -0.000000000000000000, -1.000000000000000000 ) ) ;
#627 = DIRECTION ( 'NONE',  ( 1.000000000000000000, 0.000000000000000000, 0.000000000000000000 ) ) ;
#628 = VERTEX_POINT ( 'NONE', #621 ) ;
#629 = CIRCLE ( 'NONE', #306, 2.000000000000001776 ) ;
#630 = DIRECTION ( 'NONE',  ( -1.000000000000000000, 0.000000000000000000, 0.000000000000000000 ) ) ;
#631 = CARTESIAN_POINT ( 'NONE',  ( 3.872983346207417465, -1.000000000000000888, 1.000000000000000000 ) ) ;
#632 = ORIENTED_EDGE ( 'NONE', *, *, #156, .F. ) ;
#633 = AXIS2_PLACEMENT_3D ( 'NONE', #187, #493, #295 ) ;
#634 = APPROVAL ( #328, 'UNSPECIFIED' ) ;
#635 = PRODUCT ( '2_conexao_Valor predeterminado_sldprt', '2_conexao_Valor predeterminado_sldprt', '', ( #379 ) ) ;
#636 = PLANE ( 'NONE',  #526 ) ;
#637 = DIRECTION ( 'NONE',  ( 0.000000000000000000, -1.734723475976803890E-16, 1.000000000000000000 ) ) ;
#638 = LOCAL_TIME ( 14, 37, 40.00000000000000000, #468 ) ;
#639 = AXIS2_PLACEMENT_3D ( 'NONE', #522, #530, #627 ) ;
#640 =( NAMED_UNIT ( * ) PLANE_ANGLE_UNIT ( ) SI_UNIT ( $, .RADIAN. ) );
#641 = CARTESIAN_POINT ( 'NONE',  ( 27.75000000000000355, 0.000000000000000000, 7.600000000000001421 ) ) ;
#642 = DIRECTION ( 'NONE',  ( 0.000000000000000000, 0.000000000000000000, 1.000000000000000000 ) ) ;
#643 =( LENGTH_UNIT ( ) NAMED_UNIT ( * ) SI_UNIT ( .CENTI., .METRE. ) );
#644 = CARTESIAN_POINT ( 'NONE',  ( 27.75000000000000355, 0.4999999999999993894, 0.000000000000000000 ) ) ;
#645 = ADVANCED_FACE ( 'NONE', ( #320 ), #171, .T. ) ;
#646 = DIRECTION ( 'NONE',  ( -0.000000000000000000, -0.000000000000000000, -1.000000000000000000 ) ) ;
#647 = AXIS2_PLACEMENT_3D ( 'NONE', #237, #593, #540 ) ;
#648 = LINE ( 'NONE', #445, #33 ) ;
#649 = CARTESIAN_POINT ( 'NONE',  ( 27.75000000000000355, 0.4999999999999992228, 1.000000000000000000 ) ) ;
#650 = EDGE_CURVE ( 'NONE', #384, #465, #475, .T. ) ;
#651 = EDGE_CURVE ( 'NONE', #137, #255, #130, .T. ) ;
#652 = ORIENTED_EDGE ( 'NONE', *, *, #253, .T. ) ;
#653 = FACE_OUTER_BOUND ( 'NONE', #500, .T. ) ;
#654 = AXIS2_PLACEMENT_3D ( 'NONE', #563, #358, #616 ) ;
ENDSEC;
END-ISO-10303-21;
