ISO-10303-21;
HEADER;
FILE_DESCRIPTION (( 'STEP AP203' ),
    '1' );
FILE_NAME ('3_rotating_disk_default_sldprt.STEP',
    '2026-08-18T17:37:42',
    ( '' ),
    ( '' ),
    'SwSTEP 2.0',
    'SolidWorks 2025',
    '' );
FILE_SCHEMA (( 'CONFIG_CONTROL_DESIGN' ));
ENDSEC;

DATA;
#1 = CARTESIAN_POINT ( 'NONE',  ( 0.000000000000000000, 0.000000000000000000, 0.000000000000000000 ) ) ;
#2 = CIRCLE ( 'NONE', #176, 0.3999999999999975797 ) ;
#3 = VERTEX_POINT ( 'NONE', #479 ) ;
#4 = EDGE_CURVE ( 'NONE', #331, #504, #252, .T. ) ;
#5 = CARTESIAN_POINT ( 'NONE',  ( 6.425039550356480333, -0.1518173240049553729, 10.89999999999999858 ) ) ;
#6 = DIRECTION ( 'NONE',  ( 0.000000000000000000, 0.000000000000000000, 1.000000000000000000 ) ) ;
#7 = LINE ( 'NONE', #186, #166 ) ;
#8 = CARTESIAN_POINT ( 'NONE',  ( 0.000000000000000000, 0.000000000000000000, -3.100000000000000089 ) ) ;
#9 = CLOSED_SHELL ( 'NONE', ( #187, #248, #290, #470 ) ) ;
#10 = ADVANCED_FACE ( 'NONE', ( #434 ), #574, .T. ) ;
#11 = DIRECTION ( 'NONE',  ( 0.000000000000000000, 0.000000000000000000, 1.000000000000000000 ) ) ;
#12 = LINE ( 'NONE', #232, #33 ) ;
#13 = LOCAL_TIME ( 14, 37, 42.00000000000000000, #380 ) ;
#14 = VECTOR ( 'NONE', #45, 100.0000000000000000 ) ;
#15 = DIRECTION ( 'NONE',  ( 0.000000000000000000, 0.000000000000000000, 1.000000000000000000 ) ) ;
#16 = DIRECTION ( 'NONE',  ( 0.000000000000000000, 0.000000000000000000, 1.000000000000000000 ) ) ;
#17 = PERSON_AND_ORGANIZATION_ROLE ( 'creator' ) ;
#18 = ORIENTED_EDGE ( 'NONE', *, *, #453, .T. ) ;
#19 = LINE ( 'NONE', #199, #528 ) ;
#20 = CALENDAR_DATE ( 2026, 18, 8 ) ;
#21 = ORIENTED_EDGE ( 'NONE', *, *, #449, .F. ) ;
#22 = CIRCLE ( 'NONE', #514, 7.500000000000000888 ) ;
#23 = DIRECTION ( 'NONE',  ( 0.000000000000000000, -0.000000000000000000, -1.000000000000000000 ) ) ;
#24 = LINE ( 'NONE', #28, #126 ) ;
#25 = EDGE_LOOP ( 'NONE', ( #128, #31 ) ) ;
#26 = AXIS2_PLACEMENT_3D ( 'NONE', #244, #423, #427 ) ;
#27 = CARTESIAN_POINT ( 'NONE',  ( 0.000000000000000000, 0.000000000000000000, 10.50000000000000178 ) ) ;
#28 = CARTESIAN_POINT ( 'NONE',  ( 7.498463275907406356, -0.1518173240049553729, 0.5000000000000000000 ) ) ;
#29 = EDGE_LOOP ( 'NONE', ( #395, #152, #210, #155, #551 ) ) ;
#30 = DIRECTION ( 'NONE',  ( -1.000000000000000000, -0.000000000000000000, -0.000000000000000000 ) ) ;
#31 = ORIENTED_EDGE ( 'NONE', *, *, #231, .F. ) ;
#32 = EDGE_CURVE ( 'NONE', #133, #207, #457, .T. ) ;
#33 = VECTOR ( 'NONE', #6, 100.0000000000000000 ) ;
#34 = FACE_OUTER_BOUND ( 'NONE', #162, .T. ) ;
#35 = PRODUCT_DEFINITION ( 'UNKNOWN', '', #87, #217 ) ;
#36 = EDGE_LOOP ( 'NONE', ( #41, #440, #477, #122 ) ) ;
#37 = AXIS2_PLACEMENT_3D ( 'NONE', #242, #15, #247 ) ;
#38 = PLANE ( 'NONE',  #172 ) ;
#39 = EDGE_LOOP ( 'NONE', ( #67, #198 ) ) ;
#40 = CARTESIAN_POINT ( 'NONE',  ( 7.498463275907406356, 0.1505043990094939443, 10.50000000000000178 ) ) ;
#41 = ORIENTED_EDGE ( 'NONE', *, *, #374, .F. ) ;
#42 = CARTESIAN_POINT ( 'NONE',  ( -7.500000000000000888, 0.000000000000000000, 0.5000000000000000000 ) ) ;
#43 = VERTEX_POINT ( 'NONE', #227 ) ;
#44 = ADVANCED_FACE ( 'NONE', ( #52 ), #312, .T. ) ;
#45 = DIRECTION ( 'NONE',  ( 0.000000000000000000, 0.000000000000000000, 1.000000000000000000 ) ) ;
#46 = CIRCLE ( 'NONE', #61, 1.000000000000000000 ) ;
#47 = CARTESIAN_POINT ( 'NONE',  ( 0.000000000000000000, 0.000000000000000000, -2.500000000000000000 ) ) ;
#48 = CARTESIAN_POINT ( 'NONE',  ( 7.498463275907406356, -0.1518173240049553729, 10.50000000000000178 ) ) ;
#49 = APPROVAL_PERSON_ORGANIZATION ( #222, #173, #564 ) ;
#50 = FACE_OUTER_BOUND ( 'NONE', #25, .T. ) ;
#51 = PRODUCT_RELATED_PRODUCT_CATEGORY ( 'detail', '', ( #339 ) ) ;
#52 = FACE_OUTER_BOUND ( 'NONE', #168, .T. ) ;
#53 = CARTESIAN_POINT ( 'NONE',  ( 0.000000000000000000, 0.000000000000000000, 0.5000000000000000000 ) ) ;
#54 = CARTESIAN_POINT ( 'NONE',  ( 0.000000000000000000, 0.000000000000000000, -2.500000000000000000 ) ) ;
#55 = APPLICATION_CONTEXT ( 'configuration controlled 3d designs of mechanical parts and assemblies' ) ;
#56 = DIRECTION ( 'NONE',  ( -1.000000000000000000, 0.000000000000000000, 0.000000000000000000 ) ) ;
#57 = ADVANCED_BREP_SHAPE_REPRESENTATION ( '3_rotating_disk_default_sldprt', ( #566, #370, #372, #188 ), #344 ) ;
#58 = DIRECTION ( 'NONE',  ( 0.000000000000000000, 0.000000000000000000, -1.000000000000000000 ) ) ;
#59 = CARTESIAN_POINT ( 'NONE',  ( -0.4000000000000000222, 4.898587196589412459E-17, -2.500000000000000000 ) ) ;
#60 = ORIENTED_EDGE ( 'NONE', *, *, #538, .T. ) ;
#61 = AXIS2_PLACEMENT_3D ( 'NONE', #54, #69, #544 ) ;
#62 = PLANE ( 'NONE',  #130 ) ;
#63 = CARTESIAN_POINT ( 'NONE',  ( 7.498463275907406356, -0.1518173240049553729, 0.5000000000000000000 ) ) ;
#64 = ORIENTED_EDGE ( 'NONE', *, *, #328, .F. ) ;
#65 = EDGE_CURVE ( 'NONE', #207, #322, #269, .T. ) ;
#66 = PLANE ( 'NONE',  #249 ) ;
#67 = ORIENTED_EDGE ( 'NONE', *, *, #327, .F. ) ;
#68 = VECTOR ( 'NONE', #88, 100.0000000000000000 ) ;
#69 = DIRECTION ( 'NONE',  ( 0.000000000000000000, 0.000000000000000000, 1.000000000000000000 ) ) ;
#70 = DIRECTION ( 'NONE',  ( 0.000000000000000000, 1.000000000000000000, 0.000000000000000000 ) ) ;
#71 = ORIENTED_EDGE ( 'NONE', *, *, #383, .F. ) ;
#72 = AXIS2_PLACEMENT_3D ( 'NONE', #341, #174, #345 ) ;
#73 = CIRCLE ( 'NONE', #484, 7.500000000000000888 ) ;
#74 = DIRECTION ( 'NONE',  ( 0.000000000000000000, 0.000000000000000000, 1.000000000000000000 ) ) ;
#75 = ORIENTED_EDGE ( 'NONE', *, *, #216, .F. ) ;
#76 = DIRECTION ( 'NONE',  ( 1.000000000000000000, 0.000000000000000000, 0.000000000000000000 ) ) ;
#77 = DIRECTION ( 'NONE',  ( 1.000000000000000000, 0.000000000000000000, 0.000000000000000000 ) ) ;
#78 = FACE_OUTER_BOUND ( 'NONE', #36, .T. ) ;
#79 = DATE_AND_TIME ( #214, #220 ) ;
#80 = ORIENTED_EDGE ( 'NONE', *, *, #216, .T. ) ;
#81 = DIRECTION ( 'NONE',  ( -1.000000000000000000, 0.000000000000000000, 0.000000000000000000 ) ) ;
#82 = APPROVAL_STATUS ( 'not_yet_approved' ) ;
#83 = ORIENTED_EDGE ( 'NONE', *, *, #411, .T. ) ;
#84 = EDGE_CURVE ( 'NONE', #43, #296, #73, .T. ) ;
#85 = DIRECTION ( 'NONE',  ( 1.000000000000000000, 0.000000000000000000, -0.000000000000000000 ) ) ;
#86 = ORIENTED_EDGE ( 'NONE', *, *, #99, .T. ) ;
#87 = PRODUCT_DEFINITION_FORMATION_WITH_SPECIFIED_SOURCE ( 'ANY', '', #339, .NOT_KNOWN. ) ;
#88 = DIRECTION ( 'NONE',  ( -0.000000000000000000, -0.000000000000000000, -1.000000000000000000 ) ) ;
#89 = ORIENTED_EDGE ( 'NONE', *, *, #453, .F. ) ;
#90 = VECTOR ( 'NONE', #364, 100.0000000000000000 ) ;
#91 = FACE_OUTER_BOUND ( 'NONE', #337, .T. ) ;
#92 = CC_DESIGN_PERSON_AND_ORGANIZATION_ASSIGNMENT ( #256, #209, ( #87 ) ) ;
#93 = DIRECTION ( 'NONE',  ( 1.000000000000000000, 0.000000000000000000, 0.000000000000000000 ) ) ;
#94 = AXIS2_PLACEMENT_3D ( 'NONE', #263, #208, #442 ) ;
#95 = CARTESIAN_POINT ( 'NONE',  ( 7.498463275907406356, -0.1518173240049553729, 10.50000000000000178 ) ) ;
#96 = EDGE_CURVE ( 'NONE', #578, #545, #454, .T. ) ;
#97 = AXIS2_PLACEMENT_3D ( 'NONE', #324, #502, #287 ) ;
#98 = DIRECTION ( 'NONE',  ( 0.000000000000000000, 0.000000000000000000, 1.000000000000000000 ) ) ;
#99 = EDGE_CURVE ( 'NONE', #565, #382, #12, .T. ) ;
#100 = LINE ( 'NONE', #48, #474 ) ;
#101 = CARTESIAN_POINT ( 'NONE',  ( 7.025039550356480866, -0.1518173240049553729, 10.89999999999999858 ) ) ;
#102 = APPROVAL_DATE_TIME ( #476, #173 ) ;
#103 = CARTESIAN_POINT ( 'NONE',  ( 7.498463275907406356, 0.1505043990094939443, 10.50000000000000178 ) ) ;
#104 = CARTESIAN_POINT ( 'NONE',  ( 7.498463275907406356, -0.1518173240049553729, 10.50000000000000178 ) ) ;
#105 = EDGE_LOOP ( 'NONE', ( #80, #400 ) ) ;
#106 = FACE_OUTER_BOUND ( 'NONE', #392, .T. ) ;
#107 = CARTESIAN_POINT ( 'NONE',  ( 1.000000000000000000, 0.000000000000000000, -2.500000000000000000 ) ) ;
#108 = ORIENTED_EDGE ( 'NONE', *, *, #558, .F. ) ;
#109 = CIRCLE ( 'NONE', #462, 0.4000000000000000222 ) ;
#110 = DIRECTION ( 'NONE',  ( 0.000000000000000000, 0.000000000000000000, 1.000000000000000000 ) ) ;
#111 = CARTESIAN_POINT ( 'NONE',  ( 7.025039550356480866, -0.1518173240049553729, 10.50000000000000178 ) ) ;
#112 = EDGE_LOOP ( 'NONE', ( #522, #158 ) ) ;
#113 = DIRECTION ( 'NONE',  ( 1.000000000000000000, 0.000000000000000000, -0.000000000000000000 ) ) ;
#114 = EDGE_LOOP ( 'NONE', ( #200, #368 ) ) ;
#115 = CC_DESIGN_APPROVAL ( #297, ( #87 ) ) ;
#116 = DIRECTION ( 'NONE',  ( -1.000000000000000000, 0.000000000000000000, 0.000000000000000000 ) ) ;
#117 = VERTEX_POINT ( 'NONE', #534 ) ;
#118 = APPROVAL ( #503, 'UNSPECIFIED' ) ;
#119 = AXIS2_PLACEMENT_3D ( 'NONE', #268, #98, #273 ) ;
#120 = LINE ( 'NONE', #576, #500 ) ;
#121 = DATE_TIME_ROLE ( 'creation_date' ) ;
#122 = ORIENTED_EDGE ( 'NONE', *, *, #404, .F. ) ;
#123 = CARTESIAN_POINT ( 'NONE',  ( 7.025039550356480866, -0.1518173240049553729, 10.50000000000000178 ) ) ;
#124 = ORIENTED_EDGE ( 'NONE', *, *, #328, .T. ) ;
#125 = PERSON ( 'UNSPECIFIED', 'UNSPECIFIED', 'UNSPECIFIED', ('UNSPECIFIED'), ('UNSPECIFIED'), ('UNSPECIFIED') ) ;
#126 = VECTOR ( 'NONE', #70, 100.0000000000000000 ) ;
#127 = DIRECTION ( 'NONE',  ( 1.000000000000000000, 0.000000000000000000, 0.000000000000000000 ) ) ;
#128 = ORIENTED_EDGE ( 'NONE', *, *, #159, .F. ) ;
#129 = ADVANCED_FACE ( 'NONE', ( #91 ), #229, .T. ) ;
#130 = AXIS2_PLACEMENT_3D ( 'NONE', #27, #332, #379 ) ;
#131 = CYLINDRICAL_SURFACE ( 'NONE', #388, 7.500000000000000888 ) ;
#132 = ADVANCED_FACE ( 'NONE', ( #50 ), #181, .F. ) ;
#133 = VERTEX_POINT ( 'NONE', #493 ) ;
#134 = CARTESIAN_POINT ( 'NONE',  ( 5.351615824805548982, 0.1505043990094939443, 10.50000000000000178 ) ) ;
#135 = ORIENTED_EDGE ( 'NONE', *, *, #96, .T. ) ;
#136 = CARTESIAN_POINT ( 'NONE',  ( 0.000000000000000000, 0.000000000000000000, -2.500000000000000000 ) ) ;
#137 = EDGE_CURVE ( 'NONE', #533, #3, #407, .T. ) ;
#138 = VECTOR ( 'NONE', #501, 100.0000000000000000 ) ;
#139 = DIRECTION ( 'NONE',  ( 1.000000000000000000, 0.000000000000000000, 0.000000000000000000 ) ) ;
#140 = DIRECTION ( 'NONE',  ( 0.000000000000000000, 1.000000000000000000, 0.000000000000000000 ) ) ;
#141 = CC_DESIGN_APPROVAL ( #118, ( #35 ) ) ;
#142 = CARTESIAN_POINT ( 'NONE',  ( -0.4000000000000000222, 4.898587196589412459E-17, -3.100000000000000089 ) ) ;
#143 = EDGE_CURVE ( 'NONE', #432, #447, #436, .T. ) ;
#144 = VECTOR ( 'NONE', #523, 100.0000000000000000 ) ;
#145 = DIRECTION ( 'NONE',  ( 0.000000000000000000, 0.000000000000000000, 1.000000000000000000 ) ) ;
#146 = VECTOR ( 'NONE', #451, 100.0000000000000000 ) ;
#147 = DIRECTION ( 'NONE',  ( 1.000000000000000000, 0.000000000000000000, 0.000000000000000000 ) ) ;
#148 = DIRECTION ( 'NONE',  ( 0.000000000000000000, 0.000000000000000000, 1.000000000000000000 ) ) ;
#149 = EDGE_LOOP ( 'NONE', ( #561, #291, #75, #241 ) ) ;
#150 = CARTESIAN_POINT ( 'NONE',  ( 5.351615824805548982, -0.1518173240049556505, 0.5000000000000000000 ) ) ;
#151 = DIRECTION ( 'NONE',  ( -1.000000000000000000, -1.212049422808176104E-16, 0.000000000000000000 ) ) ;
#152 = ORIENTED_EDGE ( 'NONE', *, *, #143, .F. ) ;
#153 = FACE_OUTER_BOUND ( 'NONE', #307, .T. ) ;
#154 = DIRECTION ( 'NONE',  ( 1.000000000000000000, 0.000000000000000000, 0.000000000000000000 ) ) ;
#155 = ORIENTED_EDGE ( 'NONE', *, *, #398, .T. ) ;
#156 = PLANE ( 'NONE',  #363 ) ;
#157 = MECHANICAL_CONTEXT ( 'NONE', #468, 'mechanical' ) ;
#158 = ORIENTED_EDGE ( 'NONE', *, *, #397, .F. ) ;
#159 = EDGE_CURVE ( 'NONE', #565, #117, #455, .T. ) ;
#160 = DIRECTION ( 'NONE',  ( -0.000000000000000000, -0.000000000000000000, -1.000000000000000000 ) ) ;
#161 = CALENDAR_DATE ( 2026, 18, 8 ) ;
#162 = EDGE_LOOP ( 'NONE', ( #266, #124 ) ) ;
#163 = LOCAL_TIME ( 14, 37, 42.00000000000000000, #342 ) ;
#164 = CARTESIAN_POINT ( 'NONE',  ( 5.351615824805548982, 0.1505043990094939443, 0.5000000000000000000 ) ) ;
#165 = ORIENTED_EDGE ( 'NONE', *, *, #397, .T. ) ;
#166 = VECTOR ( 'NONE', #183, 100.0000000000000000 ) ;
#167 = LINE ( 'NONE', #42, #144 ) ;
#168 = EDGE_LOOP ( 'NONE', ( #251, #375, #18, #262, #421, #525, #334 ) ) ;
#169 = LINE ( 'NONE', #218, #426 ) ;
#170 = ORIENTED_EDGE ( 'NONE', *, *, #404, .T. ) ;
#171 = EDGE_CURVE ( 'NONE', #133, #432, #100, .T. ) ;
#172 = AXIS2_PLACEMENT_3D ( 'NONE', #213, #81, #338 ) ;
#173 = APPROVAL ( #532, 'UNSPECIFIED' ) ;
#174 = DIRECTION ( 'NONE',  ( 0.000000000000000000, 0.000000000000000000, 1.000000000000000000 ) ) ;
#175 = EDGE_LOOP ( 'NONE', ( #60, #179, #461, #569 ) ) ;
#176 = AXIS2_PLACEMENT_3D ( 'NONE', #123, #127, #475 ) ;
#177 = CLOSED_SHELL ( 'NONE', ( #579, #406, #354, #44, #418, #129, #132, #456, #305, #311, #543, #237 ) ) ;
#178 = CARTESIAN_POINT ( 'NONE',  ( 0.000000000000000000, 0.000000000000000000, 0.5000000000000000000 ) ) ;
#179 = ORIENTED_EDGE ( 'NONE', *, *, #65, .F. ) ;
#180 = CARTESIAN_POINT ( 'NONE',  ( 0.4000000000000000222, 0.000000000000000000, -2.500000000000000000 ) ) ;
#181 = PLANE ( 'NONE',  #357 ) ;
#182 = CC_DESIGN_PERSON_AND_ORGANIZATION_ASSIGNMENT ( #303, #206, ( #412 ) ) ;
#183 = DIRECTION ( 'NONE',  ( -0.000000000000000000, -0.000000000000000000, -1.000000000000000000 ) ) ;
#184 = AXIS2_PLACEMENT_3D ( 'NONE', #318, #235, #555 ) ;
#185 = CARTESIAN_POINT ( 'NONE',  ( 0.000000000000000000, 0.000000000000000000, 0.000000000000000000 ) ) ;
#186 = CARTESIAN_POINT ( 'NONE',  ( 5.351615824805548982, -0.1518173240049556505, 10.50000000000000178 ) ) ;
#187 = ADVANCED_FACE ( 'NONE', ( #405 ), #537, .T. ) ;
#188 = AXIS2_PLACEMENT_3D ( 'NONE', #467, #148, #154 ) ;
#189 = CARTESIAN_POINT ( 'NONE',  ( 6.425039550356480333, -0.1518173240049553729, 10.50000000000000178 ) ) ;
#190 = CIRCLE ( 'NONE', #414, 0.3999999999999975797 ) ;
#191 = CARTESIAN_POINT ( 'NONE',  ( 0.000000000000000000, 0.000000000000000000, -3.100000000000000089 ) ) ;
#192 = EDGE_CURVE ( 'NONE', #3, #243, #7, .T. ) ;
#193 = FACE_OUTER_BOUND ( 'NONE', #304, .T. ) ;
#194 = ORIENTED_EDGE ( 'NONE', *, *, #137, .F. ) ;
#195 = CARTESIAN_POINT ( 'NONE',  ( -1.000000000000000000, 1.224646799147353207E-16, 0.000000000000000000 ) ) ;
#196 = AXIS2_PLACEMENT_3D ( 'NONE', #104, #325, #151 ) ;
#197 =( NAMED_UNIT ( * ) PLANE_ANGLE_UNIT ( ) SI_UNIT ( $, .RADIAN. ) );
#198 = ORIENTED_EDGE ( 'NONE', *, *, #438, .F. ) ;
#199 = CARTESIAN_POINT ( 'NONE',  ( 5.351615824805548982, -0.1518173240049556505, 0.5000000000000000000 ) ) ;
#200 = ORIENTED_EDGE ( 'NONE', *, *, #558, .T. ) ;
#201 = EDGE_CURVE ( 'NONE', #513, #545, #109, .T. ) ;
#202 = CYLINDRICAL_SURFACE ( 'NONE', #267, 7.500000000000000888 ) ;
#203 = ORIENTED_EDGE ( 'NONE', *, *, #499, .F. ) ;
#204 = ADVANCED_FACE ( 'NONE', ( #355 ), #310, .F. ) ;
#205 = CARTESIAN_POINT ( 'NONE',  ( 0.4000000000000000222, 0.000000000000000000, -3.100000000000000089 ) ) ;
#206 = PERSON_AND_ORGANIZATION_ROLE ( 'classification_officer' ) ;
#207 = VERTEX_POINT ( 'NONE', #419 ) ;
#208 = DIRECTION ( 'NONE',  ( 0.000000000000000000, 0.000000000000000000, 1.000000000000000000 ) ) ;
#209 = PERSON_AND_ORGANIZATION_ROLE ( 'creator' ) ;
#210 = ORIENTED_EDGE ( 'NONE', *, *, #356, .F. ) ;
#211 = AXIS2_PLACEMENT_3D ( 'NONE', #409, #11, #93 ) ;
#212 = EDGE_CURVE ( 'NONE', #3, #133, #546, .T. ) ;
#213 = CARTESIAN_POINT ( 'NONE',  ( 7.498463275907406356, -0.1518173240049553729, 10.50000000000000178 ) ) ;
#214 = CALENDAR_DATE ( 2026, 18, 8 ) ;
#215 = ORIENTED_EDGE ( 'NONE', *, *, #383, .T. ) ;
#216 = EDGE_CURVE ( 'NONE', #382, #279, #401, .T. ) ;
#217 = DESIGN_CONTEXT ( 'detailed design', #55, 'design' ) ;
#218 = CARTESIAN_POINT ( 'NONE',  ( 7.025039550356480866, -0.1518173240049553452, 10.10000000000000320 ) ) ;
#219 = ORIENTED_EDGE ( 'NONE', *, *, #349, .F. ) ;
#220 = LOCAL_TIME ( 14, 37, 42.00000000000000000, #443 ) ;
#221 = CARTESIAN_POINT ( 'NONE',  ( 7.500000000000000888, 9.184850993605149917E-16, 0.5000000000000000000 ) ) ;
#222 = PERSON_AND_ORGANIZATION ( #125, #361 ) ;
#223 = ORIENTED_EDGE ( 'NONE', *, *, #137, .T. ) ;
#224 = CIRCLE ( 'NONE', #517, 0.4000000000000000222 ) ;
#225 = CC_DESIGN_PERSON_AND_ORGANIZATION_ASSIGNMENT ( #521, #573, ( #87 ) ) ;
#226 = LINE ( 'NONE', #134, #68 ) ;
#227 = CARTESIAN_POINT ( 'NONE',  ( -7.500000000000000888, 0.000000000000000000, 0.000000000000000000 ) ) ;
#228 = DIRECTION ( 'NONE',  ( -0.000000000000000000, -0.000000000000000000, -1.000000000000000000 ) ) ;
#229 = CYLINDRICAL_SURFACE ( 'NONE', #376, 1.000000000000000000 ) ;
#230 = AXIS2_PLACEMENT_3D ( 'NONE', #489, #77, #264 ) ;
#231 = EDGE_CURVE ( 'NONE', #117, #565, #46, .T. ) ;
#232 = CARTESIAN_POINT ( 'NONE',  ( 1.000000000000000000, 0.000000000000000000, -2.500000000000000000 ) ) ;
#233 = DIRECTION ( 'NONE',  ( 0.000000000000000000, 0.000000000000000000, 1.000000000000000000 ) ) ;
#234 = LOCAL_TIME ( 14, 37, 42.00000000000000000, #284 ) ;
#235 = DIRECTION ( 'NONE',  ( 0.000000000000000000, 0.000000000000000000, 1.000000000000000000 ) ) ;
#236 = CARTESIAN_POINT ( 'NONE',  ( 0.000000000000000000, 0.000000000000000000, -2.500000000000000000 ) ) ;
#237 = ADVANCED_FACE ( 'NONE', ( #413 ), #62, .T. ) ;
#238 = VECTOR ( 'NONE', #393, 100.0000000000000000 ) ;
#239 = DIRECTION ( 'NONE',  ( 0.000000000000000000, 0.000000000000000000, -1.000000000000000000 ) ) ;
#240 = CYLINDRICAL_SURFACE ( 'NONE', #492, 1.000000000000000000 ) ;
#241 = ORIENTED_EDGE ( 'NONE', *, *, #99, .F. ) ;
#242 = CARTESIAN_POINT ( 'NONE',  ( 0.000000000000000000, 0.000000000000000000, -3.100000000000000089 ) ) ;
#243 = VERTEX_POINT ( 'NONE', #150 ) ;
#244 = CARTESIAN_POINT ( 'NONE',  ( 0.000000000000000000, 0.000000000000000000, -2.500000000000000000 ) ) ;
#245 = DATE_AND_TIME ( #20, #234 ) ;
#246 = ORIENTED_EDGE ( 'NONE', *, *, #497, .T. ) ;
#247 = DIRECTION ( 'NONE',  ( 1.000000000000000000, 0.000000000000000000, 0.000000000000000000 ) ) ;
#248 = ADVANCED_FACE ( 'NONE', ( #153 ), #505, .T. ) ;
#249 = AXIS2_PLACEMENT_3D ( 'NONE', #103, #283, #23 ) ;
#250 = COORDINATED_UNIVERSAL_TIME_OFFSET ( 3, 0, .BEHIND. ) ;
#251 = ORIENTED_EDGE ( 'NONE', *, *, #538, .F. ) ;
#252 = CIRCLE ( 'NONE', #230, 0.3999999999999975797 ) ;
#253 = LINE ( 'NONE', #568, #567 ) ;
#254 = EDGE_LOOP ( 'NONE', ( #282, #135, #481, #386 ) ) ;
#255 = DIRECTION ( 'NONE',  ( -0.000000000000000000, -0.000000000000000000, -1.000000000000000000 ) ) ;
#256 = PERSON_AND_ORGANIZATION ( #125, #361 ) ;
#257 = ORIENTED_EDGE ( 'NONE', *, *, #231, .T. ) ;
#258 = CARTESIAN_POINT ( 'NONE',  ( 7.025039550356480866, -0.1518173240049553729, 10.50000000000000178 ) ) ;
#259 = CC_DESIGN_DATE_AND_TIME_ASSIGNMENT ( #394, #577, ( #412 ) ) ;
#260 = ORIENTED_EDGE ( 'NONE', *, *, #391, .F. ) ;
#261 = DIRECTION ( 'NONE',  ( -1.000000000000000000, -0.000000000000000000, -0.000000000000000000 ) ) ;
#262 = ORIENTED_EDGE ( 'NONE', *, *, #356, .T. ) ;
#263 = CARTESIAN_POINT ( 'NONE',  ( 0.000000000000000000, 0.000000000000000000, -3.100000000000000089 ) ) ;
#264 = DIRECTION ( 'NONE',  ( 0.000000000000000000, 0.000000000000000000, -1.000000000000000000 ) ) ;
#265 = DIRECTION ( 'NONE',  ( -1.000000000000000000, -0.000000000000000000, -0.000000000000000000 ) ) ;
#266 = ORIENTED_EDGE ( 'NONE', *, *, #201, .T. ) ;
#267 = AXIS2_PLACEMENT_3D ( 'NONE', #281, #160, #116 ) ;
#268 = CARTESIAN_POINT ( 'NONE',  ( 0.000000000000000000, 0.000000000000000000, -2.500000000000000000 ) ) ;
#269 = LINE ( 'NONE', #314, #146 ) ;
#270 = EDGE_CURVE ( 'NONE', #425, #243, #19, .T. ) ;
#271 = CARTESIAN_POINT ( 'NONE',  ( 5.351615824805548982, -0.1518173240049556505, 10.50000000000000178 ) ) ;
#272 = AXIS2_PLACEMENT_3D ( 'NONE', #460, #320, #58 ) ;
#273 = DIRECTION ( 'NONE',  ( 1.000000000000000000, 0.000000000000000000, 0.000000000000000000 ) ) ;
#274 = DIRECTION ( 'NONE',  ( 1.000000000000000000, 0.000000000000000000, 0.000000000000000000 ) ) ;
#275 = CC_DESIGN_DATE_AND_TIME_ASSIGNMENT ( #367, #121, ( #35 ) ) ;
#276 = CC_DESIGN_APPROVAL ( #173, ( #412 ) ) ;
#277 = PLANE ( 'NONE',  #272 ) ;
#278 = DIRECTION ( 'NONE',  ( 0.000000000000000000, 0.000000000000000000, 1.000000000000000000 ) ) ;
#279 = VERTEX_POINT ( 'NONE', #195 ) ;
#280 = AXIS2_PLACEMENT_3D ( 'NONE', #189, #139, #362 ) ;
#281 = CARTESIAN_POINT ( 'NONE',  ( 0.000000000000000000, 0.000000000000000000, 0.5000000000000000000 ) ) ;
#282 = ORIENTED_EDGE ( 'NONE', *, *, #327, .T. ) ;
#283 = DIRECTION ( 'NONE',  ( 0.000000000000000000, -1.000000000000000000, 0.000000000000000000 ) ) ;
#284 = COORDINATED_UNIVERSAL_TIME_OFFSET ( 3, 0, .BEHIND. ) ;
#285 = ORIENTED_EDGE ( 'NONE', *, *, #212, .F. ) ;
#286 = ADVANCED_FACE ( 'NONE', ( #193 ), #373, .T. ) ;
#287 = DIRECTION ( 'NONE',  ( 0.000000000000000000, 0.000000000000000000, 1.000000000000000000 ) ) ;
#288 = CIRCLE ( 'NONE', #452, 0.3999999999999975797 ) ;
#289 = PERSON_AND_ORGANIZATION ( #125, #361 ) ;
#290 = ADVANCED_FACE ( 'NONE', ( #463 ), #156, .F. ) ;
#291 = ORIENTED_EDGE ( 'NONE', *, *, #391, .T. ) ;
#292 = DIRECTION ( 'NONE',  ( 0.000000000000000000, 0.000000000000000000, 1.000000000000000000 ) ) ;
#293 = CALENDAR_DATE ( 2026, 18, 8 ) ;
#294 = ORIENTED_EDGE ( 'NONE', *, *, #499, .T. ) ;
#295 = DIRECTION ( 'NONE',  ( 1.000000000000000000, 0.000000000000000000, 0.000000000000000000 ) ) ;
#296 = VERTEX_POINT ( 'NONE', #366 ) ;
#297 = APPROVAL ( #82, 'UNSPECIFIED' ) ;
#298 = DIRECTION ( 'NONE',  ( 0.000000000000000000, 0.000000000000000000, 1.000000000000000000 ) ) ;
#299 = ORIENTED_EDGE ( 'NONE', *, *, #65, .T. ) ;
#300 = DIRECTION ( 'NONE',  ( -0.000000000000000000, -0.000000000000000000, -1.000000000000000000 ) ) ;
#301 = ORIENTED_EDGE ( 'NONE', *, *, #398, .F. ) ;
#302 = FACE_BOUND ( 'NONE', #105, .T. ) ;
#303 = PERSON_AND_ORGANIZATION ( #125, #361 ) ;
#304 = EDGE_LOOP ( 'NONE', ( #417, #108, #170, #465 ) ) ;
#305 = ADVANCED_FACE ( 'NONE', ( #508 ), #66, .F. ) ;
#306 = CARTESIAN_POINT ( 'NONE',  ( 5.351615824805548982, 0.1505043990094939443, 10.50000000000000178 ) ) ;
#307 = EDGE_LOOP ( 'NONE', ( #548, #444, #246, #64 ) ) ;
#308 = DIRECTION ( 'NONE',  ( 1.000000000000000000, 0.000000000000000000, -0.000000000000000000 ) ) ;
#309 = VECTOR ( 'NONE', #255, 100.0000000000000000 ) ;
#310 = PLANE ( 'NONE',  #280 ) ;
#311 = ADVANCED_FACE ( 'NONE', ( #106 ), #277, .F. ) ;
#312 = PLANE ( 'NONE',  #554 ) ;
#313 = VECTOR ( 'NONE', #56, 100.0000000000000000 ) ;
#314 = CARTESIAN_POINT ( 'NONE',  ( 7.498463275907406356, 0.1505043990094939443, 10.50000000000000178 ) ) ;
#315 = CIRCLE ( 'NONE', #72, 7.500000000000000888 ) ;
#316 = AXIS2_PLACEMENT_3D ( 'NONE', #494, #450, #495 ) ;
#317 = DIRECTION ( 'NONE',  ( 1.000000000000000000, 0.000000000000000000, -0.000000000000000000 ) ) ;
#318 = CARTESIAN_POINT ( 'NONE',  ( 0.000000000000000000, 0.000000000000000000, 0.000000000000000000 ) ) ;
#319 = PERSON_AND_ORGANIZATION_ROLE ( 'design_owner' ) ;
#320 = DIRECTION ( 'NONE',  ( 1.000000000000000000, 0.000000000000000000, 0.000000000000000000 ) ) ;
#321 = CARTESIAN_POINT ( 'NONE',  ( 7.498463275907406356, 0.1505043990094939443, 0.5000000000000000000 ) ) ;
#322 = VERTEX_POINT ( 'NONE', #466 ) ;
#323 = AXIS2_PLACEMENT_3D ( 'NONE', #487, #563, #85 ) ;
#324 = CARTESIAN_POINT ( 'NONE',  ( 7.025039550356480866, -0.1518173240049553729, 10.50000000000000178 ) ) ;
#325 = DIRECTION ( 'NONE',  ( -1.212049422808176104E-16, 1.000000000000000000, 0.000000000000000000 ) ) ;
#326 = ORIENTED_EDGE ( 'NONE', *, *, #570, .T. ) ;
#327 = EDGE_CURVE ( 'NONE', #389, #578, #224, .T. ) ;
#328 = EDGE_CURVE ( 'NONE', #545, #513, #448, .T. ) ;
#329 = CARTESIAN_POINT ( 'NONE',  ( -7.500000000000000888, 0.000000000000000000, 0.5000000000000000000 ) ) ;
#330 = APPLICATION_PROTOCOL_DEFINITION ( 'international standard', 'config_control_design', 1994, #468 ) ;
#331 = VERTEX_POINT ( 'NONE', #377 ) ;
#332 = DIRECTION ( 'NONE',  ( 0.000000000000000000, -0.000000000000000000, 1.000000000000000000 ) ) ;
#333 = PERSON_AND_ORGANIZATION ( #125, #361 ) ;
#334 = ORIENTED_EDGE ( 'NONE', *, *, #552, .F. ) ;
#335 = CARTESIAN_POINT ( 'NONE',  ( 7.498463275907403691, -0.1518173240049553729, 0.5000000000000000000 ) ) ;
#336 = CIRCLE ( 'NONE', #348, 7.500000000000000888 ) ;
#337 = EDGE_LOOP ( 'NONE', ( #260, #257, #86, #21 ) ) ;
#338 = DIRECTION ( 'NONE',  ( 0.000000000000000000, 0.000000000000000000, 1.000000000000000000 ) ) ;
#339 = PRODUCT ( '3_rotating_disk_default_sldprt', '3_rotating_disk_default_sldprt', '', ( #157 ) ) ;
#340 = EDGE_LOOP ( 'NONE', ( #219, #491 ) ) ;
#341 = CARTESIAN_POINT ( 'NONE',  ( 0.000000000000000000, 0.000000000000000000, 0.000000000000000000 ) ) ;
#342 = COORDINATED_UNIVERSAL_TIME_OFFSET ( 3, 0, .BEHIND. ) ;
#343 = ORIENTED_EDGE ( 'NONE', *, *, #192, .T. ) ;
#344 =( GEOMETRIC_REPRESENTATION_CONTEXT ( 3 ) GLOBAL_UNCERTAINTY_ASSIGNED_CONTEXT ( ( #530 ) ) GLOBAL_UNIT_ASSIGNED_CONTEXT ( ( #464, #197, #550 ) ) REPRESENTATION_CONTEXT ( 'NONE', 'WORKASPACE' ) );
#345 = DIRECTION ( 'NONE',  ( 1.000000000000000000, 0.000000000000000000, 0.000000000000000000 ) ) ;
#346 = SECURITY_CLASSIFICATION_LEVEL ( 'unclassified' ) ;
#347 = VERTEX_POINT ( 'NONE', #329 ) ;
#348 = AXIS2_PLACEMENT_3D ( 'NONE', #458, #74, #295 ) ;
#349 = EDGE_CURVE ( 'NONE', #504, #331, #190, .T. ) ;
#350 = DIRECTION ( 'NONE',  ( 0.000000000000000000, 0.000000000000000000, 1.000000000000000000 ) ) ;
#351 = ORIENTED_EDGE ( 'NONE', *, *, #192, .F. ) ;
#352 = CARTESIAN_POINT ( 'NONE',  ( 7.025039550356480866, -0.1518173240049553452, 10.10000000000000320 ) ) ;
#353 = DIRECTION ( 'NONE',  ( 0.000000000000000000, 0.000000000000000000, 1.000000000000000000 ) ) ;
#354 = ADVANCED_FACE ( 'NONE', ( #511 ), #202, .T. ) ;
#355 = FACE_OUTER_BOUND ( 'NONE', #340, .T. ) ;
#356 = EDGE_CURVE ( 'NONE', #347, #432, #336, .T. ) ;
#357 = AXIS2_PLACEMENT_3D ( 'NONE', #358, #353, #317 ) ;
#358 = CARTESIAN_POINT ( 'NONE',  ( 0.000000000000000000, 0.000000000000000000, -2.500000000000000000 ) ) ;
#359 = DIRECTION ( 'NONE',  ( 0.000000000000000000, 0.000000000000000000, 1.000000000000000000 ) ) ;
#360 = EDGE_CURVE ( 'NONE', #519, #331, #169, .T. ) ;
#361 = ORGANIZATION ( 'UNSPECIFIED', 'UNSPECIFIED', '' ) ;
#362 = DIRECTION ( 'NONE',  ( 0.000000000000000000, 0.000000000000000000, -1.000000000000000000 ) ) ;
#363 = AXIS2_PLACEMENT_3D ( 'NONE', #191, #110, #113 ) ;
#364 = DIRECTION ( 'NONE',  ( 1.000000000000000000, 1.212049422808176104E-16, -0.000000000000000000 ) ) ;
#365 = ORIENTED_EDGE ( 'NONE', *, *, #212, .T. ) ;
#366 = CARTESIAN_POINT ( 'NONE',  ( 7.500000000000000888, 9.184850993605149917E-16, 0.000000000000000000 ) ) ;
#367 = DATE_AND_TIME ( #161, #469 ) ;
#368 = ORIENTED_EDGE ( 'NONE', *, *, #374, .T. ) ;
#369 = CC_DESIGN_SECURITY_CLASSIFICATION ( #412, ( #87 ) ) ;
#370 = MANIFOLD_SOLID_BREP ( 'SMLINK_BETA_CYLINDER', #9 ) ;
#371 = CIRCLE ( 'NONE', #496, 1.000000000000000000 ) ;
#372 = MANIFOLD_SOLID_BREP ( 'SMLINK_PSI_CYLINDER', #542 ) ;
#373 = CYLINDRICAL_SURFACE ( 'NONE', #97, 0.3999999999999975797 ) ;
#374 = EDGE_CURVE ( 'NONE', #519, #557, #2, .T. ) ;
#375 = ORIENTED_EDGE ( 'NONE', *, *, #143, .T. ) ;
#376 = AXIS2_PLACEMENT_3D ( 'NONE', #136, #498, #274 ) ;
#377 = CARTESIAN_POINT ( 'NONE',  ( 6.425039550356480333, -0.1518173240049553452, 10.10000000000000320 ) ) ;
#378 = PERSON_AND_ORGANIZATION ( #125, #361 ) ;
#379 = DIRECTION ( 'NONE',  ( 1.000000000000000000, 0.000000000000000000, -0.000000000000000000 ) ) ;
#380 = COORDINATED_UNIVERSAL_TIME_OFFSET ( 3, 0, .BEHIND. ) ;
#381 = LINE ( 'NONE', #321, #313 ) ;
#382 = VERTEX_POINT ( 'NONE', #439 ) ;
#383 = EDGE_CURVE ( 'NONE', #207, #533, #435, .T. ) ;
#384 = PLANE ( 'NONE',  #323 ) ;
#385 = CC_DESIGN_PERSON_AND_ORGANIZATION_ASSIGNMENT ( #289, #17, ( #35 ) ) ;
#386 = ORIENTED_EDGE ( 'NONE', *, *, #497, .F. ) ;
#387 = PLANE ( 'NONE',  #445 ) ;
#388 = AXIS2_PLACEMENT_3D ( 'NONE', #178, #300, #482 ) ;
#389 = VERTEX_POINT ( 'NONE', #205 ) ;
#390 = CYLINDRICAL_SURFACE ( 'NONE', #575, 0.3999999999999975797 ) ;
#391 = EDGE_CURVE ( 'NONE', #117, #279, #120, .T. ) ;
#392 = EDGE_LOOP ( 'NONE', ( #486, #351, #194, #294 ) ) ;
#393 = DIRECTION ( 'NONE',  ( -1.000000000000000000, 0.000000000000000000, 0.000000000000000000 ) ) ;
#394 = DATE_AND_TIME ( #524, #163 ) ;
#395 = ORIENTED_EDGE ( 'NONE', *, *, #411, .F. ) ;
#396 = APPROVAL_PERSON_ORGANIZATION ( #378, #118, #416 ) ;
#397 = EDGE_CURVE ( 'NONE', #296, #43, #315, .T. ) ;
#398 = EDGE_CURVE ( 'NONE', #347, #43, #167, .T. ) ;
#399 = FACE_OUTER_BOUND ( 'NONE', #112, .T. ) ;
#400 = ORIENTED_EDGE ( 'NONE', *, *, #449, .T. ) ;
#401 = CIRCLE ( 'NONE', #184, 1.000000000000000000 ) ;
#402 = CARTESIAN_POINT ( 'NONE',  ( 0.4000000000000000222, 0.000000000000000000, -3.100000000000000089 ) ) ;
#403 = DIRECTION ( 'NONE',  ( 0.000000000000000000, 0.000000000000000000, 1.000000000000000000 ) ) ;
#404 = EDGE_CURVE ( 'NONE', #557, #504, #253, .T. ) ;
#405 = FACE_OUTER_BOUND ( 'NONE', #254, .T. ) ;
#406 = ADVANCED_FACE ( 'NONE', ( #572 ), #131, .T. ) ;
#407 = LINE ( 'NONE', #271, #138 ) ;
#408 = VECTOR ( 'NONE', #140, 100.0000000000000000 ) ;
#409 = CARTESIAN_POINT ( 'NONE',  ( 0.000000000000000000, 0.000000000000000000, 0.5000000000000000000 ) ) ;
#410 = DIRECTION ( 'NONE',  ( 1.000000000000000000, 0.000000000000000000, 0.000000000000000000 ) ) ;
#411 = EDGE_CURVE ( 'NONE', #447, #296, #526, .T. ) ;
#412 = SECURITY_CLASSIFICATION ( '', '', #346 ) ;
#413 = FACE_OUTER_BOUND ( 'NONE', #510, .T. ) ;
#414 = AXIS2_PLACEMENT_3D ( 'NONE', #415, #147, #239 ) ;
#415 = CARTESIAN_POINT ( 'NONE',  ( 6.425039550356480333, -0.1518173240049553729, 10.50000000000000178 ) ) ;
#416 = APPROVAL_ROLE ( '' ) ;
#417 = ORIENTED_EDGE ( 'NONE', *, *, #360, .F. ) ;
#418 = ADVANCED_FACE ( 'NONE', ( #302, #399 ), #384, .F. ) ;
#419 = CARTESIAN_POINT ( 'NONE',  ( 7.498463275907406356, 0.1505043990094939443, 10.50000000000000178 ) ) ;
#420 = APPLICATION_PROTOCOL_DEFINITION ( 'international standard', 'config_control_design', 1994, #55 ) ;
#421 = ORIENTED_EDGE ( 'NONE', *, *, #570, .F. ) ;
#422 = CIRCLE ( 'NONE', #94, 0.4000000000000000222 ) ;
#423 = DIRECTION ( 'NONE',  ( 0.000000000000000000, 0.000000000000000000, 1.000000000000000000 ) ) ;
#424 = APPROVAL_DATE_TIME ( #245, #118 ) ;
#425 = VERTEX_POINT ( 'NONE', #164 ) ;
#426 = VECTOR ( 'NONE', #261, 100.0000000000000000 ) ;
#427 = DIRECTION ( 'NONE',  ( 1.000000000000000000, 0.000000000000000000, 0.000000000000000000 ) ) ;
#428 = CARTESIAN_POINT ( 'NONE',  ( -0.4000000000000000222, 4.898587196589412459E-17, -3.100000000000000089 ) ) ;
#429 = ORIENTED_EDGE ( 'NONE', *, *, #171, .F. ) ;
#430 = SHAPE_DEFINITION_REPRESENTATION ( #571, #57 ) ;
#431 = CARTESIAN_POINT ( 'NONE',  ( 7.500000000000000888, 9.184850993605149917E-16, 0.5000000000000000000 ) ) ;
#432 = VERTEX_POINT ( 'NONE', #335 ) ;
#433 = FACE_OUTER_BOUND ( 'NONE', #175, .T. ) ;
#434 = FACE_OUTER_BOUND ( 'NONE', #114, .T. ) ;
#435 = LINE ( 'NONE', #40, #238 ) ;
#436 = CIRCLE ( 'NONE', #211, 7.500000000000000888 ) ;
#437 = EDGE_LOOP ( 'NONE', ( #89, #83, #165, #301 ) ) ;
#438 = EDGE_CURVE ( 'NONE', #578, #389, #422, .T. ) ;
#439 = CARTESIAN_POINT ( 'NONE',  ( 1.000000000000000000, 0.000000000000000000, 0.000000000000000000 ) ) ;
#440 = ORIENTED_EDGE ( 'NONE', *, *, #360, .T. ) ;
#441 = CC_DESIGN_PERSON_AND_ORGANIZATION_ASSIGNMENT ( #333, #319, ( #339 ) ) ;
#442 = DIRECTION ( 'NONE',  ( 1.000000000000000000, 0.000000000000000000, 0.000000000000000000 ) ) ;
#443 = COORDINATED_UNIVERSAL_TIME_OFFSET ( 3, 0, .BEHIND. ) ;
#444 = ORIENTED_EDGE ( 'NONE', *, *, #438, .T. ) ;
#445 = AXIS2_PLACEMENT_3D ( 'NONE', #520, #298, #480 ) ;
#446 = LINE ( 'NONE', #402, #14 ) ;
#447 = VERTEX_POINT ( 'NONE', #221 ) ;
#448 = CIRCLE ( 'NONE', #26, 0.4000000000000000222 ) ;
#449 = EDGE_CURVE ( 'NONE', #279, #382, #371, .T. ) ;
#450 = DIRECTION ( 'NONE',  ( 1.000000000000000000, 0.000000000000000000, 0.000000000000000000 ) ) ;
#451 = DIRECTION ( 'NONE',  ( -0.000000000000000000, -0.000000000000000000, -1.000000000000000000 ) ) ;
#452 = AXIS2_PLACEMENT_3D ( 'NONE', #111, #506, #512 ) ;
#453 = EDGE_CURVE ( 'NONE', #447, #347, #22, .T. ) ;
#454 = LINE ( 'NONE', #142, #553 ) ;
#455 = CIRCLE ( 'NONE', #119, 1.000000000000000000 ) ;
#456 = ADVANCED_FACE ( 'NONE', ( #433 ), #38, .F. ) ;
#457 = LINE ( 'NONE', #95, #408 ) ;
#458 = CARTESIAN_POINT ( 'NONE',  ( 0.000000000000000000, 0.000000000000000000, 0.5000000000000000000 ) ) ;
#459 = PLANE ( 'NONE',  #196 ) ;
#460 = CARTESIAN_POINT ( 'NONE',  ( 5.351615824805548982, -0.1518173240049556505, 10.50000000000000178 ) ) ;
#461 = ORIENTED_EDGE ( 'NONE', *, *, #32, .F. ) ;
#462 = AXIS2_PLACEMENT_3D ( 'NONE', #47, #359, #410 ) ;
#463 = FACE_OUTER_BOUND ( 'NONE', #39, .T. ) ;
#464 =( LENGTH_UNIT ( ) NAMED_UNIT ( * ) SI_UNIT ( .CENTI., .METRE. ) );
#465 = ORIENTED_EDGE ( 'NONE', *, *, #349, .T. ) ;
#466 = CARTESIAN_POINT ( 'NONE',  ( 7.498463275907406356, 0.1505043990094939443, 0.5000000000000000000 ) ) ;
#467 = CARTESIAN_POINT ( 'NONE',  ( 0.000000000000000000, 0.000000000000000000, 0.000000000000000000 ) ) ;
#468 = APPLICATION_CONTEXT ( 'configuration controlled 3d designs of mechanical parts and assemblies' ) ;
#469 = LOCAL_TIME ( 14, 37, 42.00000000000000000, #250 ) ;
#470 = ADVANCED_FACE ( 'NONE', ( #34 ), #387, .T. ) ;
#471 = DIRECTION ( 'NONE',  ( 1.000000000000000000, 0.000000000000000000, 0.000000000000000000 ) ) ;
#472 = DIRECTION ( 'NONE',  ( 1.000000000000000000, 1.212049422808176104E-16, -0.000000000000000000 ) ) ;
#473 = ORIENTED_EDGE ( 'NONE', *, *, #32, .T. ) ;
#474 = VECTOR ( 'NONE', #228, 100.0000000000000000 ) ;
#475 = DIRECTION ( 'NONE',  ( 0.000000000000000000, 0.000000000000000000, -1.000000000000000000 ) ) ;
#476 = DATE_AND_TIME ( #293, #13 ) ;
#477 = ORIENTED_EDGE ( 'NONE', *, *, #4, .T. ) ;
#478 = DIRECTION ( 'NONE',  ( 0.000000000000000000, 0.000000000000000000, 1.000000000000000000 ) ) ;
#479 = CARTESIAN_POINT ( 'NONE',  ( 5.351615824805548982, -0.1518173240049556505, 10.50000000000000178 ) ) ;
#480 = DIRECTION ( 'NONE',  ( 1.000000000000000000, 0.000000000000000000, -0.000000000000000000 ) ) ;
#481 = ORIENTED_EDGE ( 'NONE', *, *, #201, .F. ) ;
#482 = DIRECTION ( 'NONE',  ( -1.000000000000000000, 0.000000000000000000, 0.000000000000000000 ) ) ;
#483 = PERSON_AND_ORGANIZATION ( #125, #361 ) ;
#484 = AXIS2_PLACEMENT_3D ( 'NONE', #185, #403, #539 ) ;
#485 = ADVANCED_FACE ( 'NONE', ( #78 ), #390, .T. ) ;
#486 = ORIENTED_EDGE ( 'NONE', *, *, #270, .T. ) ;
#487 = CARTESIAN_POINT ( 'NONE',  ( 0.000000000000000000, 0.000000000000000000, 0.000000000000000000 ) ) ;
#488 = APPROVAL_ROLE ( '' ) ;
#489 = CARTESIAN_POINT ( 'NONE',  ( 6.425039550356480333, -0.1518173240049553729, 10.50000000000000178 ) ) ;
#490 = DIRECTION ( 'NONE',  ( 0.000000000000000000, 0.000000000000000000, 1.000000000000000000 ) ) ;
#491 = ORIENTED_EDGE ( 'NONE', *, *, #4, .F. ) ;
#492 = AXIS2_PLACEMENT_3D ( 'NONE', #236, #278, #509 ) ;
#493 = CARTESIAN_POINT ( 'NONE',  ( 7.498463275907406356, -0.1518173240049553729, 10.50000000000000178 ) ) ;
#494 = CARTESIAN_POINT ( 'NONE',  ( 7.025039550356480866, -0.1518173240049553729, 10.50000000000000178 ) ) ;
#495 = DIRECTION ( 'NONE',  ( 0.000000000000000000, 0.000000000000000000, -1.000000000000000000 ) ) ;
#496 = AXIS2_PLACEMENT_3D ( 'NONE', #1, #350, #531 ) ;
#497 = EDGE_CURVE ( 'NONE', #389, #513, #446, .T. ) ;
#498 = DIRECTION ( 'NONE',  ( 0.000000000000000000, 0.000000000000000000, 1.000000000000000000 ) ) ;
#499 = EDGE_CURVE ( 'NONE', #533, #425, #226, .T. ) ;
#500 = VECTOR ( 'NONE', #292, 100.0000000000000000 ) ;
#501 = DIRECTION ( 'NONE',  ( -0.000000000000000000, -1.000000000000000000, -0.000000000000000000 ) ) ;
#502 = DIRECTION ( 'NONE',  ( -1.000000000000000000, -0.000000000000000000, -0.000000000000000000 ) ) ;
#503 = APPROVAL_STATUS ( 'not_yet_approved' ) ;
#504 = VERTEX_POINT ( 'NONE', #5 ) ;
#505 = CYLINDRICAL_SURFACE ( 'NONE', #37, 0.4000000000000000222 ) ;
#506 = DIRECTION ( 'NONE',  ( 1.000000000000000000, 0.000000000000000000, 0.000000000000000000 ) ) ;
#507 = EDGE_LOOP ( 'NONE', ( #326, #429, #285, #343 ) ) ;
#508 = FACE_OUTER_BOUND ( 'NONE', #529, .T. ) ;
#509 = DIRECTION ( 'NONE',  ( 1.000000000000000000, 0.000000000000000000, 0.000000000000000000 ) ) ;
#510 = EDGE_LOOP ( 'NONE', ( #473, #215, #223, #365 ) ) ;
#511 = FACE_OUTER_BOUND ( 'NONE', #29, .T. ) ;
#512 = DIRECTION ( 'NONE',  ( 0.000000000000000000, 0.000000000000000000, -1.000000000000000000 ) ) ;
#513 = VERTEX_POINT ( 'NONE', #180 ) ;
#514 = AXIS2_PLACEMENT_3D ( 'NONE', #518, #478, #76 ) ;
#515 = DIRECTION ( 'NONE',  ( -0.000000000000000000, -1.000000000000000000, -0.000000000000000000 ) ) ;
#516 = ORIENTED_EDGE ( 'NONE', *, *, #552, .T. ) ;
#517 = AXIS2_PLACEMENT_3D ( 'NONE', #559, #16, #471 ) ;
#518 = CARTESIAN_POINT ( 'NONE',  ( 0.000000000000000000, 0.000000000000000000, 0.5000000000000000000 ) ) ;
#519 = VERTEX_POINT ( 'NONE', #352 ) ;
#520 = CARTESIAN_POINT ( 'NONE',  ( 0.000000000000000000, 0.000000000000000000, -2.500000000000000000 ) ) ;
#521 = PERSON_AND_ORGANIZATION ( #125, #361 ) ;
#522 = ORIENTED_EDGE ( 'NONE', *, *, #84, .F. ) ;
#523 = DIRECTION ( 'NONE',  ( -0.000000000000000000, -0.000000000000000000, -1.000000000000000000 ) ) ;
#524 = CALENDAR_DATE ( 2026, 18, 8 ) ;
#525 = ORIENTED_EDGE ( 'NONE', *, *, #270, .F. ) ;
#526 = LINE ( 'NONE', #431, #309 ) ;
#527 = APPROVAL_DATE_TIME ( #79, #297 ) ;
#528 = VECTOR ( 'NONE', #515, 100.0000000000000000 ) ;
#529 = EDGE_LOOP ( 'NONE', ( #516, #203, #71, #299 ) ) ;
#530 = UNCERTAINTY_MEASURE_WITH_UNIT (LENGTH_MEASURE( 1.000000000000000082E-05 ), #464, 'distance_accuracy_value', 'NONE');
#531 = DIRECTION ( 'NONE',  ( 1.000000000000000000, 0.000000000000000000, 0.000000000000000000 ) ) ;
#532 = APPROVAL_STATUS ( 'not_yet_approved' ) ;
#533 = VERTEX_POINT ( 'NONE', #306 ) ;
#534 = CARTESIAN_POINT ( 'NONE',  ( -1.000000000000000000, 1.224646799147353207E-16, -2.500000000000000000 ) ) ;
#535 = DIRECTION ( 'NONE',  ( 1.000000000000000000, 0.000000000000000000, 0.000000000000000000 ) ) ;
#536 = AXIS2_PLACEMENT_3D ( 'NONE', #8, #233, #535 ) ;
#537 = CYLINDRICAL_SURFACE ( 'NONE', #536, 0.4000000000000000222 ) ;
#538 = EDGE_CURVE ( 'NONE', #432, #322, #24, .T. ) ;
#539 = DIRECTION ( 'NONE',  ( 1.000000000000000000, 0.000000000000000000, 0.000000000000000000 ) ) ;
#540 = VECTOR ( 'NONE', #472, 100.0000000000000000 ) ;
#541 = DIRECTION ( 'NONE',  ( 0.000000000000000000, 0.000000000000000000, 1.000000000000000000 ) ) ;
#542 = CLOSED_SHELL ( 'NONE', ( #485, #286, #10, #204 ) ) ;
#543 = ADVANCED_FACE ( 'NONE', ( #547 ), #459, .F. ) ;
#544 = DIRECTION ( 'NONE',  ( 1.000000000000000000, 0.000000000000000000, 0.000000000000000000 ) ) ;
#545 = VERTEX_POINT ( 'NONE', #59 ) ;
#546 = LINE ( 'NONE', #549, #90 ) ;
#547 = FACE_OUTER_BOUND ( 'NONE', #507, .T. ) ;
#548 = ORIENTED_EDGE ( 'NONE', *, *, #96, .F. ) ;
#549 = CARTESIAN_POINT ( 'NONE',  ( 7.498463275907406356, -0.1518173240049553729, 10.50000000000000178 ) ) ;
#550 =( NAMED_UNIT ( * ) SI_UNIT ( $, .STERADIAN. ) SOLID_ANGLE_UNIT ( ) );
#551 = ORIENTED_EDGE ( 'NONE', *, *, #84, .T. ) ;
#552 = EDGE_CURVE ( 'NONE', #322, #425, #381, .T. ) ;
#553 = VECTOR ( 'NONE', #145, 100.0000000000000000 ) ;
#554 = AXIS2_PLACEMENT_3D ( 'NONE', #53, #541, #308 ) ;
#555 = DIRECTION ( 'NONE',  ( 1.000000000000000000, 0.000000000000000000, 0.000000000000000000 ) ) ;
#556 = FACE_OUTER_BOUND ( 'NONE', #149, .T. ) ;
#557 = VERTEX_POINT ( 'NONE', #101 ) ;
#558 = EDGE_CURVE ( 'NONE', #557, #519, #288, .T. ) ;
#559 = CARTESIAN_POINT ( 'NONE',  ( 0.000000000000000000, 0.000000000000000000, -3.100000000000000089 ) ) ;
#560 = LINE ( 'NONE', #63, #540 ) ;
#561 = ORIENTED_EDGE ( 'NONE', *, *, #159, .T. ) ;
#562 = APPROVAL_PERSON_ORGANIZATION ( #483, #297, #488 ) ;
#563 = DIRECTION ( 'NONE',  ( 0.000000000000000000, 0.000000000000000000, 1.000000000000000000 ) ) ;
#564 = APPROVAL_ROLE ( '' ) ;
#565 = VERTEX_POINT ( 'NONE', #107 ) ;
#566 = MANIFOLD_SOLID_BREP ( 'Ressalto-extrus\X2\00e3\X0\o3', #177 ) ;
#567 = VECTOR ( 'NONE', #30, 100.0000000000000000 ) ;
#568 = CARTESIAN_POINT ( 'NONE',  ( 7.025039550356480866, -0.1518173240049553729, 10.89999999999999858 ) ) ;
#569 = ORIENTED_EDGE ( 'NONE', *, *, #171, .T. ) ;
#570 = EDGE_CURVE ( 'NONE', #243, #432, #560, .T. ) ;
#571 = PRODUCT_DEFINITION_SHAPE ( 'NONE', 'NONE',  #35 ) ;
#572 = FACE_OUTER_BOUND ( 'NONE', #437, .T. ) ;
#573 = PERSON_AND_ORGANIZATION_ROLE ( 'design_supplier' ) ;
#574 = PLANE ( 'NONE',  #316 ) ;
#575 = AXIS2_PLACEMENT_3D ( 'NONE', #258, #265, #490 ) ;
#576 = CARTESIAN_POINT ( 'NONE',  ( -1.000000000000000000, 1.224646799147353207E-16, -2.500000000000000000 ) ) ;
#577 = DATE_TIME_ROLE ( 'classification_date' ) ;
#578 = VERTEX_POINT ( 'NONE', #428 ) ;
#579 = ADVANCED_FACE ( 'NONE', ( #556 ), #240, .T. ) ;
ENDSEC;
END-ISO-10303-21;
