ISO-10303-21;
HEADER;
FILE_DESCRIPTION (( 'STEP AP203' ),
    '1' );
FILE_NAME ('4_corda_Valor predeterminado_sldprt.STEP',
    '2026-08-18T17:37:44',
    ( '' ),
    ( '' ),
    'SwSTEP 2.0',
    'SolidWorks 2025',
    '' );
FILE_SCHEMA (( 'CONFIG_CONTROL_DESIGN' ));
ENDSEC;

DATA;
#1 = AXIS2_PLACEMENT_3D ( 'NONE', #178, #9, #4 ) ;
#2 = SECURITY_CLASSIFICATION ( '', '', #144 ) ;
#3 = ADVANCED_FACE ( 'NONE', ( #82 ), #190, .T. ) ;
#4 = DIRECTION ( 'NONE',  ( 1.000000000000000000, 0.000000000000000000, 0.000000000000000000 ) ) ;
#5 = LINE ( 'NONE', #175, #11 ) ;
#6 = ORIENTED_EDGE ( 'NONE', *, *, #241, .T. ) ;
#7 = CC_DESIGN_PERSON_AND_ORGANIZATION_ASSIGNMENT ( #75, #236, ( #2 ) ) ;
#8 = CYLINDRICAL_SURFACE ( 'NONE', #87, 0.4000000000000000222 ) ;
#9 = DIRECTION ( 'NONE',  ( 0.000000000000000000, 0.000000000000000000, 1.000000000000000000 ) ) ;
#10 = DIRECTION ( 'NONE',  ( 1.000000000000000000, 0.000000000000000000, 0.000000000000000000 ) ) ;
#11 = VECTOR ( 'NONE', #156, 100.0000000000000000 ) ;
#12 = COORDINATED_UNIVERSAL_TIME_OFFSET ( 3, 0, .BEHIND. ) ;
#13 = ORIENTED_EDGE ( 'NONE', *, *, #108, .T. ) ;
#14 = APPLICATION_PROTOCOL_DEFINITION ( 'international standard', 'config_control_design', 1994, #98 ) ;
#15 = VERTEX_POINT ( 'NONE', #97 ) ;
#16 = APPROVAL_DATE_TIME ( #96, #151 ) ;
#17 = VERTEX_POINT ( 'NONE', #60 ) ;
#18 = COORDINATED_UNIVERSAL_TIME_OFFSET ( 3, 0, .BEHIND. ) ;
#19 = DIRECTION ( 'NONE',  ( 1.000000000000000000, 0.000000000000000000, 0.000000000000000000 ) ) ;
#20 = EDGE_CURVE ( 'NONE', #17, #176, #272, .T. ) ;
#21 = APPROVAL_STATUS ( 'not_yet_approved' ) ;
#22 = DIRECTION ( 'NONE',  ( 0.000000000000000000, 0.000000000000000000, 1.000000000000000000 ) ) ;
#23 = AXIS2_PLACEMENT_3D ( 'NONE', #47, #10, #138 ) ;
#24 = EDGE_CURVE ( 'NONE', #176, #78, #154, .T. ) ;
#25 = AXIS2_PLACEMENT_3D ( 'NONE', #164, #149, #214 ) ;
#26 = CARTESIAN_POINT ( 'NONE',  ( -0.05000000000000000278, 6.123233995736765574E-18, 0.000000000000000000 ) ) ;
#27 = FACE_OUTER_BOUND ( 'NONE', #202, .T. ) ;
#28 = AXIS2_PLACEMENT_3D ( 'NONE', #112, #162, #228 ) ;
#29 = CARTESIAN_POINT ( 'NONE',  ( -0.5999999999999999778, 0.05000000000000005829, 0.4000000000000000222 ) ) ;
#30 = ORIENTED_EDGE ( 'NONE', *, *, #49, .F. ) ;
#31 = CYLINDRICAL_SURFACE ( 'NONE', #256, 0.05000000000000000278 ) ;
#32 = ORIENTED_EDGE ( 'NONE', *, *, #206, .F. ) ;
#33 = ADVANCED_BREP_SHAPE_REPRESENTATION ( '4_corda_Valor predeterminado_sldprt', ( #216, #210, #180 ), #67 ) ;
#34 = DATE_AND_TIME ( #213, #238 ) ;
#35 = EDGE_CURVE ( 'NONE', #179, #139, #205, .T. ) ;
#36 = APPLICATION_PROTOCOL_DEFINITION ( 'international standard', 'config_control_design', 1994, #102 ) ;
#37 = ORIENTED_EDGE ( 'NONE', *, *, #113, .T. ) ;
#38 = PERSON_AND_ORGANIZATION ( #80, #188 ) ;
#39 = MECHANICAL_CONTEXT ( 'NONE', #98, 'mechanical' ) ;
#40 = CARTESIAN_POINT ( 'NONE',  ( 0.000000000000000000, 0.000000000000000000, 0.000000000000000000 ) ) ;
#41 = AXIS2_PLACEMENT_3D ( 'NONE', #248, #111, #200 ) ;
#42 = CARTESIAN_POINT ( 'NONE',  ( 0.000000000000000000, 0.000000000000000000, 0.000000000000000000 ) ) ;
#43 = DIRECTION ( 'NONE',  ( 0.000000000000000000, 0.000000000000000000, -1.000000000000000000 ) ) ;
#44 = CARTESIAN_POINT ( 'NONE',  ( 0.000000000000000000, 0.05000000000000000278, -0.4000000000000000222 ) ) ;
#45 = ADVANCED_FACE ( 'NONE', ( #208 ), #255, .T. ) ;
#46 = DIRECTION ( 'NONE',  ( 0.000000000000000000, 0.000000000000000000, -1.000000000000000000 ) ) ;
#47 = CARTESIAN_POINT ( 'NONE',  ( -0.5999999999999999778, 0.05000000000000000278, 0.000000000000000000 ) ) ;
#48 = ORIENTED_EDGE ( 'NONE', *, *, #66, .T. ) ;
#49 = EDGE_CURVE ( 'NONE', #53, #15, #221, .T. ) ;
#50 = FACE_OUTER_BOUND ( 'NONE', #56, .T. ) ;
#51 = DIRECTION ( 'NONE',  ( 1.000000000000000000, 0.000000000000000000, 0.000000000000000000 ) ) ;
#52 = ORIENTED_EDGE ( 'NONE', *, *, #35, .F. ) ;
#53 = VERTEX_POINT ( 'NONE', #44 ) ;
#54 = CARTESIAN_POINT ( 'NONE',  ( 0.000000000000000000, 0.000000000000000000, -8.500200000000001310 ) ) ;
#55 = ADVANCED_FACE ( 'NONE', ( #267 ), #142, .T. ) ;
#56 = EDGE_LOOP ( 'NONE', ( #79, #286, #251 ) ) ;
#57 = APPROVAL_ROLE ( '' ) ;
#58 = DATE_AND_TIME ( #61, #131 ) ;
#59 = PERSON_AND_ORGANIZATION ( #80, #188 ) ;
#60 = CARTESIAN_POINT ( 'NONE',  ( -1.885674861016232986E-14, 0.000000000000000000, -8.500000000000000000 ) ) ;
#61 = CALENDAR_DATE ( 2026, 18, 8 ) ;
#62 = CARTESIAN_POINT ( 'NONE',  ( -3.431283035482114966E-15, 0.000000000000000000, -8.250000000000000000 ) ) ;
#63 = LINE ( 'NONE', #239, #143 ) ;
#64 = VECTOR ( 'NONE', #196, 100.0000000000000000 ) ;
#65 = AXIS2_PLACEMENT_3D ( 'NONE', #165, #167, #43 ) ;
#66 = EDGE_CURVE ( 'NONE', #78, #184, #63, .T. ) ;
#67 =( GEOMETRIC_REPRESENTATION_CONTEXT ( 3 ) GLOBAL_UNCERTAINTY_ASSIGNED_CONTEXT ( ( #170 ) ) GLOBAL_UNIT_ASSIGNED_CONTEXT ( ( #161, #115, #81 ) ) REPRESENTATION_CONTEXT ( 'NONE', 'WORKASPACE' ) );
#68 = DIRECTION ( 'NONE',  ( 0.000000000000000000, 0.000000000000000000, -1.000000000000000000 ) ) ;
#69 = VERTEX_POINT ( 'NONE', #244 ) ;
#70 = DIRECTION ( 'NONE',  ( 1.224646799147353207E-16, 1.000000000000000000, -7.563797615469227422E-30 ) ) ;
#71 = EDGE_LOOP ( 'NONE', ( #134, #125, #109 ) ) ;
#72 = FACE_OUTER_BOUND ( 'NONE', #247, .T. ) ;
#73 = APPROVAL ( #257, 'UNSPECIFIED' ) ;
#74 = FACE_OUTER_BOUND ( 'NONE', #226, .T. ) ;
#75 = PERSON_AND_ORGANIZATION ( #80, #188 ) ;
#76 = DIRECTION ( 'NONE',  ( 0.000000000000000000, 0.000000000000000000, -1.000000000000000000 ) ) ;
#77 = EDGE_CURVE ( 'NONE', #15, #53, #148, .T. ) ;
#78 = VERTEX_POINT ( 'NONE', #128 ) ;
#79 = ORIENTED_EDGE ( 'NONE', *, *, #20, .F. ) ;
#80 = PERSON ( 'UNSPECIFIED', 'UNSPECIFIED', 'UNSPECIFIED', ('UNSPECIFIED'), ('UNSPECIFIED'), ('UNSPECIFIED') ) ;
#81 =( NAMED_UNIT ( * ) SI_UNIT ( $, .STERADIAN. ) SOLID_ANGLE_UNIT ( ) );
#82 = FACE_OUTER_BOUND ( 'NONE', #114, .T. ) ;
#83 = DIRECTION ( 'NONE',  ( 0.000000000000000000, 0.000000000000000000, -1.000000000000000000 ) ) ;
#84 = AXIS2_PLACEMENT_3D ( 'NONE', #192, #243, #220 ) ;
#85 = CARTESIAN_POINT ( 'NONE',  ( 0.000000000000000000, 0.05000000000000000278, 0.000000000000000000 ) ) ;
#86 = CARTESIAN_POINT ( 'NONE',  ( 0.05000000000000000278, 0.000000000000000000, -8.005051025721682478 ) ) ;
#87 = AXIS2_PLACEMENT_3D ( 'NONE', #90, #51, #136 ) ;
#88 = CARTESIAN_POINT ( 'NONE',  ( -0.5999999999999999778, 0.05000000000000000278, -0.4000000000000000222 ) ) ;
#89 = CLOSED_SHELL ( 'NONE', ( #270, #269, #45, #157, #55 ) ) ;
#90 = CARTESIAN_POINT ( 'NONE',  ( -0.5999999999999999778, 0.05000000000000000278, 0.000000000000000000 ) ) ;
#91 = EDGE_LOOP ( 'NONE', ( #288, #173, #94, #159 ) ) ;
#92 = LINE ( 'NONE', #224, #116 ) ;
#93 = AXIS2_PLACEMENT_3D ( 'NONE', #278, #201, #133 ) ;
#94 = ORIENTED_EDGE ( 'NONE', *, *, #206, .T. ) ;
#95 = AXIS2_PLACEMENT_3D ( 'NONE', #240, #19, #83 ) ;
#96 = DATE_AND_TIME ( #209, #150 ) ;
#97 = CARTESIAN_POINT ( 'NONE',  ( 0.000000000000000000, 0.05000000000000005829, 0.4000000000000000222 ) ) ;
#98 = APPLICATION_CONTEXT ( 'configuration controlled 3d designs of mechanical parts and assemblies' ) ;
#99 = DIRECTION ( 'NONE',  ( 0.000000000000000000, 1.000000000000000000, 0.000000000000000000 ) ) ;
#100 = PERSON_AND_ORGANIZATION_ROLE ( 'design_owner' ) ;
#101 = ORIENTED_EDGE ( 'NONE', *, *, #193, .T. ) ;
#102 = APPLICATION_CONTEXT ( 'configuration controlled 3d designs of mechanical parts and assemblies' ) ;
#103 = COORDINATED_UNIVERSAL_TIME_OFFSET ( 3, 0, .BEHIND. ) ;
#104 = PERSON_AND_ORGANIZATION_ROLE ( 'creator' ) ;
#105 = PRODUCT_DEFINITION_FORMATION_WITH_SPECIFIED_SOURCE ( 'ANY', '', #186, .NOT_KNOWN. ) ;
#106 = DIRECTION ( 'NONE',  ( -1.000000000000000000, 1.224646799147353454E-16, 0.000000000000000000 ) ) ;
#107 = CARTESIAN_POINT ( 'NONE',  ( -0.5999999999999999778, 0.05000000000000000278, -0.4000000000000000222 ) ) ;
#108 = EDGE_CURVE ( 'NONE', #184, #69, #132, .T. ) ;
#109 = ORIENTED_EDGE ( 'NONE', *, *, #193, .F. ) ;
#110 = CIRCLE ( 'NONE', #282, 0.2500000000000002220 ) ;
#111 = DIRECTION ( 'NONE',  ( 0.000000000000000000, 1.000000000000000000, 0.000000000000000000 ) ) ;
#112 = CARTESIAN_POINT ( 'NONE',  ( -0.5999999999999999778, 0.05000000000000000278, 0.000000000000000000 ) ) ;
#113 = EDGE_CURVE ( 'NONE', #69, #184, #117, .T. ) ;
#114 = EDGE_LOOP ( 'NONE', ( #230, #250 ) ) ;
#115 =( NAMED_UNIT ( * ) PLANE_ANGLE_UNIT ( ) SI_UNIT ( $, .RADIAN. ) );
#116 = VECTOR ( 'NONE', #181, 100.0000000000000000 ) ;
#117 = CIRCLE ( 'NONE', #242, 0.05000000000000000278 ) ;
#118 = PERSON_AND_ORGANIZATION ( #80, #188 ) ;
#119 = PERSON_AND_ORGANIZATION_ROLE ( 'design_supplier' ) ;
#120 = EDGE_CURVE ( 'NONE', #176, #69, #92, .T. ) ;
#121 = COORDINATED_UNIVERSAL_TIME_OFFSET ( 3, 0, .BEHIND. ) ;
#122 = LOCAL_TIME ( 14, 37, 44.00000000000000000, #121 ) ;
#123 = DIRECTION ( 'NONE',  ( 1.000000000000000000, 0.000000000000000000, 0.000000000000000000 ) ) ;
#124 = CC_DESIGN_DATE_AND_TIME_ASSIGNMENT ( #166, #140, ( #174 ) ) ;
#125 = ORIENTED_EDGE ( 'NONE', *, *, #20, .T. ) ;
#126 = EDGE_CURVE ( 'NONE', #17, #78, #110, .T. ) ;
#127 = ORIENTED_EDGE ( 'NONE', *, *, #24, .T. ) ;
#128 = CARTESIAN_POINT ( 'NONE',  ( -0.05000000000000000278, 6.123233995736765574E-18, -8.005051025721682478 ) ) ;
#129 = APPROVAL_PERSON_ORGANIZATION ( #38, #151, #231 ) ;
#130 = APPROVAL ( #21, 'UNSPECIFIED' ) ;
#131 = LOCAL_TIME ( 14, 37, 44.00000000000000000, #103 ) ;
#132 = CIRCLE ( 'NONE', #84, 0.05000000000000000278 ) ;
#133 = DIRECTION ( 'NONE',  ( -1.000000000000000000, 0.000000000000000000, 0.000000000000000000 ) ) ;
#134 = ORIENTED_EDGE ( 'NONE', *, *, #126, .F. ) ;
#135 = FACE_OUTER_BOUND ( 'NONE', #91, .T. ) ;
#136 = DIRECTION ( 'NONE',  ( 0.000000000000000000, 0.000000000000000000, -1.000000000000000000 ) ) ;
#137 = AXIS2_PLACEMENT_3D ( 'NONE', #237, #263, #76 ) ;
#138 = DIRECTION ( 'NONE',  ( 0.000000000000000000, 0.000000000000000000, -1.000000000000000000 ) ) ;
#139 = VERTEX_POINT ( 'NONE', #88 ) ;
#140 = DATE_TIME_ROLE ( 'creation_date' ) ;
#141 = ORIENTED_EDGE ( 'NONE', *, *, #108, .F. ) ;
#142 = SPHERICAL_SURFACE ( 'NONE', #182, 0.2500000000000002220 ) ;
#143 = VECTOR ( 'NONE', #258, 100.0000000000000000 ) ;
#144 = SECURITY_CLASSIFICATION_LEVEL ( 'unclassified' ) ;
#145 = DATE_TIME_ROLE ( 'classification_date' ) ;
#146 = APPROVAL_PERSON_ORGANIZATION ( #118, #130, #57 ) ;
#147 = DIRECTION ( 'NONE',  ( 1.000000000000000000, 0.000000000000000000, -6.106226635438355924E-14 ) ) ;
#148 = CIRCLE ( 'NONE', #268, 0.4000000000000000222 ) ;
#149 = DIRECTION ( 'NONE',  ( -0.000000000000000000, -0.000000000000000000, 1.000000000000000000 ) ) ;
#150 = LOCAL_TIME ( 14, 37, 44.00000000000000000, #12 ) ;
#151 = APPROVAL ( #191, 'UNSPECIFIED' ) ;
#152 = CC_DESIGN_PERSON_AND_ORGANIZATION_ASSIGNMENT ( #262, #189, ( #174 ) ) ;
#153 = LINE ( 'NONE', #107, #64 ) ;
#154 = CIRCLE ( 'NONE', #25, 0.05000000000000000278 ) ;
#155 = ORIENTED_EDGE ( 'NONE', *, *, #187, .T. ) ;
#156 = DIRECTION ( 'NONE',  ( 1.000000000000000000, 0.000000000000000000, 0.000000000000000000 ) ) ;
#157 = ADVANCED_FACE ( 'NONE', ( #223 ), #252, .T. ) ;
#158 = CARTESIAN_POINT ( 'NONE',  ( -0.5999999999999999778, 0.05000000000000000278, 0.000000000000000000 ) ) ;
#159 = ORIENTED_EDGE ( 'NONE', *, *, #77, .F. ) ;
#160 = AXIS2_PLACEMENT_3D ( 'NONE', #158, #283, #68 ) ;
#161 =( LENGTH_UNIT ( ) NAMED_UNIT ( * ) SI_UNIT ( .CENTI., .METRE. ) );
#162 = DIRECTION ( 'NONE',  ( 1.000000000000000000, 0.000000000000000000, 0.000000000000000000 ) ) ;
#163 = EDGE_LOOP ( 'NONE', ( #204, #101, #275, #141 ) ) ;
#164 = CARTESIAN_POINT ( 'NONE',  ( 0.000000000000000000, 0.000000000000000000, -8.005051025721682478 ) ) ;
#165 = CARTESIAN_POINT ( 'NONE',  ( 0.000000000000000000, 0.05000000000000000278, 0.000000000000000000 ) ) ;
#166 = DATE_AND_TIME ( #211, #122 ) ;
#167 = DIRECTION ( 'NONE',  ( 1.000000000000000000, 0.000000000000000000, 0.000000000000000000 ) ) ;
#168 = APPROVAL_ROLE ( '' ) ;
#169 = ORIENTED_EDGE ( 'NONE', *, *, #113, .F. ) ;
#170 = UNCERTAINTY_MEASURE_WITH_UNIT (LENGTH_MEASURE( 1.000000000000000082E-05 ), #161, 'distance_accuracy_value', 'NONE');
#171 = DIRECTION ( 'NONE',  ( 1.000000000000000000, 0.000000000000000000, 0.000000000000000000 ) ) ;
#172 = PRODUCT_RELATED_PRODUCT_CATEGORY ( 'detail', '', ( #186 ) ) ;
#173 = ORIENTED_EDGE ( 'NONE', *, *, #35, .T. ) ;
#174 = PRODUCT_DEFINITION ( 'UNKNOWN', '', #105, #271 ) ;
#175 = CARTESIAN_POINT ( 'NONE',  ( -0.5999999999999999778, 0.05000000000000005829, 0.4000000000000000222 ) ) ;
#176 = VERTEX_POINT ( 'NONE', #86 ) ;
#177 = CARTESIAN_POINT ( 'NONE',  ( -3.431283035482114966E-15, 0.000000000000000000, -8.250000000000000000 ) ) ;
#178 = CARTESIAN_POINT ( 'NONE',  ( 0.000000000000000000, 0.000000000000000000, -8.500200000000001310 ) ) ;
#179 = VERTEX_POINT ( 'NONE', #29 ) ;
#180 = AXIS2_PLACEMENT_3D ( 'NONE', #42, #233, #123 ) ;
#181 = DIRECTION ( 'NONE',  ( 0.000000000000000000, 0.000000000000000000, 1.000000000000000000 ) ) ;
#182 = AXIS2_PLACEMENT_3D ( 'NONE', #62, #99, #147 ) ;
#183 = PERSON_AND_ORGANIZATION ( #80, #188 ) ;
#184 = VERTEX_POINT ( 'NONE', #26 ) ;
#185 = CALENDAR_DATE ( 2026, 18, 8 ) ;
#186 = PRODUCT ( '4_corda_Valor predeterminado_sldprt', '4_corda_Valor predeterminado_sldprt', '', ( #39 ) ) ;
#187 = EDGE_CURVE ( 'NONE', #139, #179, #265, .T. ) ;
#188 = ORGANIZATION ( 'UNSPECIFIED', 'UNSPECIFIED', '' ) ;
#189 = PERSON_AND_ORGANIZATION_ROLE ( 'creator' ) ;
#190 = PLANE ( 'NONE',  #65 ) ;
#191 = APPROVAL_STATUS ( 'not_yet_approved' ) ;
#192 = CARTESIAN_POINT ( 'NONE',  ( 0.000000000000000000, 0.000000000000000000, 0.000000000000000000 ) ) ;
#193 = EDGE_CURVE ( 'NONE', #78, #176, #217, .T. ) ;
#194 = CC_DESIGN_SECURITY_CLASSIFICATION ( #2, ( #105 ) ) ;
#195 = DIRECTION ( 'NONE',  ( 0.000000000000000000, 0.000000000000000000, 1.000000000000000000 ) ) ;
#196 = DIRECTION ( 'NONE',  ( 1.000000000000000000, 0.000000000000000000, 0.000000000000000000 ) ) ;
#197 = ORIENTED_EDGE ( 'NONE', *, *, #187, .F. ) ;
#198 = CC_DESIGN_APPROVAL ( #151, ( #2 ) ) ;
#199 = CC_DESIGN_DATE_AND_TIME_ASSIGNMENT ( #289, #145, ( #2 ) ) ;
#200 = DIRECTION ( 'NONE',  ( 1.000000000000000000, 0.000000000000000000, -6.106226635438355924E-14 ) ) ;
#201 = DIRECTION ( 'NONE',  ( -0.000000000000000000, -0.000000000000000000, 1.000000000000000000 ) ) ;
#202 = EDGE_LOOP ( 'NONE', ( #127, #48, #169, #279 ) ) ;
#203 = APPROVAL_DATE_TIME ( #58, #73 ) ;
#204 = ORIENTED_EDGE ( 'NONE', *, *, #66, .F. ) ;
#205 = CIRCLE ( 'NONE', #234, 0.4000000000000000222 ) ;
#206 = EDGE_CURVE ( 'NONE', #139, #53, #153, .T. ) ;
#207 = COORDINATED_UNIVERSAL_TIME_OFFSET ( 3, 0, .BEHIND. ) ;
#208 = FACE_OUTER_BOUND ( 'NONE', #253, .T. ) ;
#209 = CALENDAR_DATE ( 2026, 18, 8 ) ;
#210 = MANIFOLD_SOLID_BREP ( 'SMLINK_PSI_CYLINDER', #259 ) ;
#211 = CALENDAR_DATE ( 2026, 18, 8 ) ;
#212 = DIRECTION ( 'NONE',  ( 1.000000000000000000, 0.000000000000000000, -0.000000000000000000 ) ) ;
#213 = CALENDAR_DATE ( 2026, 18, 8 ) ;
#214 = DIRECTION ( 'NONE',  ( -1.000000000000000000, 0.000000000000000000, 0.000000000000000000 ) ) ;
#215 = DIRECTION ( 'NONE',  ( 0.000000000000000000, 0.000000000000000000, -1.000000000000000000 ) ) ;
#216 = MANIFOLD_SOLID_BREP ( 'Ressalto-extrus\X2\00e3\X0\o1', #89 ) ;
#217 = CIRCLE ( 'NONE', #93, 0.05000000000000000278 ) ;
#218 = ADVANCED_FACE ( 'NONE', ( #72 ), #249, .T. ) ;
#219 = CARTESIAN_POINT ( 'NONE',  ( 0.000000000000000000, 0.000000000000000000, 0.000000000000000000 ) ) ;
#220 = DIRECTION ( 'NONE',  ( 1.000000000000000000, 0.000000000000000000, 0.000000000000000000 ) ) ;
#221 = CIRCLE ( 'NONE', #95, 0.4000000000000000222 ) ;
#222 = DIRECTION ( 'NONE',  ( 0.000000000000000000, 0.000000000000000000, 1.000000000000000000 ) ) ;
#223 = FACE_OUTER_BOUND ( 'NONE', #163, .T. ) ;
#224 = CARTESIAN_POINT ( 'NONE',  ( 0.05000000000000000278, 0.000000000000000000, -8.500200000000001310 ) ) ;
#225 = CC_DESIGN_APPROVAL ( #73, ( #105 ) ) ;
#226 = EDGE_LOOP ( 'NONE', ( #197, #52 ) ) ;
#227 = CC_DESIGN_PERSON_AND_ORGANIZATION_ASSIGNMENT ( #59, #104, ( #105 ) ) ;
#228 = DIRECTION ( 'NONE',  ( 0.000000000000000000, 0.000000000000000000, -1.000000000000000000 ) ) ;
#229 = ADVANCED_FACE ( 'NONE', ( #74 ), #246, .F. ) ;
#230 = ORIENTED_EDGE ( 'NONE', *, *, #49, .T. ) ;
#231 = APPROVAL_ROLE ( '' ) ;
#232 = CC_DESIGN_APPROVAL ( #130, ( #174 ) ) ;
#233 = DIRECTION ( 'NONE',  ( 0.000000000000000000, 0.000000000000000000, 1.000000000000000000 ) ) ;
#234 = AXIS2_PLACEMENT_3D ( 'NONE', #261, #235, #215 ) ;
#235 = DIRECTION ( 'NONE',  ( 1.000000000000000000, 0.000000000000000000, 0.000000000000000000 ) ) ;
#236 = PERSON_AND_ORGANIZATION_ROLE ( 'classification_officer' ) ;
#237 = CARTESIAN_POINT ( 'NONE',  ( -3.431283035482114966E-15, 0.000000000000000000, -8.250000000000000000 ) ) ;
#238 = LOCAL_TIME ( 14, 37, 44.00000000000000000, #207 ) ;
#239 = CARTESIAN_POINT ( 'NONE',  ( -0.05000000000000000278, 6.123233995736765574E-18, -8.500200000000001310 ) ) ;
#240 = CARTESIAN_POINT ( 'NONE',  ( 0.000000000000000000, 0.05000000000000000278, 0.000000000000000000 ) ) ;
#241 = EDGE_CURVE ( 'NONE', #179, #15, #5, .T. ) ;
#242 = AXIS2_PLACEMENT_3D ( 'NONE', #219, #195, #273 ) ;
#243 = DIRECTION ( 'NONE',  ( 0.000000000000000000, 0.000000000000000000, 1.000000000000000000 ) ) ;
#244 = CARTESIAN_POINT ( 'NONE',  ( 0.05000000000000000278, 0.000000000000000000, 0.000000000000000000 ) ) ;
#245 = CC_DESIGN_PERSON_AND_ORGANIZATION_ASSIGNMENT ( #183, #100, ( #186 ) ) ;
#246 = PLANE ( 'NONE',  #28 ) ;
#247 = EDGE_LOOP ( 'NONE', ( #155, #6, #30, #32 ) ) ;
#248 = CARTESIAN_POINT ( 'NONE',  ( -3.431283035482114966E-15, 0.000000000000000000, -8.250000000000000000 ) ) ;
#249 = CYLINDRICAL_SURFACE ( 'NONE', #23, 0.4000000000000000222 ) ;
#250 = ORIENTED_EDGE ( 'NONE', *, *, #77, .T. ) ;
#251 = ORIENTED_EDGE ( 'NONE', *, *, #24, .F. ) ;
#252 = CYLINDRICAL_SURFACE ( 'NONE', #1, 0.05000000000000000278 ) ;
#253 = EDGE_LOOP ( 'NONE', ( #37, #13 ) ) ;
#254 = PERSON_AND_ORGANIZATION ( #80, #188 ) ;
#255 = PLANE ( 'NONE',  #276 ) ;
#256 = AXIS2_PLACEMENT_3D ( 'NONE', #54, #222, #281 ) ;
#257 = APPROVAL_STATUS ( 'not_yet_approved' ) ;
#258 = DIRECTION ( 'NONE',  ( 0.000000000000000000, 0.000000000000000000, 1.000000000000000000 ) ) ;
#259 = CLOSED_SHELL ( 'NONE', ( #218, #280, #229, #3 ) ) ;
#260 = PERSON_AND_ORGANIZATION ( #80, #188 ) ;
#261 = CARTESIAN_POINT ( 'NONE',  ( -0.5999999999999999778, 0.05000000000000000278, 0.000000000000000000 ) ) ;
#262 = PERSON_AND_ORGANIZATION ( #80, #188 ) ;
#263 = DIRECTION ( 'NONE',  ( 0.000000000000000000, -1.000000000000000000, -0.000000000000000000 ) ) ;
#264 = CC_DESIGN_PERSON_AND_ORGANIZATION_ASSIGNMENT ( #254, #119, ( #105 ) ) ;
#265 = CIRCLE ( 'NONE', #160, 0.4000000000000000222 ) ;
#266 = APPROVAL_DATE_TIME ( #34, #130 ) ;
#267 = FACE_OUTER_BOUND ( 'NONE', #71, .T. ) ;
#268 = AXIS2_PLACEMENT_3D ( 'NONE', #85, #171, #46 ) ;
#269 = ADVANCED_FACE ( 'NONE', ( #27 ), #31, .T. ) ;
#270 = ADVANCED_FACE ( 'NONE', ( #50 ), #277, .T. ) ;
#271 = DESIGN_CONTEXT ( 'detailed design', #102, 'design' ) ;
#272 = CIRCLE ( 'NONE', #137, 0.2500000000000002220 ) ;
#273 = DIRECTION ( 'NONE',  ( 1.000000000000000000, 0.000000000000000000, 0.000000000000000000 ) ) ;
#274 = APPROVAL_PERSON_ORGANIZATION ( #260, #73, #168 ) ;
#275 = ORIENTED_EDGE ( 'NONE', *, *, #120, .T. ) ;
#276 = AXIS2_PLACEMENT_3D ( 'NONE', #40, #22, #212 ) ;
#277 = SPHERICAL_SURFACE ( 'NONE', #41, 0.2500000000000002220 ) ;
#278 = CARTESIAN_POINT ( 'NONE',  ( 0.000000000000000000, 0.000000000000000000, -8.005051025721682478 ) ) ;
#279 = ORIENTED_EDGE ( 'NONE', *, *, #120, .F. ) ;
#280 = ADVANCED_FACE ( 'NONE', ( #135 ), #8, .T. ) ;
#281 = DIRECTION ( 'NONE',  ( 1.000000000000000000, 0.000000000000000000, 0.000000000000000000 ) ) ;
#282 = AXIS2_PLACEMENT_3D ( 'NONE', #177, #70, #106 ) ;
#283 = DIRECTION ( 'NONE',  ( 1.000000000000000000, 0.000000000000000000, 0.000000000000000000 ) ) ;
#284 = PRODUCT_DEFINITION_SHAPE ( 'NONE', 'NONE',  #174 ) ;
#285 = SHAPE_DEFINITION_REPRESENTATION ( #284, #33 ) ;
#286 = ORIENTED_EDGE ( 'NONE', *, *, #126, .T. ) ;
#287 = LOCAL_TIME ( 14, 37, 44.00000000000000000, #18 ) ;
#288 = ORIENTED_EDGE ( 'NONE', *, *, #241, .F. ) ;
#289 = DATE_AND_TIME ( #185, #287 ) ;
ENDSEC;
END-ISO-10303-21;
